<?xml version="1.0" encoding="UTF-8"?>
<svg xmlns="http://www.w3.org/2000/svg" xmlns:xlink="http://www.w3.org/1999/xlink" width="375pt" height="374.999991pt" viewBox="0 0 375 374.999991" version="1.2">
<defs>
<clipPath id="clip1">
  <path d="M 8.527344 126.648438 L 366.089844 126.648438 L 366.089844 247.949219 L 8.527344 247.949219 Z M 8.527344 126.648438 "/>
</clipPath>
</defs>
<g id="surface1">
<g clip-path="url(#clip1)" clip-rule="nonzero">
<path style=" stroke:none;fill-rule:nonzero;fill:rgb(0%,0%,0%);fill-opacity:1;" d="M 69.3125 126.648438 C 35.828125 126.648438 8.527344 153.886719 8.527344 187.300781 C 8.527344 220.710938 35.828125 247.949219 69.3125 247.949219 C 84.300781 247.949219 98.027344 242.464844 108.644531 233.441406 C 119.261719 242.464844 132.988281 247.949219 147.976562 247.949219 C 162.964844 247.949219 176.691406 242.464844 187.308594 233.441406 C 197.925781 242.464844 211.652344 247.949219 226.640625 247.949219 C 241.628906 247.949219 255.355469 242.464844 265.972656 233.441406 C 276.589844 242.464844 290.316406 247.949219 305.304688 247.949219 C 338.789062 247.949219 366.089844 220.710938 366.089844 187.300781 C 366.089844 153.886719 338.789062 126.648438 305.304688 126.648438 C 290.316406 126.648438 276.589844 132.132812 265.972656 141.15625 C 255.355469 132.132812 241.628906 126.648438 226.640625 126.648438 C 211.652344 126.648438 197.925781 132.132812 187.308594 141.15625 C 176.691406 132.132812 162.964844 126.648438 147.976562 126.648438 C 132.988281 126.648438 119.261719 132.132812 108.644531 141.15625 C 98.027344 132.132812 84.300781 126.648438 69.3125 126.648438 Z M 69.3125 140.921875 C 80.621094 140.921875 90.953125 144.90625 98.992188 151.554688 C 91.609375 161.59375 87.191406 173.9375 87.191406 187.300781 C 87.191406 200.664062 91.609375 213.003906 98.992188 223.046875 C 90.953125 229.691406 80.621094 233.679688 69.3125 233.679688 C 43.554688 233.679688 22.828125 213 22.828125 187.300781 C 22.828125 161.601562 43.554688 140.921875 69.3125 140.921875 Z M 147.976562 140.921875 C 159.285156 140.921875 169.617188 144.90625 177.65625 151.554688 C 170.273438 161.59375 165.855469 173.9375 165.855469 187.300781 C 165.855469 200.664062 170.273438 213.003906 177.65625 223.046875 C 169.617188 229.691406 159.285156 233.679688 147.976562 233.679688 C 136.667969 233.679688 126.335938 229.691406 118.296875 223.046875 C 125.679688 213.003906 130.097656 200.664062 130.097656 187.300781 C 130.097656 173.9375 125.679688 161.59375 118.296875 151.554688 C 126.335938 144.90625 136.667969 140.921875 147.976562 140.921875 Z M 226.640625 140.921875 C 237.949219 140.921875 248.28125 144.90625 256.320312 151.554688 C 248.9375 161.59375 244.519531 173.9375 244.519531 187.300781 C 244.519531 200.664062 248.9375 213.003906 256.320312 223.046875 C 248.28125 229.691406 237.949219 233.679688 226.640625 233.679688 C 215.332031 233.679688 205 229.691406 196.960938 223.046875 C 204.34375 213.003906 208.761719 200.664062 208.761719 187.300781 C 208.761719 173.9375 204.34375 161.59375 196.960938 151.554688 C 205 144.90625 215.332031 140.921875 226.640625 140.921875 Z M 305.304688 140.921875 C 331.0625 140.921875 351.789062 161.601562 351.789062 187.300781 C 351.789062 213 331.0625 233.679688 305.304688 233.679688 C 293.996094 233.679688 283.664062 229.691406 275.625 223.046875 C 283.007812 213.003906 287.425781 200.664062 287.425781 187.300781 C 287.425781 173.9375 283.007812 161.59375 275.625 151.554688 C 283.664062 144.90625 293.996094 140.921875 305.304688 140.921875 Z M 108.644531 162.589844 C 113.152344 169.742188 115.796875 178.191406 115.796875 187.300781 C 115.796875 196.410156 113.152344 204.859375 108.644531 212.007812 C 104.136719 204.859375 101.492188 196.410156 101.492188 187.300781 C 101.492188 178.191406 104.136719 169.742188 108.644531 162.589844 Z M 187.308594 162.589844 C 191.816406 169.742188 194.460938 178.191406 194.460938 187.300781 C 194.460938 196.410156 191.816406 204.859375 187.308594 212.007812 C 182.800781 204.859375 180.15625 196.410156 180.15625 187.300781 C 180.15625 178.191406 182.800781 169.742188 187.308594 162.589844 Z M 265.972656 162.589844 C 270.480469 169.742188 273.125 178.191406 273.125 187.300781 C 273.125 196.410156 270.480469 204.859375 265.972656 212.007812 C 261.464844 204.859375 258.820312 196.410156 258.820312 187.300781 C 258.820312 178.191406 261.464844 169.742188 265.972656 162.589844 Z M 265.972656 162.589844 "/>
</g>
</g>
</svg>
