<?xml version="1.0" encoding="UTF-8"?>
<svg xmlns="http://www.w3.org/2000/svg" xmlns:xlink="http://www.w3.org/1999/xlink" width="375pt" height="374.999991pt" viewBox="0 0 375 374.999991" version="1.2">
<defs>
<clipPath id="clip1">
  <path d="M 50.359375 50.359375 L 324.859375 50.359375 L 324.859375 324.859375 L 50.359375 324.859375 Z M 50.359375 50.359375 "/>
</clipPath>
</defs>
<g id="surface1">
<g clip-path="url(#clip1)" clip-rule="nonzero">
<path style=" stroke:none;fill-rule:nonzero;fill:rgb(21.569824%,27.839661%,30.979919%);fill-opacity:1;" d="M 187.71875 325.082031 C 111.980469 325.082031 50.359375 263.460938 50.359375 187.71875 C 50.359375 111.980469 111.980469 50.359375 187.71875 50.359375 C 263.460938 50.359375 325.082031 111.980469 325.082031 187.71875 C 325.082031 263.460938 263.460938 325.082031 187.71875 325.082031 Z M 187.71875 325.082031 "/>
</g>
<path style=" stroke:none;fill-rule:nonzero;fill:rgb(100%,100%,100%);fill-opacity:1;" d="M 259.667969 187.71875 C 259.667969 147.972656 227.457031 115.769531 187.71875 115.769531 C 147.980469 115.769531 115.769531 147.972656 115.769531 187.71875 C 115.769531 227.464844 147.972656 259.667969 187.71875 259.667969 C 227.464844 259.667969 259.667969 227.464844 259.667969 187.71875 Z M 259.667969 187.71875 "/>
<path style=" stroke:none;fill-rule:nonzero;fill:rgb(26.669312%,54.119873%,100%);fill-opacity:1;" d="M 187.71875 119.039062 C 150.226562 120.007812 120.007812 150.234375 119.039062 187.71875 L 187.71875 187.71875 Z M 187.71875 256.414062 C 225.210938 255.433594 255.433594 225.207031 256.402344 187.71875 L 187.71875 187.71875 Z M 187.71875 256.414062 "/>
<path style=" stroke:none;fill-rule:nonzero;fill:rgb(81.17981%,84.709167%,86.268616%);fill-opacity:1;" d="M 129.820312 113.503906 C 129.339844 110.117188 127.292969 107.261719 124.15625 105.839844 C 121.011719 104.410156 117.355469 104.945312 114.582031 106.894531 C 114.355469 107.066406 114.140625 107.261719 113.9375 107.433594 C 114.394531 105.859375 114.535156 104.265625 114.140625 102.679688 C 113.769531 101.105469 112.945312 99.671875 111.785156 98.542969 C 109.4375 96.242188 105.867188 95.496094 102.789062 96.640625 C 101.347656 97.191406 100.042969 98.125 99.074219 99.320312 C 98.523438 100.015625 97.980469 100.6875 97.417969 101.394531 C 94.539062 104.980469 91.664062 108.570312 88.792969 112.15625 C 86.320312 115.246094 83.859375 118.339844 81.382812 121.421875 C 81.214844 121.621094 81.058594 121.847656 80.902344 122.039062 C 80.886719 122.039062 81.214844 122.292969 81.242188 122.308594 C 82.207031 123.085938 83.152344 123.847656 84.113281 124.609375 C 87.742188 127.519531 91.355469 130.425781 94.988281 133.324219 C 98.566406 136.203125 102.164062 139.074219 105.757812 141.945312 C 106.667969 142.6875 107.589844 143.414062 108.503906 144.136719 C 108.53125 144.183594 108.75 144.390625 108.785156 144.339844 C 108.96875 144.113281 109.148438 143.875 109.328125 143.660156 C 111.792969 140.578125 114.265625 137.507812 116.71875 134.421875 C 119.671875 130.722656 122.625 127.054688 125.578125 123.359375 C 127.101562 121.46875 128.785156 119.65625 129.507812 117.289062 C 129.882812 116.042969 129.953125 114.773438 129.820312 113.503906 Z M 98.042969 123.902344 C 96.546875 122.71875 95.054688 121.511719 93.566406 120.316406 C 92.996094 119.863281 92.425781 119.417969 91.855469 118.949219 C 91.835938 118.9375 92.445312 118.199219 92.480469 118.160156 C 95.253906 114.671875 98.042969 111.203125 100.824219 107.726562 C 101.558594 106.828125 102.21875 105.839844 103.34375 105.386719 C 104.878906 104.738281 106.691406 105.144531 107.808594 106.375 C 108.703125 107.363281 109.003906 108.714844 108.714844 110.015625 C 108.378906 111.175781 107.5625 112.011719 106.839844 112.925781 C 105.386719 114.765625 103.910156 116.59375 102.453125 118.421875 C 100.976562 120.234375 99.5 122.054688 98.042969 123.902344 Z M 120.097656 119.628906 C 119.148438 120.804688 118.214844 121.980469 117.265625 123.160156 C 114.679688 126.402344 112.082031 129.644531 109.492188 132.871094 C 109.480469 132.886719 109.417969 132.996094 109.390625 132.980469 C 109.253906 132.871094 109.128906 132.753906 108.996094 132.652344 C 108.285156 132.089844 107.582031 131.53125 106.875 130.96875 C 105.652344 129.980469 104.421875 128.992188 103.207031 128.015625 C 105.558594 125.074219 107.917969 122.144531 110.261719 119.203125 C 111.414062 117.761719 112.554688 116.339844 113.703125 114.898438 C 114.519531 113.882812 115.558594 113.144531 116.917969 113.105469 C 118.550781 113.0625 119.980469 114.003906 120.671875 115.46875 C 121.257812 116.894531 121.058594 118.429688 120.097656 119.628906 Z M 273.640625 98.503906 L 267.039062 92.378906 L 245.554688 120.589844 L 252.164062 126.71875 L 275.714844 115.933594 L 260.035156 136.550781 L 264.574219 144.339844 L 296.796875 129.546875 L 292.25 121.746094 L 273.644531 130.273438 L 286.867188 112.925781 L 281.078125 105.707031 L 261.261719 114.800781 Z M 177.210938 75.832031 L 184.753906 99.636719 L 190.695312 99.636719 L 198.222656 75.832031 L 199.011719 99.636719 L 207.34375 100.96875 L 206.152344 65.253906 L 195.453125 63.910156 L 187.726562 89.058594 L 179.988281 63.910156 L 169.285156 65.253906 L 168.097656 100.96875 L 176.421875 99.636719 Z M 177.210938 75.832031 "/>
<path style=" stroke:none;fill-rule:nonzero;fill:rgb(100%,100%,100%);fill-opacity:1;" d="M 187.71875 263.269531 C 146.058594 263.269531 112.171875 229.382812 112.171875 187.71875 C 112.171875 146.058594 146.058594 112.171875 187.71875 112.171875 C 229.382812 112.171875 263.269531 146.058594 263.269531 187.71875 C 263.269531 229.382812 229.382812 263.269531 187.71875 263.269531 Z M 187.71875 125.90625 C 153.632812 125.90625 125.90625 153.632812 125.90625 187.71875 C 125.90625 221.804688 153.632812 249.53125 187.71875 249.53125 C 221.800781 249.53125 249.53125 221.804688 249.53125 187.71875 C 249.53125 153.632812 221.800781 125.90625 187.71875 125.90625 Z M 187.71875 125.90625 "/>
</g>
</svg>
