<?xml version="1.0" encoding="UTF-8"?>
<svg xmlns="http://www.w3.org/2000/svg" xmlns:xlink="http://www.w3.org/1999/xlink" width="375pt" height="374.999991pt" viewBox="0 0 375 374.999991" version="1.2">
<defs>
<clipPath id="clip1">
  <path d="M 16.660156 16.660156 L 358.65625 16.660156 L 358.65625 358.65625 L 16.660156 358.65625 Z M 16.660156 16.660156 "/>
</clipPath>
<clipPath id="clip2">
  <path d="M 16.660156 156 L 358.65625 156 L 358.65625 358.65625 L 16.660156 358.65625 Z M 16.660156 156 "/>
</clipPath>
</defs>
<g id="surface1">
<g clip-path="url(#clip1)" clip-rule="nonzero">
<path style=" stroke:none;fill-rule:nonzero;fill:rgb(77.249146%,79.219055%,91.369629%);fill-opacity:1;" d="M 358.988281 186.109375 C 358.988281 140.753906 341.015625 97.960938 308.492188 66.296875 C 276.828125 34.628906 233.179688 16.660156 187.824219 16.660156 C 142.464844 16.660156 98.816406 34.628906 67.152344 66.296875 C 34.628906 97.960938 16.660156 140.753906 16.660156 186.109375 C 16.660156 204.082031 19.226562 221.199219 24.359375 237.460938 C 44.898438 307.636719 109.941406 358.988281 187.824219 358.988281 C 265.703125 358.988281 330.746094 307.636719 351.285156 237.460938 C 356.417969 221.199219 358.988281 204.082031 358.988281 186.109375 Z M 358.988281 186.109375 "/>
</g>
<g clip-path="url(#clip2)" clip-rule="nonzero">
<path style=" stroke:none;fill-rule:nonzero;fill:rgb(62.348938%,65.879822%,85.488892%);fill-opacity:1;" d="M 351.285156 177.550781 C 330.746094 247.730469 265.703125 299.078125 187.824219 299.078125 C 109.941406 299.078125 44.898438 247.730469 24.359375 177.550781 C 21.792969 170.707031 20.9375 163.859375 19.226562 156.15625 C 17.515625 166.425781 16.660156 175.839844 16.660156 186.109375 C 16.660156 204.082031 19.226562 221.199219 24.359375 237.460938 C 44.898438 307.636719 109.941406 358.988281 187.824219 358.988281 C 265.703125 358.988281 330.746094 307.636719 351.285156 237.460938 C 356.417969 221.199219 358.988281 204.082031 358.988281 186.109375 C 358.988281 175.839844 358.128906 165.570312 356.417969 156.15625 C 354.707031 163.003906 352.996094 170.707031 351.285156 177.550781 Z M 351.285156 177.550781 "/>
</g>
<path style=" stroke:none;fill-rule:nonzero;fill:rgb(90.979004%,91.758728%,96.469116%);fill-opacity:1;" d="M 103.097656 313.628906 C 114.222656 320.476562 127.914062 324.753906 127.914062 324.753906 C 142.464844 329.03125 167.28125 333.3125 186.109375 332.457031 C 213.496094 333.3125 229.757812 330.746094 246.875 324.753906 C 270.835938 316.195312 287.097656 302.503906 287.097656 302.503906 C 287.097656 302.503906 290.519531 299.933594 293.945312 295.65625 C 298.222656 290.519531 302.503906 281.960938 302.503906 281.960938 C 302.503906 281.960938 326.464844 239.171875 331.601562 192.957031 C 338.445312 144.175781 323.042969 108.230469 323.042969 108.230469 C 323.042969 108.230469 321.332031 103.097656 318.761719 97.960938 C 315.339844 92.828125 311.0625 86.835938 311.0625 86.835938 C 276.828125 54.3125 234.894531 42.332031 186.109375 42.332031 C 142.464844 42.332031 103.097656 56.027344 72.285156 79.132812 C 72.285156 79.132812 60.304688 88.546875 53.457031 103.097656 C 46.613281 116.789062 44.042969 134.761719 44.042969 134.761719 C 44.042969 134.761719 38.910156 171.5625 47.46875 213.496094 C 54.3125 251.152344 71.429688 281.105469 71.429688 281.105469 C 71.429688 281.105469 76.566406 291.375 82.554688 298.222656 C 82.554688 298.222656 90.257812 307.636719 103.097656 313.628906 Z M 103.097656 313.628906 "/>
<path style=" stroke:none;fill-rule:nonzero;fill:rgb(47.44873%,52.549744%,79.60968%);fill-opacity:1;" d="M 323.042969 108.230469 C 323.042969 108.230469 321.332031 103.097656 318.761719 97.960938 C 315.339844 92.828125 311.0625 86.835938 311.0625 86.835938 C 276.828125 54.3125 234.894531 42.332031 186.109375 42.332031 C 142.464844 42.332031 103.097656 56.027344 72.285156 79.132812 C 72.285156 79.132812 60.304688 88.546875 53.457031 103.097656 C 46.613281 116.789062 44.042969 134.761719 44.042969 134.761719 C 44.042969 134.761719 38.910156 171.5625 47.46875 213.496094 C 49.179688 223.765625 51.746094 233.179688 54.3125 241.738281 C 48.324219 202.371094 52.601562 168.996094 52.601562 168.996094 C 52.601562 168.996094 55.171875 151.023438 62.015625 137.328125 C 68.863281 122.78125 79.988281 113.367188 79.988281 113.367188 C 109.085938 90.257812 146.742188 76.566406 186.964844 76.566406 C 232.324219 76.566406 271.691406 88.546875 304.214844 121.925781 C 304.214844 121.925781 308.492188 127.058594 311.0625 133.050781 C 313.628906 138.183594 315.339844 143.320312 315.339844 143.320312 C 315.339844 143.320312 329.890625 179.265625 323.898438 228.046875 C 323.898438 230.613281 323.042969 233.179688 323.042969 236.605469 C 327.320312 223.765625 330.746094 209.21875 332.457031 193.8125 C 338.445312 145.03125 323.042969 108.230469 323.042969 108.230469 Z M 323.042969 108.230469 "/>
<path style=" stroke:none;fill-rule:nonzero;fill:rgb(83.529663%,0%,0%);fill-opacity:1;" d="M 177.550781 307.636719 C 177.550781 307.636719 160.4375 306.78125 145.03125 303.359375 C 132.195312 300.789062 120.210938 294.800781 120.210938 294.800781 C 120.210938 294.800781 113.367188 292.234375 109.941406 287.953125 C 105.664062 283.675781 103.953125 278.539062 103.953125 278.539062 C 103.953125 278.539062 97.105469 258.855469 91.113281 239.171875 C 85.980469 220.34375 82.554688 199.804688 82.554688 199.804688 C 82.554688 199.804688 78.277344 178.410156 77.421875 156.15625 C 76.566406 137.328125 78.277344 115.933594 78.277344 115.933594 C 78.277344 115.933594 79.132812 103.097656 84.269531 94.539062 C 88.546875 86.835938 97.105469 83.414062 97.960938 83.414062 C 97.960938 83.414062 108.230469 78.277344 127.058594 74 C 142.464844 70.574219 163.859375 68.007812 180.976562 68.007812 C 201.515625 68.007812 222.910156 68.863281 239.171875 71.429688 C 258.855469 74.855469 270.835938 79.988281 270.835938 79.988281 C 270.835938 79.988281 283.675781 83.414062 289.664062 91.96875 C 296.511719 100.527344 297.367188 114.222656 297.367188 114.222656 C 297.367188 114.222656 299.078125 126.203125 299.078125 141.609375 C 299.078125 144.175781 299.078125 146.742188 299.078125 150.167969 C 298.222656 169.851562 294.800781 192.101562 294.800781 192.101562 C 294.800781 192.101562 290.519531 217.777344 284.53125 239.171875 C 280.25 255.433594 275.117188 269.125 275.117188 269.125 C 275.117188 269.125 273.40625 275.972656 270.835938 281.105469 C 268.269531 285.386719 264.847656 287.953125 264.847656 287.953125 C 264.847656 287.953125 262.277344 289.664062 258.855469 292.234375 C 254.578125 294.800781 248.585938 297.367188 248.585938 297.367188 C 248.585938 297.367188 234.894531 302.503906 218.632812 305.070312 C 199.804688 307.636719 177.550781 307.636719 177.550781 307.636719 Z M 177.550781 307.636719 "/>
<path style=" stroke:none;fill-rule:nonzero;fill:rgb(100%,100%,100%);fill-opacity:1;" d="M 153.589844 119.355469 L 170.707031 119.355469 L 170.707031 247.730469 L 153.589844 247.730469 Z M 247.730469 119.355469 L 264.847656 119.355469 L 264.847656 247.730469 L 247.730469 247.730469 Z M 179.265625 119.355469 L 196.378906 119.355469 L 196.378906 247.730469 L 179.265625 247.730469 Z M 179.265625 119.355469 "/>
<path style=" stroke:none;fill-rule:nonzero;fill:rgb(100%,100%,100%);fill-opacity:1;" d="M 187.824219 179.265625 L 222.054688 179.265625 L 222.054688 196.378906 L 187.824219 196.378906 Z M 187.824219 179.265625 "/>
<path style=" stroke:none;fill-rule:nonzero;fill:rgb(100%,100%,100%);fill-opacity:1;" d="M 230.613281 247.730469 L 213.496094 247.730469 L 213.496094 196.378906 C 213.496094 165.570312 204.082031 145.03125 199.804688 136.472656 L 187.824219 136.472656 L 187.824219 119.355469 L 209.21875 119.355469 L 211.785156 122.78125 C 212.640625 123.636719 230.613281 151.023438 230.613281 196.378906 Z M 230.613281 119.355469 L 281.960938 119.355469 L 281.960938 136.472656 L 230.613281 136.472656 Z M 127.914062 247.730469 L 110.796875 247.730469 L 110.796875 119.355469 L 145.03125 119.355469 L 145.03125 136.472656 L 127.914062 136.472656 Z M 127.914062 247.730469 "/>
<path style=" stroke:none;fill-rule:nonzero;fill:rgb(100%,100%,100%);fill-opacity:1;" d="M 119.355469 179.265625 L 145.03125 179.265625 L 145.03125 196.378906 L 119.355469 196.378906 Z M 119.355469 179.265625 "/>
</g>
</svg>
