<?xml version="1.0" encoding="UTF-8"?>
<svg xmlns="http://www.w3.org/2000/svg" xmlns:xlink="http://www.w3.org/1999/xlink" width="375pt" height="374.999991pt" viewBox="0 0 375 374.999991" version="1.2">
<defs>
<clipPath id="clip1">
  <path d="M 0 109.453125 L 375 109.453125 L 375 265.359375 L 0 265.359375 Z M 0 109.453125 "/>
</clipPath>
</defs>
<g id="surface1">
<g clip-path="url(#clip1)" clip-rule="nonzero">
<path style=" stroke:none;fill-rule:nonzero;fill:rgb(18.818665%,24.708557%,62.348938%);fill-opacity:1;" d="M 373.664062 181.980469 C 373.734375 182.324219 373.789062 182.660156 373.84375 183 C 373.796875 182.667969 373.726562 182.324219 373.664062 181.980469 M 187.5 109.453125 C 83.527344 109.453125 0.1875 148.375 0.1875 187.398438 C 0.1875 226.1875 84.210938 265.359375 187.5 265.359375 C 290.789062 265.359375 374.8125 226.085938 374.8125 187.398438 C 374.8125 148.71875 290.789062 109.453125 187.5 109.453125 "/>
</g>
<path style=" stroke:none;fill-rule:nonzero;fill:rgb(100%,100%,100%);fill-opacity:1;" d="M 187.5 125.042969 C 292.207031 125.042969 354.644531 164.144531 358.96875 185.230469 L 358.984375 185.339844 L 359.0625 185.683594 C 359.15625 186.261719 359.203125 186.835938 359.203125 187.40625 C 359.203125 209.398438 294.011719 249.769531 187.5 249.769531 C 80.988281 249.769531 15.796875 209.390625 15.796875 187.40625 C 15.796875 166.234375 76.398438 125.042969 187.5 125.042969 M 187.5 117.25 C 80.125 117.25 7.992188 157.285156 7.992188 187.40625 C 7.992188 216.894531 81.707031 257.5625 187.5 257.5625 C 293.292969 257.5625 367.007812 216.894531 367.007812 187.40625 C 367.007812 186.316406 366.90625 185.222656 366.710938 184.125 L 366.132812 184.210938 L 366.695312 184.070312 C 366.6875 184.039062 366.6875 184 366.679688 183.96875 L 366.109375 184.046875 L 366.664062 183.914062 C 361.152344 155.367188 289.125 117.25 187.5 117.25 Z M 187.5 117.25 "/>
<path style=" stroke:none;fill-rule:nonzero;fill:rgb(100%,100%,100%);fill-opacity:1;" d="M 287.515625 166.546875 C 286.816406 166.546875 286.457031 166.632812 286.128906 167.277344 C 285.042969 169.359375 271.8125 189.160156 269.355469 193.003906 C 268.941406 193.589844 268.433594 193.511719 268.371094 192.839844 C 268.121094 190.554688 266.148438 187.9375 263.035156 186.671875 C 260.667969 185.714844 258.34375 185.535156 255.9375 185.855469 C 251.59375 186.441406 247.714844 188.730469 244.300781 191.320312 C 239.160156 195.21875 234.734375 200.277344 229.011719 204.003906 C 225.890625 206.035156 221.613281 207.8125 218.757812 205.164062 C 216.167969 202.761719 216.457031 197.4375 220.421875 193.324219 C 220.839844 192.886719 221.339844 193.246094 221.261719 193.632812 C 220.886719 195.496094 221.347656 197.351562 222.761719 198.65625 C 224.496094 200.199219 226.96875 200.378906 229.082031 199.347656 C 231.582031 198.117188 233.054688 195.722656 233.476562 193.011719 C 234.140625 188.808594 230.902344 185.097656 226.84375 184.800781 C 223.550781 184.570312 220.390625 185.714844 217.3125 188.257812 C 215.777344 189.535156 214.894531 190.476562 213.558594 192.371094 C 213.230469 192.832031 212.734375 192.878906 212.75 192.191406 C 212.902344 186.804688 210.671875 183.78125 206.214844 183.679688 C 202.757812 183.601562 199.058594 185.480469 196.179688 187.765625 C 193.027344 190.296875 190.261719 193.648438 187.304688 196.808594 C 186.9375 197.195312 186.609375 197.179688 186.507812 196.433594 C 186.421875 192.863281 185.527344 189.410156 183.871094 186.953125 C 183.285156 186.097656 182.058594 185.675781 181.023438 186.253906 C 180.546875 186.511719 178.882812 187.273438 177.675781 188.25 C 177.082031 188.738281 176.839844 189.457031 177.105469 190.375 C 178.695312 195.699219 178.351562 201.757812 176.183594 206.871094 C 174.191406 211.554688 170.328125 215.789062 165.796875 217.214844 C 162.804688 218.167969 159.691406 217.699219 157.773438 215.054688 C 155.132812 211.398438 156.195312 205.046875 160.136719 199.769531 C 163.617188 195.125 168.636719 192.175781 173.65625 190.265625 C 174.246094 190.042969 174.363281 189.660156 174.199219 189.160156 C 173.925781 188.339844 173.492188 187.21875 173.320312 186.703125 C 172.859375 185.480469 171.570312 185.285156 169.992188 185.457031 C 166.347656 185.878906 163.0625 187.125 159.816406 188.863281 C 151.316406 193.410156 147.054688 202.210938 145.191406 206.917969 C 144.292969 209.1875 143.519531 210.589844 142.53125 211.84375 C 141.195312 213.527344 139.507812 215.054688 136.425781 217.761719 C 136.152344 218.003906 135.941406 218.515625 136.175781 219 C 136.496094 219.648438 138.097656 221.910156 138.542969 222.101562 C 139.039062 222.34375 139.625 222.007812 139.851562 221.839844 C 142.007812 220.378906 144.582031 218.074219 145.847656 216.507812 C 146.285156 215.96875 146.734375 216.195312 146.96875 217.011719 C 148.148438 221.199219 151.222656 224.628906 155.484375 226.054688 C 163.28125 228.683594 171.367188 224.878906 177.472656 218.261719 C 181.351562 214.058594 182.746094 211.347656 184.238281 209.515625 C 186.75 206.394531 191.722656 199.417969 197.644531 194.945312 C 199.816406 193.285156 202.390625 192.027344 203.671875 192.863281 C 204.710938 193.535156 205.042969 195.101562 203.382812 198.117188 C 197.347656 209.132812 188.46875 222.054688 186.835938 225.199219 C 186.539062 225.734375 186.789062 226.171875 187.367188 226.171875 C 190.527344 226.15625 193.65625 226.164062 196.523438 226.164062 C 197 226.140625 197.21875 225.921875 197.449219 225.578125 C 202.078125 218.347656 206.441406 211.445312 211.109375 204.320312 C 211.375 203.910156 211.609375 204.230469 211.625 204.414062 C 211.71875 206.074219 212.132812 208.335938 213.105469 209.816406 C 214.871094 212.5625 217.375 213.738281 220.15625 213.761719 C 222.355469 213.785156 223.480469 213.449219 225.851562 212.570312 C 227.796875 211.84375 229.355469 210.910156 230.542969 210.050781 C 231.238281 209.570312 231.363281 210.378906 231.347656 210.503906 C 230.277344 216.25 231.605469 223.0625 237.316406 225.882812 C 244.160156 229.25 251.6875 224.511719 256.015625 220.238281 C 256.4375 219.828125 256.890625 219.875 256.9375 220.753906 C 257.023438 222.382812 257.773438 224.324219 259.125 225.6875 C 262.746094 229.320312 270.074219 227.878906 277.410156 222.203125 C 282.125 218.570312 287.054688 213.433594 291.511719 207.992188 C 291.683594 207.785156 291.800781 207.449219 291.464844 207.097656 C 290.789062 206.394531 289.804688 205.578125 289.132812 204.953125 C 288.828125 204.695312 288.375 204.765625 288.117188 204.96875 C 283.550781 209.304688 279.4375 214.253906 273.492188 218.347656 C 271.492188 219.742188 268.292969 220.871094 266.859375 218.929688 C 266.296875 218.175781 266.367188 217.128906 266.921875 215.765625 C 268.652344 211.453125 296.085938 169.734375 297.507812 167.269531 C 297.757812 166.84375 297.507812 166.53125 296.960938 166.53125 C 294.136719 166.53125 290.4375 166.539062 287.492188 166.539062 M 244.023438 217.808594 C 242.609375 217.074219 242 215.101562 242.03125 213.519531 C 242.101562 209.023438 244.089844 204.414062 247.785156 199.878906 C 252.285156 194.351562 257.257812 191.476562 260.527344 193.050781 C 263.90625 194.65625 262.824219 198.570312 261.316406 201.632812 C 261.207031 201.875 261.199219 202.070312 261.253906 202.273438 C 261.308594 202.589844 261.722656 202.894531 262.128906 203.042969 C 262.277344 203.097656 262.355469 203.199219 262.191406 203.535156 C 261.027344 206.03125 259.949219 207.480469 258.492188 209.636719 C 257.148438 211.640625 255.636719 213.207031 253.792969 214.714844 C 251.65625 216.476562 248.882812 218.363281 246.269531 218.363281 C 245.511719 218.363281 244.746094 218.199219 244.023438 217.808594 "/>
<path style=" stroke:none;fill-rule:nonzero;fill:rgb(100%,100%,100%);fill-opacity:1;" d="M 141.703125 141.242188 C 139.078125 141.242188 136.457031 141.34375 133.804688 141.554688 C 116.945312 142.972656 100.90625 152.460938 100.867188 166.84375 C 100.867188 174.144531 106.050781 180.054688 114.097656 179.796875 C 123.554688 179.476562 131.320312 171.910156 135.386719 162.367188 C 136.925781 158.75 134.070312 157.246094 132.710938 159.328125 C 130.285156 163.085938 126.867188 165.992188 123.164062 167.800781 C 118.71875 169.984375 113.957031 169.390625 112.519531 165.773438 C 110.492188 160.683594 114.707031 153.066406 124.328125 149.472656 C 138.222656 144.335938 152.761719 147.734375 166.746094 150.363281 C 166.949219 150.363281 167.691406 150.777344 167.027344 151.117188 C 164.53125 152.484375 162.066406 153.589844 158.226562 156.894531 C 155.460938 159.25 151.863281 162.382812 149.070312 165.804688 C 146.308594 169.171875 144.339844 172.183594 141.75 175.503906 C 141.382812 175.984375 140.9375 175.960938 140.945312 175.960938 C 134.617188 177.03125 128.417969 177.738281 122.746094 181.683594 C 121.574219 182.496094 121.058594 183.929688 121.777344 185.027344 C 122.417969 186.003906 123.875 186.105469 124.882812 185.371094 C 128.410156 182.738281 132.039062 181.496094 136.199219 181.386719 C 136.378906 181.394531 136.464844 181.433594 136.519531 181.535156 C 136.566406 181.597656 136.519531 181.730469 136.457031 181.832031 C 130.222656 190.46875 128.660156 192.417969 123.976562 197.773438 C 121.574219 200.527344 119.214844 202.847656 116.578125 205.265625 C 105.933594 215.140625 94.484375 214.976562 90.378906 208.78125 C 87.929688 205.0625 88.246094 201.164062 89.863281 197.921875 C 91.839844 193.953125 95.839844 191.054688 99.167969 189.355469 C 100.398438 188.722656 100.757812 187.148438 99.519531 185.714844 C 98.738281 184.769531 96.824219 184.609375 95.40625 184.863281 C 91.042969 185.675781 85.890625 188.964844 82.847656 192.925781 C 79.421875 197.375 77.703125 202.769531 78.28125 208.828125 C 79.3125 219.765625 88.324219 226.078125 98.550781 226.007812 C 106.691406 225.9375 114.363281 223.484375 123.585938 214.128906 C 132.195312 205.398438 140.023438 192.371094 147.359375 180.289062 C 147.585938 179.898438 147.75 179.6875 148.867188 179.554688 C 153.464844 178.988281 160.261719 178.324219 164.617188 178.074219 C 165.59375 178.019531 165.789062 178.035156 166.167969 178.519531 C 167.308594 179.945312 169.011719 181.164062 170.375 181.894531 C 171.039062 182.261719 171.359375 182.433594 171.882812 182.449219 C 172.53125 182.464844 173.03125 182.113281 173.351562 181.746094 C 173.8125 181.238281 173.941406 180.585938 173.695312 180.15625 C 173.4375 179.710938 170.390625 178.027344 170.296875 177.351562 C 170.226562 176.921875 170.695312 176.820312 170.695312 176.820312 C 172.929688 176.117188 175.253906 174.683594 176.660156 171.988281 C 178.039062 169.335938 178.265625 165.789062 175.730469 163.824219 C 173.515625 162.101562 170.15625 162.375 167.480469 164.769531 C 164.867188 167.097656 163.992188 170.492188 164.351562 173.460938 C 164.414062 173.976562 164.398438 174.152344 163.679688 174.207031 C 159.652344 174.527344 155.773438 174.636719 151.457031 174.863281 C 151.167969 174.886719 151.082031 174.691406 151.246094 174.488281 C 156.210938 165.867188 163.632812 159.734375 171.828125 153.691406 C 172.367188 153.285156 172.203125 152.515625 172.179688 151.867188 C 186.992188 155.078125 201.296875 161.066406 216.675781 160.933594 C 223.027344 160.878906 229.105469 159.921875 234.914062 156.730469 C 240.027344 153.941406 242.109375 151.367188 242.257812 148.695312 C 242.382812 146.839844 241.09375 145.679688 239.261719 146.066406 C 223.738281 149.628906 208.933594 149.589844 193.476562 147.726562 C 175.957031 145.609375 159.144531 141.242188 141.710938 141.242188 C 141.710938 141.242188 141.710938 141.242188 141.664062 141.242188 M 168.449219 172.316406 C 168.222656 170.675781 168.761719 168.480469 170.507812 166.929688 C 171.382812 166.148438 172.578125 165.96875 173.3125 166.59375 C 174.128906 167.292969 173.742188 169.03125 172.914062 170.242188 C 172.015625 171.574219 170.476562 172.71875 169.082031 173 C 169.035156 173.007812 169.003906 173.015625 168.964844 173.015625 C 168.746094 173.007812 168.550781 172.84375 168.449219 172.316406 "/>
</g>
</svg>
