<?xml version="1.0" encoding="UTF-8"?>
<svg xmlns="http://www.w3.org/2000/svg" xmlns:xlink="http://www.w3.org/1999/xlink" width="375pt" height="374.999991pt" viewBox="0 0 375 374.999991" version="1.2">
<g id="surface1">
<path style=" stroke:none;fill-rule:nonzero;fill:rgb(0.779724%,46.669006%,74.119568%);fill-opacity:1;" d="M 322.722656 116.46875 C 313.515625 111.25 303.835938 107.027344 294.046875 103.175781 C 250.21875 87.148438 198.695312 81.5625 149.738281 87.898438 C 104.625 94.492188 60.796875 105.917969 26.410156 139.210938 C 9.972656 155.484375 0.183594 179.953125 8.226562 203.433594 C 18.71875 232.007812 46.699219 251.015625 71.648438 262.074219 C 145.429688 293.871094 245.792969 292.757812 317.25 256.355469 C 341.722656 243.183594 369.121094 221.320312 372.496094 190.015625 C 375.40625 156.222656 347.433594 130.886719 322.722656 116.46875 Z M 157.476562 129.328125 C 163.644531 116.398438 174.589844 101.210938 189.71875 100.96875 C 209.710938 100.8125 228.988281 102.753906 247.652344 106.292969 C 248.355469 106.429688 249.0625 106.554688 249.757812 106.699219 C 251.738281 107.089844 253.707031 107.527344 255.671875 107.949219 C 266.003906 110.265625 276.023438 113.136719 285.636719 116.511719 C 286.222656 116.898438 286.761719 117.347656 287.144531 118.03125 C 288.078125 120.164062 286.210938 121.546875 285.160156 122.929688 C 261.070312 143.253906 233.488281 154.550781 205.316406 164.460938 C 190.996094 168.230469 176.5625 175.003906 160.621094 171.238281 C 156.894531 170.234375 153.519531 167.601562 151.429688 163.703125 C 147.46875 151.910156 152.824219 139.617188 157.476562 129.328125 Z M 60.0625 234.980469 C 58.628906 236.429688 57.214844 236.566406 55.820312 236.105469 C 42.398438 227.28125 28.714844 214.8125 22.699219 198.4375 C 22.027344 196.46875 21.621094 194.496094 21.28125 192.539062 C 21.175781 191.902344 21.0625 191.257812 20.976562 190.613281 C 20.746094 188.6875 20.632812 186.769531 20.695312 184.882812 C 20.695312 184.660156 20.71875 184.4375 20.71875 184.222656 C 21.367188 170.738281 28.804688 158.402344 37.039062 150.25 C 62.914062 125.191406 94.8125 113.894531 127.0625 107.359375 C 128.386719 107.359375 129.742188 107.519531 130.355469 108.753906 L 129.886719 110.636719 C 99.28125 148.140625 79.148438 191.6875 60.0625 234.980469 Z M 216.375 249.414062 C 210.453125 259.316406 201.230469 267.972656 190.109375 269.460938 C 189.671875 269.460938 189.253906 269.5 188.816406 269.5 C 184.675781 269.5 180.566406 269.371094 176.464844 269.214844 C 174.070312 269.117188 171.679688 268.988281 169.292969 268.832031 C 164.425781 268.535156 159.597656 268.128906 154.804688 267.605469 C 150.566406 267.136719 146.34375 266.625 142.15625 265.980469 C 139.339844 265.550781 136.546875 265.074219 133.769531 264.566406 C 130.03125 263.890625 126.34375 263.101562 122.664062 262.296875 C 112.210938 259.964844 102.070312 257.101562 92.363281 253.664062 C 91.890625 253.273438 91.445312 252.835938 91.148438 252.296875 C 90.566406 250.539062 91.386719 248.90625 92.539062 247.777344 C 118.261719 225.3125 148.875 214.898438 179.136719 203.980469 C 190.421875 200.464844 202.414062 196.699219 215.097656 198.460938 C 220.332031 199.214844 225.566406 203.113281 227.433594 208.382812 C 230.21875 223.945312 222.65625 236.867188 216.375 249.414062 Z M 357.3125 186 C 357.253906 188.257812 357.007812 190.550781 356.53125 192.898438 C 356.347656 193.742188 356.097656 194.566406 355.867188 195.394531 C 355.636719 196.238281 355.40625 197.089844 355.140625 197.910156 C 348.230469 218.4375 327.472656 233.429688 310.300781 242.675781 C 293.855469 251.054688 275.226562 257.5625 255.375 262.097656 C 253.777344 262.339844 252.207031 262.6875 250.578125 262.855469 C 249.644531 262.734375 248.136719 262.976562 247.898438 261.472656 L 248.242188 259.71875 C 269.425781 233.988281 285.480469 205.128906 299.570312 175.886719 C 306.085938 162.714844 312.144531 149.164062 317.722656 135.855469 C 318.535156 134.851562 319.355469 134.351562 320.289062 133.976562 C 321.183594 134.0625 321.988281 134.390625 322.804688 134.675781 C 333.261719 141.773438 346.851562 153.160156 353.457031 167.683594 C 353.5625 167.921875 353.671875 168.167969 353.769531 168.40625 C 354.328125 169.679688 354.828125 170.984375 355.261719 172.3125 C 355.851562 174.152344 356.394531 176.003906 356.730469 177.921875 C 356.777344 178.167969 356.777344 178.421875 356.824219 178.65625 C 357.144531 180.707031 357.3125 182.792969 357.3125 184.925781 C 357.335938 185.28125 357.320312 185.640625 357.3125 186 Z M 357.3125 186 "/>
</g>
</svg>
