<?xml version="1.0" encoding="UTF-8"?>
<svg xmlns="http://www.w3.org/2000/svg" xmlns:xlink="http://www.w3.org/1999/xlink" width="375pt" height="374.999991pt" viewBox="0 0 375 374.999991" version="1.2">
<defs>
<clipPath id="clip1">
  <path d="M 1 80 L 373 80 L 373 243.351562 L 1 243.351562 Z M 1 80 "/>
</clipPath>
<clipPath id="clip2">
  <path d="M 264 181 L 366 181 L 366 243.351562 L 264 243.351562 Z M 264 181 "/>
</clipPath>
<clipPath id="clip3">
  <path d="M 318 215 L 366 215 L 366 243.351562 L 318 243.351562 Z M 318 215 "/>
</clipPath>
</defs>
<g id="surface1">
<g clip-path="url(#clip1)" clip-rule="nonzero">
<path style=" stroke:none;fill-rule:nonzero;fill:rgb(47.44873%,52.549744%,79.60968%);fill-opacity:1;" d="M 369.214844 197 C 367.488281 196.527344 363.84375 198.078125 358.0625 201.445312 C 358.0625 201.445312 351.933594 204.640625 341.890625 204.640625 C 334.148438 204.640625 318.046875 193.207031 312.382812 189.609375 C 283.554688 171.320312 272.890625 164.035156 249.261719 151.066406 C 192.335938 119.839844 144.859375 103.691406 108.527344 93.367188 C 85.945312 86.949219 72.492188 81.5 55.554688 80.527344 C 33.746094 79.289062 12.355469 89.015625 10.46875 97.289062 C 10.15625 98.65625 7.984375 101.734375 5.636719 104.148438 C 3.046875 106.816406 1.382812 109.359375 1.382812 110.640625 C 1.382812 114.105469 6.574219 119.855469 10.566406 120.800781 C 12.496094 121.257812 15.171875 121.925781 16.535156 122.28125 C 16.859375 122.367188 17.039062 122.390625 17.277344 122.445312 C 17.015625 123.050781 16.9375 124.183594 16.851562 126.363281 C 16.503906 135.40625 21.890625 137.894531 28.25 131.304688 C 32.335938 127.066406 40.074219 127.066406 47.816406 127.066406 C 63.292969 127.066406 73.554688 129.109375 78.769531 134.824219 L 86.507812 142.703125 L 78.769531 142.703125 C 67.5625 143.574219 57.472656 146.398438 53.085938 151.214844 C 49.742188 154.882812 47.96875 158.855469 47.824219 162.585938 C 47.699219 165.664062 48.6875 168.589844 50.824219 171.054688 C 53.851562 173.785156 55.554688 173.730469 58.796875 173.730469 C 68.484375 173.730469 67.425781 166.230469 71.03125 165.972656 C 75.132812 165.6875 86.507812 173.730469 109.726562 173.730469 C 122.539062 173.730469 132.941406 165.972656 132.941406 165.972656 C 132.941406 165.972656 140.246094 173.730469 179.375 173.730469 C 207.480469 173.730469 203.179688 176.257812 210.328125 189.242188 C 214.363281 195.703125 225.808594 212.511719 256.761719 212.511719 C 279.980469 212.511719 285.644531 215.570312 296.570312 222.195312 C 300.417969 224.527344 303.769531 226.453125 304.007812 226.476562 C 304.246094 226.5 318.488281 238.800781 320.539062 240.085938 C 321.738281 240.839844 324.296875 242.019531 326.226562 242.71875 C 328.152344 243.40625 331.472656 243.609375 333.632812 243.609375 C 334.164062 243.609375 341.90625 243.617188 341.90625 232.976562 L 341.90625 228.105469 C 341.90625 228.105469 354.527344 227.644531 362.488281 219.804688 C 364.546875 218.632812 371.296875 207.160156 372.273438 204.84375 C 373.71875 201.390625 372.339844 197.859375 369.214844 197 Z M 369.214844 197 "/>
<path style=" stroke:none;fill-rule:nonzero;fill:rgb(90.979004%,91.758728%,96.469116%);fill-opacity:1;" d="M 369.214844 197 C 367.488281 196.527344 363.84375 198.078125 358.0625 201.445312 C 358.0625 201.445312 351.933594 204.640625 341.890625 204.640625 C 334.148438 204.640625 318.046875 193.207031 312.382812 189.609375 C 283.554688 171.320312 272.890625 164.035156 249.261719 151.066406 C 192.335938 119.839844 144.859375 103.691406 108.527344 93.367188 C 85.945312 86.949219 72.492188 81.5 55.554688 80.527344 C 33.746094 79.289062 12.355469 89.015625 10.46875 97.289062 C 10.15625 98.65625 7.984375 101.734375 5.636719 104.148438 C 3.046875 106.816406 1.382812 109.359375 1.382812 110.640625 C 1.382812 114.105469 6.574219 119.855469 10.566406 120.800781 C 12.496094 121.257812 15.171875 121.925781 16.535156 122.28125 C 16.859375 122.367188 17.039062 122.390625 17.277344 122.445312 C 17.015625 123.050781 16.9375 124.183594 16.851562 126.363281 C 16.503906 135.40625 21.890625 137.894531 28.25 131.304688 C 32.335938 127.066406 40.074219 127.066406 47.816406 127.066406 C 63.292969 127.066406 73.554688 129.109375 78.769531 134.824219 L 86.507812 142.703125 L 78.769531 142.703125 C 67.5625 143.574219 57.472656 146.398438 53.085938 151.214844 C 49.742188 154.882812 47.96875 158.855469 47.824219 162.585938 C 47.699219 165.664062 48.6875 168.589844 50.824219 171.054688 C 53.851562 173.785156 55.554688 173.730469 58.796875 173.730469 C 68.484375 173.730469 67.425781 166.230469 71.03125 165.972656 C 75.132812 165.6875 86.507812 173.730469 109.726562 173.730469 C 122.539062 173.730469 132.941406 165.972656 132.941406 165.972656 C 132.941406 165.972656 140.246094 173.730469 179.375 173.730469 C 207.480469 173.730469 203.179688 176.257812 210.328125 189.242188 C 214.363281 195.703125 225.808594 212.511719 256.761719 212.511719 C 279.980469 212.511719 285.644531 215.570312 296.570312 222.195312 C 300.417969 224.527344 303.769531 226.453125 304.007812 226.476562 C 304.246094 226.5 318.488281 238.800781 320.539062 240.085938 C 321.738281 240.839844 324.296875 242.019531 326.226562 242.71875 C 328.152344 243.40625 331.472656 243.609375 333.632812 243.609375 C 334.164062 243.609375 341.90625 243.617188 341.90625 232.976562 L 341.90625 228.105469 C 341.90625 228.105469 354.527344 227.644531 362.488281 219.804688 C 364.546875 218.632812 371.296875 207.160156 372.273438 204.84375 C 373.71875 201.390625 372.339844 197.859375 369.214844 197 Z M 369.214844 197 "/>
</g>
<path style=" stroke:none;fill-rule:nonzero;fill:rgb(47.44873%,52.549744%,79.60968%);fill-opacity:1;" d="M 314.269531 215.21875 C 311.683594 212.445312 307.125 202.871094 305.285156 199.824219 C 300.316406 191.601562 296.539062 189.375 283.792969 189.375 C 272.230469 189.375 269.738281 183.621094 265.675781 181.9375 C 264.269531 181.355469 264.191406 181.472656 265.152344 182.773438 C 267.410156 185.824219 273.632812 197 282.671875 197 C 295.457031 197 296.585938 198.410156 298.832031 202.382812 C 301.316406 206.78125 306.683594 213.550781 312.574219 217.4375 C 315.429688 219.324219 318.496094 220.269531 318.664062 220.269531 C 318.835938 220.269531 316.855469 217.996094 314.269531 215.21875 Z M 314.269531 215.21875 "/>
<g clip-path="url(#clip2)" clip-rule="nonzero">
<path style=" stroke:none;fill-rule:nonzero;fill:rgb(47.44873%,52.549744%,79.60968%);fill-opacity:1;" d="M 314.269531 215.21875 C 311.683594 212.445312 307.125 202.871094 305.285156 199.824219 C 300.316406 191.601562 296.539062 189.375 283.792969 189.375 C 272.230469 189.375 269.738281 183.621094 265.675781 181.9375 C 264.269531 181.355469 264.191406 181.472656 265.152344 182.773438 C 267.410156 185.824219 273.632812 197 282.671875 197 C 295.457031 197 296.585938 198.410156 298.832031 202.382812 C 301.316406 206.78125 306.683594 213.550781 312.574219 217.4375 C 315.429688 219.324219 318.496094 220.269531 318.664062 220.269531 C 318.835938 220.269531 316.855469 217.996094 314.269531 215.21875 Z M 341.898438 220.339844 C 334.15625 220.339844 326.417969 220.339844 326.417969 220.339844 C 326.417969 220.339844 334.15625 225.257812 334.15625 232.167969 C 334.15625 235.214844 333.058594 235.851562 326.417969 235.851562 C 316.011719 235.851562 318.480469 238.800781 320.539062 240.085938 C 321.738281 240.839844 324.296875 242.019531 326.226562 242.71875 C 328.152344 243.40625 331.472656 243.609375 333.632812 243.609375 C 334.164062 243.609375 341.90625 243.617188 341.90625 232.976562 L 341.90625 228.105469 C 341.90625 228.105469 357.707031 227.609375 365.113281 216.78125 C 365.769531 213.179688 361.40625 220.339844 341.898438 220.339844 Z M 341.898438 220.339844 "/>
</g>
<g clip-path="url(#clip3)" clip-rule="nonzero">
<path style=" stroke:none;fill-rule:nonzero;fill:rgb(47.44873%,52.549744%,79.60968%);fill-opacity:1;" d="M 341.898438 220.339844 C 334.15625 220.339844 326.417969 220.339844 326.417969 220.339844 C 326.417969 220.339844 334.15625 225.257812 334.15625 232.167969 C 334.15625 235.214844 333.058594 235.851562 326.417969 235.851562 C 316.011719 235.851562 318.480469 238.800781 320.539062 240.085938 C 321.738281 240.839844 324.296875 242.019531 326.226562 242.71875 C 328.152344 243.40625 331.472656 243.609375 333.632812 243.609375 C 334.164062 243.609375 341.90625 243.617188 341.90625 232.976562 L 341.90625 228.105469 C 341.90625 228.105469 357.707031 227.609375 365.113281 216.78125 C 365.769531 213.179688 361.40625 220.339844 341.898438 220.339844 Z M 341.898438 220.339844 "/>
</g>
<path style=" stroke:none;fill-rule:nonzero;fill:rgb(47.44873%,52.549744%,79.60968%);fill-opacity:1;" d="M 369.214844 197 C 367.488281 196.527344 363.84375 198.078125 358.0625 201.445312 C 358.0625 201.445312 351.933594 204.640625 341.890625 204.640625 C 334.148438 204.640625 318.046875 193.207031 312.382812 189.609375 C 283.554688 171.320312 272.890625 164.035156 249.261719 151.066406 C 192.335938 119.839844 144.859375 103.691406 108.527344 93.367188 C 85.945312 86.949219 72.492188 81.5 55.554688 80.527344 C 33.746094 79.289062 12.355469 89.015625 10.46875 97.289062 C 10.15625 98.65625 7.984375 101.734375 5.636719 104.148438 C 3.046875 106.816406 1.382812 109.359375 1.382812 110.640625 C 1.382812 114.105469 6.574219 119.855469 10.566406 120.800781 C 12.496094 121.257812 15.171875 121.925781 16.535156 122.28125 C 18.957031 122.917969 18.988281 122.863281 18.421875 119.558594 C 18.035156 117.269531 18.300781 115.222656 19.257812 113.191406 C 21.230469 108.988281 24.460938 109.226562 26.617188 113.734375 C 28.097656 116.820312 25.582031 117.125 23.5 120.03125 C 22.050781 122.058594 21.148438 122.5 19.34375 122.066406 C 17.105469 121.523438 17.03125 121.652344 16.851562 126.371094 C 16.503906 135.40625 21.890625 137.894531 28.25 131.304688 C 32.335938 127.066406 40.074219 127.066406 47.816406 127.066406 C 63.292969 127.066406 73.554688 129.109375 78.769531 134.824219 C 78.769531 134.824219 74.117188 127.207031 69.652344 123.734375 C 67.519531 122.066406 63.292969 119.558594 55.554688 119.433594 C 47.816406 119.3125 40.878906 119.3125 35.980469 119.3125 C 32.617188 119.3125 34.84375 111.183594 30.015625 106.605469 C 28.058594 104.753906 27.332031 103.796875 24.597656 103.796875 C 21.867188 103.796875 21.039062 104.628906 17.410156 108.453125 C 10.367188 115.859375 3.78125 107.925781 16.773438 103.984375 C 22.65625 102.191406 26.617188 98.546875 24.597656 97.074219 C 22.066406 95.226562 16.960938 93.992188 23.152344 91.792969 C 27.753906 90.15625 31.84375 88.285156 43.257812 88.285156 C 52.652344 88.285156 60.539062 89.363281 52.078125 94.148438 C 48.261719 96.304688 47.816406 98.328125 47.816406 98.710938 C 47.816406 105.683594 55.554688 103.921875 71.03125 111.679688 C 64.5 102.589844 57 98.835938 57 98.835938 L 61.859375 93.824219 C 66.28125 90.164062 65.984375 89.734375 74.730469 91.148438 C 90.433594 93.683594 104.671875 99.929688 113.074219 108.046875 C 115.28125 110.183594 117.269531 111.773438 117.464844 111.5625 L 117.464844 103.804688 C 118.019531 103.191406 128.398438 106.910156 139.574219 110.695312 C 156.226562 116.332031 203.347656 134.34375 202.683594 135.074219 C 202.519531 135.25 198 136.226562 194.488281 136.777344 C 185.164062 138.230469 183.925781 142.589844 194.851562 142.589844 C 201.652344 142.589844 204.585938 142.519531 210.601562 145.597656 C 219.335938 150.074219 220.4375 151.074219 228.902344 158.921875 C 235.433594 164.972656 247.816406 173.613281 249.007812 173.613281 C 249.300781 173.613281 244.496094 167.773438 238.328125 160.628906 C 232.160156 153.488281 228.207031 149.128906 228.035156 148.578125 C 227.339844 146.289062 271.621094 171.652344 298.3125 188.832031 C 313.859375 198.839844 332.152344 209.628906 338.105469 211.605469 C 339.777344 212.15625 341.8125 212.421875 344.03125 212.40625 C 348.785156 212.375 355.007812 209.519531 359.757812 207.230469 C 366.675781 203.894531 367.410156 203.824219 368.632812 207.371094 C 369.363281 209.480469 371.15625 207.457031 372.265625 204.84375 C 373.71875 201.390625 372.339844 197.859375 369.214844 197 Z M 369.214844 197 "/>
<path style=" stroke:none;fill-rule:nonzero;fill:rgb(47.44873%,52.549744%,79.60968%);fill-opacity:1;" d="M 369.214844 197 C 367.488281 196.527344 363.84375 198.078125 358.0625 201.445312 C 358.0625 201.445312 351.933594 204.640625 341.890625 204.640625 C 334.148438 204.640625 318.046875 193.207031 312.382812 189.609375 C 283.554688 171.320312 272.890625 164.035156 249.261719 151.066406 C 192.335938 119.839844 144.859375 103.691406 108.527344 93.367188 C 85.945312 86.949219 72.492188 81.5 55.554688 80.527344 C 33.746094 79.289062 12.355469 89.015625 10.46875 97.289062 C 10.15625 98.65625 7.984375 101.734375 5.636719 104.148438 C 3.046875 106.816406 1.382812 109.359375 1.382812 110.640625 C 1.382812 114.105469 6.574219 119.855469 10.566406 120.800781 C 12.496094 121.257812 15.171875 121.925781 16.535156 122.28125 C 18.957031 122.917969 18.988281 122.863281 18.421875 119.558594 C 18.035156 117.269531 18.300781 115.222656 19.257812 113.191406 C 21.230469 108.988281 24.460938 109.226562 26.617188 113.734375 C 28.097656 116.820312 25.582031 117.125 23.5 120.03125 C 22.050781 122.058594 21.148438 122.5 19.34375 122.066406 C 17.105469 121.523438 17.03125 121.652344 16.851562 126.371094 C 16.503906 135.40625 21.890625 137.894531 28.25 131.304688 C 32.335938 127.066406 40.074219 127.066406 47.816406 127.066406 C 63.292969 127.066406 73.554688 129.109375 78.769531 134.824219 C 78.769531 134.824219 74.117188 127.207031 69.652344 123.734375 C 67.519531 122.066406 63.292969 119.558594 55.554688 119.433594 C 47.816406 119.3125 40.878906 119.3125 35.980469 119.3125 C 32.617188 119.3125 34.84375 111.183594 30.015625 106.605469 C 28.058594 104.753906 27.332031 103.796875 24.597656 103.796875 C 21.867188 103.796875 21.039062 104.628906 17.410156 108.453125 C 10.367188 115.859375 3.78125 107.925781 16.773438 103.984375 C 22.65625 102.191406 26.617188 98.546875 24.597656 97.074219 C 22.066406 95.226562 16.960938 93.992188 23.152344 91.792969 C 27.753906 90.15625 31.84375 88.285156 43.257812 88.285156 C 52.652344 88.285156 60.539062 89.363281 52.078125 94.148438 C 48.261719 96.304688 47.816406 98.328125 47.816406 98.710938 C 47.816406 105.683594 55.554688 103.921875 71.03125 111.679688 C 64.5 102.589844 57 98.835938 57 98.835938 L 61.859375 93.824219 C 66.28125 90.164062 65.984375 89.734375 74.730469 91.148438 C 90.433594 93.683594 104.671875 99.929688 113.074219 108.046875 C 115.28125 110.183594 117.269531 111.773438 117.464844 111.5625 L 117.464844 103.804688 C 118.019531 103.191406 128.398438 106.910156 139.574219 110.695312 C 156.226562 116.332031 203.347656 134.34375 202.683594 135.074219 C 202.519531 135.25 198 136.226562 194.488281 136.777344 C 185.164062 138.230469 183.925781 142.589844 194.851562 142.589844 C 201.652344 142.589844 204.585938 142.519531 210.601562 145.597656 C 219.335938 150.074219 220.4375 151.074219 228.902344 158.921875 C 235.433594 164.972656 247.816406 173.613281 249.007812 173.613281 C 249.300781 173.613281 244.496094 167.773438 238.328125 160.628906 C 232.160156 153.488281 228.207031 149.128906 228.035156 148.578125 C 227.339844 146.289062 271.621094 171.652344 298.3125 188.832031 C 313.859375 198.839844 332.152344 209.628906 338.105469 211.605469 C 339.777344 212.15625 341.8125 212.421875 344.03125 212.40625 C 348.785156 212.375 355.007812 209.519531 359.757812 207.230469 C 366.675781 203.894531 367.410156 203.824219 368.632812 207.371094 C 369.363281 209.480469 371.15625 207.457031 372.265625 204.84375 C 373.71875 201.390625 372.339844 197.859375 369.214844 197 Z M 369.214844 197 "/>
<path style=" stroke:none;fill-rule:nonzero;fill:rgb(47.44873%,52.549744%,79.60968%);fill-opacity:1;" d="M 299.195312 221.175781 C 289.085938 210.890625 279.074219 204.828125 258.695312 204.757812 C 251.722656 204.734375 244.355469 204.300781 242.320312 203.78125 C 230.335938 200.738281 219.824219 193.742188 213.765625 179.992188 C 210.871094 173.429688 209.300781 171.03125 206.582031 169.054688 C 206.582031 169.054688 206.136719 165.964844 179.367188 165.964844 C 160.183594 165.964844 151.609375 166.984375 138.738281 159.984375 C 134.738281 157.816406 133.359375 155.984375 132.941406 150.460938 L 132.941406 139.429688 C 132.941406 139.429688 138.871094 142.671875 144.789062 142.671875 C 152.769531 142.671875 156.273438 138.941406 156.273438 138.941406 C 140.199219 137.253906 125.203125 127.191406 125.203125 127.191406 C 125.203125 127.191406 125.203125 134.949219 125.203125 142.703125 C 125.203125 158.21875 116.558594 165.988281 109.726562 165.972656 C 103.015625 165.957031 98.03125 166.464844 86.507812 162.421875 C 76.804688 159.015625 68.871094 157.085938 65.628906 158.976562 C 63.894531 159.992188 63.066406 160.800781 63.292969 162.320312 C 63.292969 162.335938 63.238281 162.367188 63.238281 162.382812 C 63.074219 164.382812 61.457031 165.972656 59.421875 165.972656 C 57.535156 165.972656 56.035156 164.585938 55.691406 162.785156 C 55.652344 162.664062 55.554688 162.578125 55.554688 162.414062 C 55.554688 162.351562 55.578125 162.289062 55.578125 162.226562 C 55.578125 162.179688 55.554688 162.144531 55.554688 162.097656 C 55.554688 161.824219 55.652344 161.585938 55.707031 161.320312 C 56.480469 155.339844 63.695312 150.460938 83.445312 150.460938 L 101.984375 150.460938 C 101.984375 150.460938 109.726562 150.460938 109.726562 146.464844 C 102.375 143.828125 96.296875 139.144531 94.246094 136.65625 C 91.816406 133.699219 90.0625 128.082031 90.03125 123.160156 C 90.007812 119.03125 89.875 118.746094 88.792969 120.320312 C 86.414062 123.761719 86.507812 134.949219 86.507812 134.949219 L 86.507812 142.703125 L 78.769531 142.703125 C 67.5625 143.574219 57.472656 146.398438 53.085938 151.214844 C 49.742188 154.882812 47.96875 158.855469 47.824219 162.585938 C 47.699219 165.664062 48.6875 168.589844 50.824219 171.054688 C 53.851562 173.785156 55.554688 173.730469 58.796875 173.730469 C 68.484375 173.730469 67.425781 166.230469 71.03125 165.972656 C 75.132812 165.6875 86.507812 173.730469 109.726562 173.730469 C 122.539062 173.730469 132.941406 165.972656 132.941406 165.972656 C 132.941406 165.972656 140.246094 173.730469 179.375 173.730469 C 207.480469 173.730469 203.179688 176.257812 210.328125 189.242188 C 214.363281 195.703125 225.808594 212.511719 256.761719 212.511719 C 279.980469 212.511719 285.644531 215.570312 296.570312 222.195312 C 300.417969 224.527344 303.769531 226.453125 304.007812 226.476562 C 304.246094 226.492188 302.082031 224.109375 299.195312 221.175781 Z M 299.195312 221.175781 "/>
<path style=" stroke:none;fill-rule:nonzero;fill:rgb(47.44873%,52.549744%,79.60968%);fill-opacity:1;" d="M 299.195312 221.175781 C 289.085938 210.890625 279.074219 204.828125 258.695312 204.757812 C 251.722656 204.734375 244.355469 204.300781 242.320312 203.78125 C 230.335938 200.738281 219.824219 193.742188 213.765625 179.992188 C 210.871094 173.429688 209.300781 171.03125 206.582031 169.054688 C 206.582031 169.054688 206.136719 165.964844 179.367188 165.964844 C 160.183594 165.964844 151.609375 166.984375 138.738281 159.984375 C 134.738281 157.816406 133.359375 155.984375 132.941406 150.460938 L 132.941406 139.429688 C 132.941406 139.429688 138.871094 142.671875 144.789062 142.671875 C 152.769531 142.671875 156.273438 138.941406 156.273438 138.941406 C 140.199219 137.253906 125.203125 127.191406 125.203125 127.191406 C 125.203125 127.191406 125.203125 134.949219 125.203125 142.703125 C 125.203125 158.21875 116.558594 165.988281 109.726562 165.972656 C 103.015625 165.957031 98.03125 166.464844 86.507812 162.421875 C 76.804688 159.015625 68.871094 157.085938 65.628906 158.976562 C 63.894531 159.992188 63.066406 160.800781 63.292969 162.320312 C 63.292969 162.335938 63.238281 162.367188 63.238281 162.382812 C 63.074219 164.382812 61.457031 165.972656 59.421875 165.972656 C 57.535156 165.972656 56.035156 164.585938 55.691406 162.785156 C 55.652344 162.664062 55.554688 162.578125 55.554688 162.414062 C 55.554688 162.351562 55.578125 162.289062 55.578125 162.226562 C 55.578125 162.179688 55.554688 162.144531 55.554688 162.097656 C 55.554688 161.824219 55.652344 161.585938 55.707031 161.320312 C 56.480469 155.339844 63.695312 150.460938 83.445312 150.460938 L 101.984375 150.460938 C 101.984375 150.460938 109.726562 150.460938 109.726562 146.464844 C 102.375 143.828125 96.296875 139.144531 94.246094 136.65625 C 91.816406 133.699219 90.0625 128.082031 90.03125 123.160156 C 90.007812 119.03125 89.875 118.746094 88.792969 120.320312 C 86.414062 123.761719 86.507812 134.949219 86.507812 134.949219 L 86.507812 142.703125 L 78.769531 142.703125 C 67.5625 143.574219 57.472656 146.398438 53.085938 151.214844 C 49.742188 154.882812 47.96875 158.855469 47.824219 162.585938 C 47.699219 165.664062 48.6875 168.589844 50.824219 171.054688 C 53.851562 173.785156 55.554688 173.730469 58.796875 173.730469 C 68.484375 173.730469 67.425781 166.230469 71.03125 165.972656 C 75.132812 165.6875 86.507812 173.730469 109.726562 173.730469 C 122.539062 173.730469 132.941406 165.972656 132.941406 165.972656 C 132.941406 165.972656 140.246094 173.730469 179.375 173.730469 C 207.480469 173.730469 203.179688 176.257812 210.328125 189.242188 C 214.363281 195.703125 225.808594 212.511719 256.761719 212.511719 C 279.980469 212.511719 285.644531 215.570312 296.570312 222.195312 C 300.417969 224.527344 303.769531 226.453125 304.007812 226.476562 C 304.246094 226.492188 302.082031 224.109375 299.195312 221.175781 Z M 299.195312 221.175781 "/>
</g>
</svg>
