<?xml version="1.0" encoding="UTF-8"?>
<svg xmlns="http://www.w3.org/2000/svg" xmlns:xlink="http://www.w3.org/1999/xlink" width="375pt" height="374.999991pt" viewBox="0 0 375 374.999991" version="1.2">
<defs>
<clipPath id="clip1">
  <path d="M 18.75 117.257812 L 356.25 117.257812 L 356.25 257.273438 L 18.75 257.273438 Z M 18.75 117.257812 "/>
</clipPath>
</defs>
<g id="surface1">
<g clip-path="url(#clip1)" clip-rule="nonzero">
<path style=" stroke:none;fill-rule:nonzero;fill:rgb(0%,0%,0%);fill-opacity:1;" d="M 105.035156 124.257812 L 105.035156 190.765625 C 105.035156 203.367188 100.257812 229.128906 61.90625 229.128906 C 23.695312 229.128906 18.917969 205.046875 18.917969 191.328125 L 18.917969 186.003906 C 18.917969 182.226562 22.007812 179.003906 25.941406 179.003906 L 38.585938 179.003906 C 42.519531 179.003906 45.609375 182.226562 45.609375 186.003906 L 45.609375 191.1875 C 45.609375 199.167969 50.949219 206.589844 61.0625 206.589844 C 71.179688 206.589844 77.359375 200.988281 77.359375 191.328125 L 77.359375 124.257812 C 77.359375 120.339844 80.589844 117.257812 84.382812 117.257812 L 98.011719 117.257812 C 101.804688 117.257812 105.035156 120.339844 105.035156 124.257812 Z M 149.148438 211.488281 C 140.859375 211.488281 136.222656 205.046875 136.222656 193.425781 L 176.542969 193.425781 C 180.617188 193.425781 183.988281 190.066406 183.566406 186.144531 C 181.179688 155.902344 163.195312 150.441406 148.023438 150.441406 C 118.664062 150.441406 112.199219 172.703125 112.199219 191.605469 C 112.199219 210.648438 125.265625 229.128906 148.023438 229.128906 C 166.371094 229.128906 179.5625 218.65625 182.792969 209.039062 C 183.523438 206.855469 181.699219 204.628906 179.378906 204.628906 L 164.179688 204.628906 C 162.101562 204.628906 160.035156 205.425781 158.714844 207.035156 C 157.128906 209.023438 154.121094 211.488281 149.148438 211.488281 Z M 147.742188 166.402344 C 156.59375 166.402344 160.527344 173.125 160.527344 180.265625 L 136.222656 180.265625 C 136.222656 172.703125 139.171875 166.402344 147.742188 166.402344 Z M 228.085938 211.488281 C 219.796875 211.488281 215.160156 205.046875 215.160156 193.425781 L 255.480469 193.425781 C 259.554688 193.425781 262.925781 190.066406 262.503906 186.144531 C 260.117188 155.902344 242.132812 150.441406 226.960938 150.441406 C 197.601562 150.441406 191.136719 172.703125 191.136719 191.605469 C 191.136719 210.648438 204.203125 229.128906 226.960938 229.128906 C 245.308594 229.128906 258.5 218.65625 261.730469 209.039062 C 262.460938 206.855469 260.636719 204.628906 258.316406 204.628906 L 243.117188 204.628906 C 241.039062 204.628906 238.972656 205.425781 237.652344 207.035156 C 236.066406 209.023438 233.058594 211.488281 228.085938 211.488281 Z M 226.679688 166.402344 C 235.53125 166.402344 239.464844 173.125 239.464844 180.265625 L 215.160156 180.265625 C 215.160156 172.703125 218.113281 166.402344 226.679688 166.402344 Z M 322.925781 150.441406 C 305.929688 150.441406 299.605469 161.363281 298.625 163.324219 L 298.625 157.441406 C 298.625 153.660156 295.53125 150.441406 291.597656 150.441406 L 278.816406 150.441406 C 274.882812 150.441406 271.789062 153.660156 271.789062 157.441406 L 271.789062 250.273438 C 271.789062 254.195312 274.882812 257.273438 278.816406 257.273438 L 291.597656 257.273438 C 295.53125 257.273438 298.625 254.195312 298.625 250.273438 L 298.625 221.988281 C 299.746094 223.390625 305.929688 232.070312 323.347656 232.070312 C 344 232.070312 356.082031 214.289062 356.082031 189.925781 C 356.082031 158.421875 335.851562 150.441406 322.925781 150.441406 Z M 315.199219 214.007812 C 302.558594 214.007812 298.34375 206.027344 298.625 190.765625 C 299.042969 175.644531 305.789062 169.484375 313.9375 169.484375 C 327.140625 169.484375 329.671875 179.566406 329.671875 189.925781 C 329.671875 200.289062 327.84375 214.007812 315.199219 214.007812 Z M 315.199219 214.007812 "/>
</g>
</g>
</svg>
