<?xml version="1.0" encoding="UTF-8"?>
<svg xmlns="http://www.w3.org/2000/svg" xmlns:xlink="http://www.w3.org/1999/xlink" width="375pt" height="374.999991pt" viewBox="0 0 375 374.999991" version="1.2">
<defs>
<clipPath id="clip1">
  <path d="M 6.023438 39.144531 L 369 39.144531 L 369 336.144531 L 6.023438 336.144531 Z M 6.023438 39.144531 "/>
</clipPath>
<clipPath id="clip2">
  <path d="M 8 220 L 367 220 L 367 336.144531 L 8 336.144531 Z M 8 220 "/>
</clipPath>
</defs>
<g id="surface1">
<g clip-path="url(#clip1)" clip-rule="nonzero">
<path style=" stroke:none;fill-rule:evenodd;fill:rgb(83.529663%,84.709167%,94.119263%);fill-opacity:1;" d="M 187.554688 63.917969 C 278.574219 63.917969 335.953125 108.726562 335.953125 187.789062 C 335.953125 266.855469 284.796875 311.664062 187.554688 311.664062 C 90.308594 311.664062 39.152344 266.945312 39.152344 187.789062 C 39.152344 108.636719 96.535156 63.917969 187.554688 63.917969 Z M 187.554688 39.144531 C 299.992188 39.144531 368.933594 91.789062 368.933594 187.789062 C 368.933594 283.792969 307.683594 336.4375 187.554688 336.4375 C 67.421875 336.4375 6.175781 283.90625 6.175781 187.789062 C 6.175781 91.671875 75.113281 39.144531 187.554688 39.144531 Z M 187.554688 39.144531 "/>
</g>
<path style=" stroke:none;fill-rule:evenodd;fill:rgb(83.529663%,84.709167%,94.119263%);fill-opacity:1;" d="M 187.554688 253.855469 C 160.957031 197.015625 135.40625 192.25 47.398438 163.015625 C 40.117188 160.53125 35.046875 156.078125 30.421875 152.816406 L 47.882812 109.097656 C 52.699219 111.082031 56.566406 117.421875 63.886719 121.726562 C 70.859375 125.984375 92.445312 133.796875 105.109375 138.242188 C 147.261719 153.03125 172.640625 172.882812 187.554688 204.304688 Z M 187.554688 253.855469 C 214.152344 197.015625 239.699219 192.25 327.710938 163.015625 C 333.695312 160.851562 339.152344 158.65625 344.6875 152.816406 L 327.222656 109.097656 C 322.96875 114.152344 317.980469 117.976562 311.222656 121.726562 C 304.246094 125.984375 282.664062 133.796875 270 138.242188 C 227.84375 153.03125 202.46875 172.882812 187.554688 204.304688 Z M 187.554688 253.855469 "/>
<path style=" stroke:none;fill-rule:evenodd;fill:rgb(47.44873%,51.759338%,80.389404%);fill-opacity:1;" d="M 55.253906 253.855469 L 30.90625 237.339844 C 30.90625 237.339844 9.421875 159.976562 39.152344 129.984375 C 88.710938 146.484375 189.804688 188.5 187.554688 253.855469 C 168.164062 208.726562 137.492188 196.453125 137.492188 196.453125 C 104.457031 180.21875 76.492188 172.570312 47.386719 163 L 41.699219 160.554688 C 40.652344 165.921875 31.980469 215 55.253906 253.855469 Z M 55.253906 253.855469 "/>
<path style=" stroke:none;fill-rule:evenodd;fill:rgb(47.44873%,51.759338%,80.389404%);fill-opacity:1;" d="M 319.886719 253.855469 L 344.234375 237.339844 C 344.234375 237.339844 365.726562 159.976562 335.988281 129.984375 C 286.4375 146.484375 185.335938 188.5 187.59375 253.855469 C 206.984375 208.726562 237.65625 196.453125 237.65625 196.453125 C 270.691406 180.21875 298.65625 172.570312 327.761719 163 L 333.449219 160.554688 C 334.496094 165.921875 343.160156 215 319.886719 253.855469 Z M 319.886719 253.855469 "/>
<path style=" stroke:none;fill-rule:evenodd;fill:rgb(62.348938%,65.098572%,86.268616%);fill-opacity:1;" d="M 58.921875 118.175781 C 58.921875 118.175781 54.875 115.40625 55.640625 105.207031 C 56.40625 95.011719 88.980469 55.660156 187.554688 55.660156 C 286.125 55.660156 319.316406 105.207031 319.316406 105.207031 C 319.777344 110.800781 318.722656 115.167969 316.507812 118.570312 C 314.460938 117.148438 287.363281 63.769531 187.554688 63.917969 C 87.613281 64.214844 61.148438 116.710938 58.921875 118.175781 Z M 58.921875 118.175781 "/>
<g clip-path="url(#clip2)" clip-rule="nonzero">
<path style=" stroke:none;fill-rule:evenodd;fill:rgb(47.44873%,51.759338%,80.389404%);fill-opacity:1;" d="M 12.636719 237.445312 C 11.085938 232.484375 9.976562 226.761719 8.863281 220.824219 L 30.875 237.445312 C 48.460938 291.238281 97.300781 328.386719 187.519531 328.285156 C 277.023438 328.179688 326.390625 291.015625 344.199219 237.339844 L 366.246094 220.832031 C 365.117188 226.816406 363.828125 232.492188 362.1875 237.4375 L 362.402344 237.4375 C 343.746094 301.84375 285.027344 336.535156 187.519531 336.535156 C 89.988281 336.535156 31.261719 301.910156 12.628906 237.4375 L 12.636719 237.4375 Z M 12.636719 237.445312 "/>
</g>
</g>
</svg>
