<?xml version="1.0" encoding="UTF-8"?>
<svg xmlns="http://www.w3.org/2000/svg" xmlns:xlink="http://www.w3.org/1999/xlink" width="375pt" height="374.999991pt" viewBox="0 0 375 374.999991" version="1.2">
<defs>
<clipPath id="clip1">
  <path d="M 27.996094 27.996094 L 346.488281 27.996094 L 346.488281 346.488281 L 27.996094 346.488281 Z M 27.996094 27.996094 "/>
</clipPath>
<clipPath id="clip2">
  <path d="M 43 43 L 346.488281 43 L 346.488281 346.488281 L 43 346.488281 Z M 43 43 "/>
</clipPath>
</defs>
<g id="surface1">
<g clip-path="url(#clip1)" clip-rule="nonzero">
<path style=" stroke:none;fill-rule:nonzero;fill:rgb(77.249146%,79.219055%,91.369629%);fill-opacity:1;" d="M 187.242188 27.996094 C 99.289062 27.996094 27.996094 99.289062 27.996094 187.242188 C 27.996094 275.195312 99.289062 346.488281 187.242188 346.488281 C 275.195312 346.488281 346.488281 275.195312 346.488281 187.242188 C 346.488281 99.289062 275.195312 27.996094 187.242188 27.996094 Z M 187.242188 314.640625 C 116.878906 314.640625 59.84375 257.605469 59.84375 187.242188 C 59.84375 116.878906 116.878906 59.84375 187.242188 59.84375 C 257.605469 59.84375 314.640625 116.878906 314.640625 187.242188 C 314.640625 257.605469 257.605469 314.640625 187.242188 314.640625 Z M 187.242188 314.640625 "/>
</g>
<g clip-path="url(#clip2)" clip-rule="nonzero">
<path style=" stroke:none;fill-rule:nonzero;fill:rgb(62.348938%,65.879822%,85.488892%);fill-opacity:1;" d="M 187.242188 43.921875 C 109.609375 43.921875 43.921875 122.882812 43.921875 187.242188 C 43.921875 275.195312 99.289062 346.488281 187.242188 346.488281 C 275.195312 346.488281 346.488281 275.195312 346.488281 187.242188 C 346.488281 99.289062 275.195312 43.921875 187.242188 43.921875 Z M 187.242188 314.640625 C 116.878906 314.640625 59.84375 257.605469 59.84375 187.242188 C 59.84375 116.878906 116.878906 59.84375 187.242188 59.84375 C 257.605469 59.84375 314.640625 116.878906 314.640625 187.242188 C 314.640625 257.605469 257.605469 314.640625 187.242188 314.640625 Z M 187.242188 314.640625 "/>
</g>
<path style=" stroke:none;fill-rule:nonzero;fill:rgb(77.249146%,79.219055%,91.369629%);fill-opacity:1;" d="M 187.242188 59.84375 C 262.222656 59.84375 314.640625 124.203125 314.640625 187.242188 C 314.640625 257.605469 257.605469 314.640625 187.242188 314.640625 C 128.855469 314.640625 59.84375 266.394531 59.84375 187.242188 C 59.84375 266.394531 108.089844 330.5625 187.242188 330.5625 C 266.394531 330.5625 330.5625 266.394531 330.5625 187.242188 C 330.5625 116.242188 266.394531 59.84375 187.242188 59.84375 Z M 187.242188 59.84375 "/>
<path style=" stroke:none;fill-rule:nonzero;fill:rgb(47.44873%,52.549744%,79.60968%);fill-opacity:1;" d="M 59.84375 187.242188 C 59.84375 116.878906 116.878906 59.84375 187.242188 59.84375 C 266.394531 59.84375 330.5625 116.242188 330.5625 187.242188 C 330.5625 108.089844 266.394531 43.921875 187.242188 43.921875 C 108.089844 43.921875 43.921875 108.089844 43.921875 187.242188 C 43.921875 266.394531 108.089844 330.5625 187.242188 330.5625 C 108.089844 330.5625 59.84375 266.394531 59.84375 187.242188 Z M 59.84375 187.242188 "/>
<path style=" stroke:none;fill-rule:nonzero;fill:rgb(47.44873%,52.549744%,79.60968%);fill-opacity:1;" d="M 60.609375 200.945312 C 60.707031 201.8125 60.878906 202.617188 60.992188 203.46875 C 60.878906 202.625 60.695312 201.804688 60.609375 200.945312 Z M 60.609375 200.945312 "/>
<path style=" stroke:none;fill-rule:nonzero;fill:rgb(62.348938%,65.879822%,85.488892%);fill-opacity:1;" d="M 187.242188 59.84375 L 161.03125 174.46875 L 187.242188 187.242188 L 213.949219 174.46875 Z M 187.242188 59.84375 "/>
<path style=" stroke:none;fill-rule:nonzero;fill:rgb(90.979004%,91.758728%,96.469116%);fill-opacity:1;" d="M 187.242188 59.84375 L 161.03125 174.46875 L 187.242188 187.242188 Z M 187.242188 59.84375 "/>
<path style=" stroke:none;fill-rule:nonzero;fill:rgb(77.249146%,79.219055%,91.369629%);fill-opacity:1;" d="M 75.769531 250.941406 L 187.242188 216.597656 L 187.242188 187.242188 L 161.03125 174.46875 Z M 75.769531 250.941406 "/>
<path style=" stroke:none;fill-rule:nonzero;fill:rgb(47.44873%,52.549744%,79.60968%);fill-opacity:1;" d="M 75.769531 250.941406 L 187.242188 216.597656 L 187.242188 187.242188 Z M 75.769531 250.941406 "/>
<path style=" stroke:none;fill-rule:nonzero;fill:rgb(77.249146%,79.219055%,91.369629%);fill-opacity:1;" d="M 298.714844 251.441406 L 187.242188 216.597656 L 187.242188 187.242188 L 213.949219 174.46875 Z M 298.714844 251.441406 "/>
<path style=" stroke:none;fill-rule:nonzero;fill:rgb(62.348938%,65.879822%,85.488892%);fill-opacity:1;" d="M 298.714844 251.441406 L 187.242188 216.597656 L 187.242188 187.242188 Z M 298.714844 251.441406 "/>
</g>
</svg>
