<?xml version="1.0" encoding="UTF-8"?>
<svg xmlns="http://www.w3.org/2000/svg" xmlns:xlink="http://www.w3.org/1999/xlink" width="375pt" height="374.999991pt" viewBox="0 0 375 374.999991" version="1.2">
<defs>
<clipPath id="clip1">
  <path d="M 0 65.390625 L 375 65.390625 L 375 309.890625 L 0 309.890625 Z M 0 65.390625 "/>
</clipPath>
</defs>
<g id="surface1">
<g clip-path="url(#clip1)" clip-rule="nonzero">
<path style=" stroke:none;fill-rule:nonzero;fill:rgb(70.199585%,74.119568%,88.62915%);fill-opacity:1;" d="M 187.5 65.390625 C 84.089844 65.390625 0.265625 120.1875 0.265625 187.78125 C 0.265625 255.375 84.089844 310.171875 187.5 310.171875 C 290.910156 310.171875 374.734375 255.375 374.734375 187.78125 C 374.734375 120.1875 290.910156 65.390625 187.5 65.390625 Z M 187.5 285.695312 C 102.082031 285.695312 32.828125 241.855469 32.828125 187.78125 C 32.828125 133.710938 102.082031 89.867188 187.5 89.867188 C 272.917969 89.867188 342.171875 133.710938 342.171875 187.78125 C 342.171875 241.855469 272.917969 285.695312 187.5 285.695312 Z M 187.5 285.695312 "/>
</g>
<path style=" stroke:none;fill-rule:nonzero;fill:rgb(70.199585%,74.119568%,88.62915%);fill-opacity:1;" d="M 187.5 89.867188 C 160.523438 89.867188 138.65625 133.710938 138.65625 187.78125 C 138.65625 241.855469 160.523438 285.695312 187.5 285.695312 C 214.476562 285.695312 236.34375 241.855469 236.34375 187.78125 C 236.34375 133.710938 214.476562 89.867188 187.5 89.867188 Z M 187.5 253.054688 C 174.011719 253.054688 163.078125 223.828125 163.078125 187.78125 C 163.078125 151.734375 174.011719 122.507812 187.5 122.507812 C 200.988281 122.507812 211.921875 151.734375 211.921875 187.78125 C 211.921875 223.828125 200.988281 253.054688 187.5 253.054688 Z M 187.5 253.054688 "/>
<path style=" stroke:none;fill-rule:nonzero;fill:rgb(47.44873%,52.549744%,79.60968%);fill-opacity:1;" d="M 163.085938 188.097656 C 163.085938 187.992188 163.078125 187.886719 163.078125 187.78125 C 163.078125 151.734375 174.011719 122.507812 187.5 122.507812 C 200.988281 122.507812 211.921875 151.734375 211.921875 187.78125 C 211.921875 188.507812 211.890625 189.21875 211.882812 189.945312 C 211.90625 189.945312 211.929688 189.945312 211.960938 189.953125 C 212.140625 142.59375 206.835938 106.1875 187.5 106.1875 C 167.148438 106.1875 162.988281 143.695312 163.019531 188.109375 C 163.046875 188.109375 163.0625 188.097656 163.085938 188.097656 Z M 163.085938 188.097656 "/>
<path style=" stroke:none;fill-rule:nonzero;fill:rgb(70.199585%,74.119568%,88.62915%);fill-opacity:1;" d="M 187.5 73.550781 C 115.5625 73.550781 57.25 99.121094 57.25 130.664062 C 57.25 162.210938 115.5625 187.78125 187.5 187.78125 C 259.4375 187.78125 317.75 162.210938 317.75 130.664062 C 317.75 99.121094 259.4375 73.550781 187.5 73.550781 Z M 187.5 163.304688 C 133.550781 163.304688 89.8125 144.820312 89.8125 124.546875 C 89.8125 104.269531 133.550781 89.867188 187.5 89.867188 C 241.449219 89.867188 285.1875 104.269531 285.1875 124.546875 C 285.1875 144.820312 241.449219 163.304688 187.5 163.304688 Z M 187.5 163.304688 "/>
<path style=" stroke:none;fill-rule:nonzero;fill:rgb(47.44873%,52.549744%,79.60968%);fill-opacity:1;" d="M 32.828125 187.78125 C 32.828125 168.175781 42.027344 149.953125 57.707031 134.640625 C 57.503906 133.316406 57.25 132.003906 57.25 130.664062 C 57.25 125.648438 58.878906 120.800781 61.652344 116.160156 C 32.878906 132.730469 16.546875 156.832031 16.546875 187.78125 C 16.546875 246.398438 93.515625 275.460938 154.417969 283.394531 C 84.902344 273.796875 32.828125 234.65625 32.828125 187.78125 Z M 313.347656 116.160156 C 316.121094 120.800781 317.75 125.648438 317.75 130.664062 C 317.75 132.003906 317.496094 133.316406 317.292969 134.640625 C 332.972656 149.953125 342.171875 168.175781 342.171875 187.78125 C 342.171875 234.65625 290.097656 273.796875 220.582031 283.394531 C 281.484375 275.460938 358.453125 246.398438 358.453125 187.78125 C 358.453125 156.832031 342.121094 132.730469 313.347656 116.160156 Z M 313.347656 116.160156 "/>
</g>
</svg>
