<?xml version="1.0" encoding="UTF-8"?>
<svg xmlns="http://www.w3.org/2000/svg" xmlns:xlink="http://www.w3.org/1999/xlink" width="375pt" height="374.999991pt" viewBox="0 0 375 374.999991" version="1.2">
<g id="surface1">
<path style=" stroke:none;fill-rule:nonzero;fill:rgb(71.369934%,73.329163%,74.899292%);fill-opacity:1;" d="M 187.476562 44.6875 C 185.015625 44.6875 182.558594 44.75 180.101562 44.871094 C 177.644531 44.992188 175.191406 45.171875 172.746094 45.414062 C 170.296875 45.652344 167.855469 45.953125 165.421875 46.316406 C 162.988281 46.675781 160.566406 47.097656 158.152344 47.578125 C 155.742188 48.058594 153.34375 48.59375 150.957031 49.191406 C 148.570312 49.789062 146.199219 50.445312 143.847656 51.160156 C 141.492188 51.875 139.15625 52.644531 136.839844 53.476562 C 134.523438 54.304688 132.230469 55.1875 129.957031 56.128906 C 127.6875 57.070312 125.4375 58.066406 123.214844 59.121094 C 120.988281 60.171875 118.792969 61.277344 116.625 62.4375 C 114.453125 63.597656 112.316406 64.808594 110.207031 66.074219 C 108.09375 67.335938 106.019531 68.652344 103.972656 70.019531 C 101.925781 71.386719 99.917969 72.800781 97.941406 74.265625 C 95.964844 75.734375 94.027344 77.246094 92.125 78.804688 C 90.222656 80.367188 88.363281 81.972656 86.539062 83.625 C 84.714844 85.277344 82.9375 86.972656 81.195312 88.710938 C 79.457031 90.449219 77.761719 92.230469 76.109375 94.054688 C 74.457031 95.878906 72.851562 97.738281 71.289062 99.640625 C 69.730469 101.542969 68.21875 103.480469 66.753906 105.457031 C 65.285156 107.433594 63.871094 109.441406 62.503906 111.488281 C 61.136719 113.53125 59.820312 115.609375 58.558594 117.71875 C 57.292969 119.832031 56.082031 121.96875 54.921875 124.140625 C 53.761719 126.308594 52.65625 128.503906 51.605469 130.730469 C 50.554688 132.953125 49.554688 135.199219 48.613281 137.472656 C 47.671875 139.746094 46.789062 142.039062 45.960938 144.355469 C 45.132812 146.671875 44.359375 149.007812 43.644531 151.359375 C 42.933594 153.714844 42.277344 156.085938 41.679688 158.472656 C 41.082031 160.855469 40.542969 163.257812 40.0625 165.667969 C 39.582031 168.082031 39.160156 170.503906 38.800781 172.9375 C 38.441406 175.371094 38.136719 177.8125 37.898438 180.257812 C 37.65625 182.707031 37.476562 185.160156 37.355469 187.617188 C 37.234375 190.074219 37.171875 192.53125 37.171875 194.992188 C 37.171875 197.453125 37.234375 199.910156 37.355469 202.367188 C 37.476562 204.824219 37.65625 207.277344 37.898438 209.722656 C 38.136719 212.171875 38.441406 214.613281 38.800781 217.046875 C 39.160156 219.480469 39.582031 221.902344 40.0625 224.3125 C 40.542969 226.726562 41.082031 229.125 41.679688 231.511719 C 42.277344 233.898438 42.933594 236.269531 43.644531 238.621094 C 44.359375 240.976562 45.132812 243.3125 45.960938 245.628906 C 46.789062 247.941406 47.671875 250.238281 48.613281 252.511719 C 49.554688 254.78125 50.554688 257.03125 51.605469 259.253906 C 52.65625 261.476562 53.761719 263.675781 54.921875 265.84375 C 56.082031 268.011719 57.292969 270.152344 58.558594 272.261719 C 59.820312 274.371094 61.136719 276.449219 62.503906 278.496094 C 63.871094 280.539062 65.285156 282.550781 66.753906 284.527344 C 68.21875 286.503906 69.730469 288.441406 71.289062 290.34375 C 72.851562 292.246094 74.457031 294.105469 76.109375 295.929688 C 77.761719 297.75 79.457031 299.53125 81.195312 301.273438 C 82.9375 303.011719 84.714844 304.707031 86.539062 306.359375 C 88.363281 308.011719 90.222656 309.617188 92.125 311.175781 C 94.027344 312.738281 95.964844 314.25 97.941406 315.714844 C 99.917969 317.179688 101.925781 318.597656 103.972656 319.964844 C 106.019531 321.332031 108.09375 322.644531 110.207031 323.910156 C 112.316406 325.175781 114.453125 326.386719 116.625 327.546875 C 118.792969 328.707031 120.988281 329.8125 123.214844 330.863281 C 125.4375 331.914062 127.6875 332.910156 129.957031 333.851562 C 132.230469 334.792969 134.523438 335.679688 136.839844 336.507812 C 139.15625 337.335938 141.492188 338.109375 143.847656 338.824219 C 146.199219 339.535156 148.570312 340.191406 150.957031 340.789062 C 153.34375 341.386719 155.742188 341.925781 158.152344 342.40625 C 160.566406 342.886719 162.988281 343.308594 165.421875 343.667969 C 167.855469 344.027344 170.296875 344.328125 172.746094 344.570312 C 175.191406 344.8125 177.644531 344.992188 180.101562 345.113281 C 182.558594 345.234375 185.015625 345.292969 187.476562 345.292969 C 189.9375 345.292969 192.394531 345.234375 194.851562 345.113281 C 197.308594 344.992188 199.761719 344.8125 202.207031 344.570312 C 204.65625 344.328125 207.097656 344.027344 209.53125 343.667969 C 211.964844 343.308594 214.386719 342.886719 216.800781 342.40625 C 219.210938 341.925781 221.609375 341.386719 223.996094 340.789062 C 226.382812 340.191406 228.753906 339.535156 231.105469 338.824219 C 233.460938 338.109375 235.796875 337.335938 238.113281 336.507812 C 240.429688 335.679688 242.722656 334.792969 244.996094 333.851562 C 247.265625 332.910156 249.515625 331.914062 251.738281 330.863281 C 253.960938 329.8125 256.160156 328.707031 258.328125 327.546875 C 260.5 326.386719 262.636719 325.175781 264.746094 323.910156 C 266.855469 322.644531 268.933594 321.332031 270.980469 319.964844 C 273.027344 318.597656 275.035156 317.179688 277.011719 315.714844 C 278.988281 314.25 280.925781 312.738281 282.828125 311.175781 C 284.730469 309.617188 286.589844 308.011719 288.414062 306.359375 C 290.234375 304.707031 292.015625 303.011719 293.757812 301.273438 C 295.496094 299.53125 297.191406 297.75 298.84375 295.929688 C 300.496094 294.105469 302.101562 292.246094 303.660156 290.34375 C 305.222656 288.441406 306.734375 286.503906 308.199219 284.527344 C 309.667969 282.550781 311.082031 280.539062 312.449219 278.496094 C 313.816406 276.449219 315.128906 274.371094 316.394531 272.261719 C 317.660156 270.152344 318.871094 268.011719 320.03125 265.84375 C 321.191406 263.675781 322.296875 261.476562 323.347656 259.253906 C 324.398438 257.03125 325.398438 254.78125 326.339844 252.511719 C 327.28125 250.238281 328.164062 247.941406 328.992188 245.628906 C 329.820312 243.3125 330.59375 240.976562 331.308594 238.621094 C 332.019531 236.269531 332.675781 233.898438 333.273438 231.511719 C 333.871094 229.125 334.410156 226.726562 334.890625 224.3125 C 335.371094 221.902344 335.792969 219.480469 336.152344 217.046875 C 336.511719 214.613281 336.8125 212.171875 337.054688 209.722656 C 337.296875 207.277344 337.476562 204.824219 337.597656 202.367188 C 337.71875 199.910156 337.777344 197.453125 337.777344 194.992188 C 337.769531 192.535156 337.695312 190.078125 337.566406 187.625 C 337.433594 185.171875 337.246094 182.726562 336.992188 180.28125 C 336.742188 177.835938 336.433594 175.398438 336.0625 172.972656 C 335.695312 170.542969 335.265625 168.125 334.777344 165.714844 C 334.292969 163.308594 333.746094 160.914062 333.140625 158.53125 C 332.535156 156.152344 331.875 153.785156 331.15625 151.4375 C 330.433594 149.089844 329.660156 146.757812 328.824219 144.445312 C 327.992188 142.136719 327.101562 139.847656 326.15625 137.578125 C 325.210938 135.3125 324.210938 133.066406 323.15625 130.847656 C 322.101562 128.628906 320.992188 126.4375 319.832031 124.273438 C 318.667969 122.109375 317.457031 119.972656 316.191406 117.867188 C 314.925781 115.761719 313.605469 113.691406 312.238281 111.648438 C 310.871094 109.605469 309.457031 107.601562 307.992188 105.628906 C 306.527344 103.65625 305.015625 101.722656 303.453125 99.824219 C 301.894531 97.925781 300.289062 96.066406 298.640625 94.246094 C 296.988281 92.425781 295.296875 90.648438 293.558594 88.910156 C 291.820312 87.171875 290.042969 85.480469 288.222656 83.828125 C 286.402344 82.179688 284.542969 80.574219 282.644531 79.015625 C 280.746094 77.453125 278.8125 75.941406 276.839844 74.476562 C 274.867188 73.011719 272.859375 71.59375 270.820312 70.226562 C 268.777344 68.859375 266.703125 67.542969 264.597656 66.277344 C 262.492188 65.011719 260.359375 63.796875 258.195312 62.636719 C 256.03125 61.476562 253.835938 60.367188 251.617188 59.3125 C 249.398438 58.257812 247.15625 57.257812 244.890625 56.3125 C 242.621094 55.367188 240.332031 54.476562 238.019531 53.644531 C 235.710938 52.808594 233.378906 52.03125 231.03125 51.3125 C 228.683594 50.59375 226.316406 49.929688 223.9375 49.328125 C 221.554688 48.722656 219.160156 48.175781 216.75 47.6875 C 214.34375 47.203125 211.925781 46.773438 209.496094 46.402344 C 207.066406 46.035156 204.632812 45.722656 202.1875 45.472656 C 199.742188 45.222656 197.292969 45.03125 194.839844 44.902344 C 192.386719 44.769531 189.933594 44.699219 187.476562 44.6875 Z M 187.476562 300.203125 C 185.746094 300.234375 184.015625 300.222656 182.289062 300.164062 C 180.558594 300.109375 178.832031 300.007812 177.105469 299.867188 C 175.382812 299.722656 173.660156 299.539062 171.945312 299.308594 C 170.230469 299.078125 168.523438 298.808594 166.820312 298.492188 C 165.121094 298.175781 163.429688 297.820312 161.746094 297.421875 C 160.0625 297.019531 158.390625 296.578125 156.726562 296.09375 C 155.066406 295.609375 153.417969 295.085938 151.78125 294.519531 C 150.148438 293.953125 148.527344 293.34375 146.925781 292.695312 C 145.320312 292.050781 143.730469 291.359375 142.164062 290.632812 C 140.59375 289.90625 139.042969 289.140625 137.511719 288.332031 C 135.980469 287.527344 134.46875 286.683594 132.980469 285.804688 C 131.492188 284.921875 130.023438 284.003906 128.582031 283.050781 C 127.136719 282.09375 125.71875 281.101562 124.328125 280.078125 C 122.933594 279.050781 121.566406 277.992188 120.226562 276.894531 C 118.886719 275.800781 117.574219 274.671875 116.292969 273.511719 C 115.007812 272.351562 113.753906 271.160156 112.53125 269.9375 C 111.308594 268.714844 110.117188 267.460938 108.957031 266.175781 C 107.792969 264.894531 106.667969 263.582031 105.570312 262.242188 C 104.476562 260.902344 103.417969 259.535156 102.390625 258.140625 C 101.363281 256.746094 100.375 255.328125 99.417969 253.886719 C 98.464844 252.445312 97.546875 250.976562 96.664062 249.488281 C 95.785156 248 94.941406 246.488281 94.132812 244.957031 C 93.328125 243.425781 92.5625 241.875 91.835938 240.304688 C 91.105469 238.734375 90.417969 237.148438 89.769531 235.542969 C 89.125 233.941406 88.515625 232.320312 87.949219 230.683594 C 87.382812 229.050781 86.859375 227.402344 86.375 225.742188 C 85.890625 224.078125 85.449219 222.40625 85.046875 220.722656 C 84.648438 219.039062 84.289062 217.347656 83.976562 215.644531 C 83.660156 213.945312 83.386719 212.234375 83.160156 210.519531 C 82.929688 208.804688 82.742188 207.085938 82.601562 205.363281 C 82.457031 203.636719 82.359375 201.910156 82.304688 200.179688 C 82.246094 198.453125 82.234375 196.722656 82.265625 194.992188 C 82.234375 193.261719 82.246094 191.53125 82.304688 189.800781 C 82.359375 188.074219 82.457031 186.347656 82.601562 184.621094 C 82.742188 182.898438 82.929688 181.175781 83.160156 179.460938 C 83.386719 177.746094 83.660156 176.039062 83.976562 174.335938 C 84.289062 172.636719 84.648438 170.941406 85.046875 169.261719 C 85.449219 167.578125 85.890625 165.902344 86.375 164.242188 C 86.859375 162.582031 87.382812 160.933594 87.949219 159.296875 C 88.515625 157.664062 89.125 156.042969 89.769531 154.4375 C 90.417969 152.835938 91.105469 151.246094 91.835938 149.675781 C 92.5625 148.109375 93.328125 146.558594 94.132812 145.027344 C 94.941406 143.492188 95.785156 141.984375 96.664062 140.496094 C 97.546875 139.003906 98.464844 137.539062 99.417969 136.097656 C 100.375 134.652344 101.363281 133.234375 102.390625 131.84375 C 103.417969 130.449219 104.476562 129.082031 105.570312 127.742188 C 106.667969 126.402344 107.792969 125.089844 108.957031 123.808594 C 110.117188 122.523438 111.308594 121.269531 112.53125 120.046875 C 113.753906 118.824219 115.007812 117.632812 116.292969 116.46875 C 117.574219 115.308594 118.886719 114.183594 120.226562 113.085938 C 121.566406 111.992188 122.933594 110.933594 124.328125 109.90625 C 125.71875 108.878906 127.136719 107.890625 128.582031 106.933594 C 130.023438 105.980469 131.492188 105.0625 132.980469 104.179688 C 134.46875 103.296875 135.980469 102.457031 137.511719 101.648438 C 139.042969 100.84375 140.59375 100.078125 142.164062 99.351562 C 143.730469 98.621094 145.320312 97.933594 146.925781 97.285156 C 148.527344 96.636719 150.148438 96.03125 151.78125 95.464844 C 153.417969 94.898438 155.066406 94.371094 156.726562 93.890625 C 158.390625 93.40625 160.0625 92.960938 161.746094 92.5625 C 163.429688 92.164062 165.121094 91.804688 166.820312 91.492188 C 168.523438 91.175781 170.230469 90.902344 171.945312 90.675781 C 173.664062 90.445312 175.382812 90.257812 177.105469 90.117188 C 178.832031 89.972656 180.558594 89.875 182.289062 89.816406 C 184.015625 89.761719 185.746094 89.75 187.476562 89.78125 C 189.207031 89.75 190.9375 89.761719 192.664062 89.816406 C 194.394531 89.875 196.121094 89.972656 197.847656 90.117188 C 199.570312 90.257812 201.289062 90.445312 203.007812 90.675781 C 204.722656 90.902344 206.429688 91.175781 208.132812 91.492188 C 209.832031 91.804688 211.523438 92.164062 213.207031 92.5625 C 214.890625 92.964844 216.5625 93.40625 218.226562 93.890625 C 219.886719 94.371094 221.535156 94.898438 223.171875 95.464844 C 224.804688 96.03125 226.425781 96.636719 228.027344 97.285156 C 229.632812 97.933594 231.222656 98.621094 232.789062 99.351562 C 234.359375 100.078125 235.910156 100.84375 237.441406 101.648438 C 238.972656 102.457031 240.484375 103.296875 241.972656 104.179688 C 243.460938 105.0625 244.929688 105.980469 246.371094 106.933594 C 247.816406 107.890625 249.234375 108.878906 250.625 109.90625 C 252.019531 110.933594 253.386719 111.992188 254.726562 113.085938 C 256.066406 114.183594 257.378906 115.308594 258.660156 116.46875 C 259.945312 117.632812 261.199219 118.824219 262.421875 120.046875 C 263.644531 121.269531 264.835938 122.523438 265.996094 123.808594 C 267.160156 125.089844 268.285156 126.402344 269.378906 127.742188 C 270.476562 129.082031 271.535156 130.449219 272.5625 131.84375 C 273.589844 133.234375 274.578125 134.652344 275.535156 136.097656 C 276.488281 137.539062 277.40625 139.003906 278.289062 140.496094 C 279.167969 141.984375 280.011719 143.492188 280.820312 145.027344 C 281.625 146.558594 282.390625 148.109375 283.117188 149.675781 C 283.847656 151.246094 284.535156 152.835938 285.183594 154.4375 C 285.828125 156.042969 286.4375 157.664062 287.003906 159.296875 C 287.570312 160.933594 288.09375 162.582031 288.578125 164.242188 C 289.0625 165.902344 289.503906 167.578125 289.90625 169.261719 C 290.304688 170.941406 290.664062 172.636719 290.976562 174.335938 C 291.292969 176.039062 291.566406 177.746094 291.792969 179.460938 C 292.023438 181.175781 292.207031 182.898438 292.351562 184.621094 C 292.496094 186.347656 292.59375 188.074219 292.648438 189.800781 C 292.707031 191.53125 292.71875 193.261719 292.6875 194.992188 C 292.71875 196.722656 292.707031 198.453125 292.648438 200.179688 C 292.59375 201.910156 292.496094 203.636719 292.351562 205.363281 C 292.207031 207.085938 292.023438 208.804688 291.792969 210.519531 C 291.566406 212.234375 291.292969 213.945312 290.976562 215.644531 C 290.664062 217.347656 290.304688 219.039062 289.90625 220.722656 C 289.503906 222.40625 289.0625 224.078125 288.578125 225.742188 C 288.09375 227.402344 287.570312 229.050781 287.003906 230.683594 C 286.4375 232.320312 285.828125 233.941406 285.183594 235.542969 C 284.535156 237.148438 283.847656 238.734375 283.117188 240.304688 C 282.390625 241.875 281.625 243.425781 280.820312 244.957031 C 280.011719 246.488281 279.167969 248 278.289062 249.488281 C 277.40625 250.976562 276.488281 252.445312 275.535156 253.886719 C 274.578125 255.328125 273.589844 256.746094 272.5625 258.140625 C 271.535156 259.535156 270.476562 260.902344 269.378906 262.242188 C 268.285156 263.582031 267.160156 264.894531 265.996094 266.175781 C 264.835938 267.460938 263.644531 268.714844 262.421875 269.9375 C 261.199219 271.160156 259.945312 272.351562 258.660156 273.511719 C 257.378906 274.671875 256.066406 275.800781 254.726562 276.894531 C 253.386719 277.992188 252.019531 279.050781 250.625 280.078125 C 249.234375 281.101562 247.816406 282.09375 246.371094 283.050781 C 244.929688 284.003906 243.460938 284.921875 241.972656 285.804688 C 240.484375 286.683594 238.972656 287.527344 237.441406 288.332031 C 235.910156 289.140625 234.359375 289.90625 232.789062 290.632812 C 231.222656 291.359375 229.632812 292.050781 228.027344 292.695312 C 226.425781 293.34375 224.804688 293.953125 223.171875 294.519531 C 221.535156 295.085938 219.886719 295.609375 218.226562 296.09375 C 216.5625 296.578125 214.890625 297.019531 213.207031 297.421875 C 211.523438 297.820312 209.832031 298.175781 208.132812 298.492188 C 206.429688 298.808594 204.722656 299.078125 203.007812 299.308594 C 201.289062 299.539062 199.570312 299.722656 197.847656 299.867188 C 196.121094 300.011719 194.394531 300.109375 192.664062 300.164062 C 190.9375 300.222656 189.207031 300.234375 187.476562 300.203125 Z M 187.476562 300.203125 "/>
<path style=" stroke:none;fill-rule:nonzero;fill:rgb(71.369934%,73.329163%,74.899292%);fill-opacity:1;" d="M 337.777344 37.171875 L 337.777344 112.324219 L 262.628906 37.171875 Z M 337.777344 37.171875 "/>
<path style=" stroke:none;fill-rule:nonzero;fill:rgb(7.839966%,32.159424%,67.83905%);fill-opacity:1;" d="M 292.6875 194.992188 C 292.757812 207.910156 290.578125 220.433594 286.148438 232.566406 L 88.804688 232.566406 C 86.640625 226.539062 85.007812 220.371094 83.910156 214.0625 C 82.8125 207.753906 82.261719 201.394531 82.261719 194.992188 C 82.261719 188.585938 82.8125 182.230469 83.910156 175.921875 C 85.007812 169.613281 86.640625 163.445312 88.804688 157.414062 L 286.148438 157.414062 C 290.578125 169.550781 292.757812 182.074219 292.6875 194.992188 Z M 292.6875 194.992188 "/>
<path style=" stroke:none;fill-rule:nonzero;fill:rgb(96.078491%,97.648621%,98.81897%);fill-opacity:1;" d="M 97.292969 178.519531 L 121.328125 178.519531 L 121.328125 183.988281 L 115.96875 183.988281 L 123.214844 204.070312 L 130.648438 183.988281 L 126.078125 183.988281 L 126.09375 178.519531 L 142.484375 178.519531 L 142.421875 183.953125 L 137.425781 183.953125 L 126.710938 212.195312 L 113.8125 212.195312 L 102.59375 183.960938 L 97.292969 183.960938 Z M 97.292969 178.519531 "/>
<path style=" stroke:none;fill-rule:nonzero;fill:rgb(96.078491%,97.648621%,98.81897%);fill-opacity:1;" d="M 201.628906 178.519531 L 225.660156 178.519531 L 225.660156 183.988281 L 220.296875 183.988281 L 227.546875 204.070312 L 234.980469 183.988281 L 230.410156 183.988281 L 230.425781 178.519531 L 246.816406 178.519531 L 246.757812 183.953125 L 241.757812 183.953125 L 231.042969 212.195312 L 218.144531 212.195312 L 206.925781 183.960938 L 201.628906 183.960938 Z M 201.628906 178.519531 "/>
<path style=" stroke:none;fill-rule:nonzero;fill:rgb(96.078491%,97.648621%,98.81897%);fill-opacity:1;" d="M 157.347656 178.519531 C 156.808594 178.507812 156.269531 178.519531 155.730469 178.5625 C 155.191406 178.605469 154.65625 178.671875 154.125 178.769531 C 153.59375 178.867188 153.070312 178.988281 152.550781 179.136719 C 152.03125 179.285156 151.519531 179.460938 151.019531 179.660156 C 150.515625 179.863281 150.027344 180.085938 149.546875 180.335938 C 149.070312 180.585938 148.605469 180.859375 148.152344 181.15625 C 147.703125 181.453125 147.269531 181.773438 146.847656 182.113281 C 146.429688 182.457031 146.03125 182.816406 145.648438 183.199219 C 145.265625 183.578125 144.902344 183.980469 144.558594 184.398438 C 144.21875 184.816406 143.898438 185.25 143.601562 185.699219 C 143.300781 186.148438 143.027344 186.613281 142.777344 187.089844 C 142.523438 187.570312 142.296875 188.058594 142.09375 188.558594 C 141.894531 189.0625 141.71875 189.570312 141.566406 190.089844 C 141.417969 190.609375 141.292969 191.132812 141.195312 191.664062 C 141.097656 192.195312 141.027344 192.730469 140.984375 193.269531 C 140.941406 193.808594 140.925781 194.347656 140.933594 194.886719 C 140.851562 195.460938 140.804688 196.039062 140.789062 196.617188 C 140.773438 197.199219 140.789062 197.777344 140.839844 198.355469 C 140.890625 198.933594 140.972656 199.507812 141.089844 200.074219 C 141.203125 200.644531 141.351562 201.203125 141.53125 201.753906 C 141.710938 202.308594 141.921875 202.847656 142.164062 203.375 C 142.40625 203.902344 142.675781 204.414062 142.976562 204.910156 C 143.277344 205.40625 143.601562 205.886719 143.957031 206.34375 C 144.3125 206.804688 144.691406 207.242188 145.097656 207.65625 C 145.5 208.074219 145.925781 208.464844 146.375 208.832031 C 146.824219 209.199219 147.292969 209.539062 147.78125 209.851562 C 148.269531 210.167969 148.777344 210.453125 149.296875 210.707031 C 149.816406 210.964844 150.351562 211.1875 150.898438 211.382812 C 151.445312 211.578125 152 211.742188 152.5625 211.875 C 153.128906 212.003906 153.699219 212.105469 154.277344 212.171875 C 154.851562 212.238281 155.429688 212.269531 156.011719 212.269531 C 156.59375 212.269531 157.171875 212.238281 157.746094 212.171875 C 158.285156 212.171875 158.820312 212.148438 159.355469 212.09375 C 159.890625 212.042969 160.421875 211.960938 160.949219 211.851562 C 161.472656 211.746094 161.992188 211.609375 162.507812 211.445312 C 163.019531 211.285156 163.519531 211.097656 164.015625 210.882812 C 164.507812 210.667969 164.988281 210.425781 165.457031 210.164062 C 165.921875 209.898438 166.375 209.609375 166.816406 209.300781 C 167.253906 208.988281 167.675781 208.65625 168.078125 208.300781 C 168.480469 207.945312 168.867188 207.570312 169.230469 207.175781 C 169.59375 206.78125 169.9375 206.367188 170.261719 205.9375 C 170.582031 205.507812 170.878906 205.058594 171.15625 204.597656 C 171.429688 204.136719 171.683594 203.660156 171.910156 203.175781 C 172.132812 202.6875 172.335938 202.1875 172.507812 201.679688 C 172.683594 201.171875 172.832031 200.65625 172.953125 200.132812 C 173.074219 199.609375 173.167969 199.078125 173.234375 198.546875 C 173.300781 198.011719 173.335938 197.476562 173.347656 196.941406 C 173.359375 196.402344 173.339844 195.867188 173.296875 195.328125 C 173.34375 194.785156 173.363281 194.238281 173.355469 193.695312 C 173.347656 193.148438 173.308594 192.601562 173.242188 192.058594 C 173.175781 191.515625 173.082031 190.980469 172.957031 190.449219 C 172.835938 189.914062 172.683594 189.390625 172.503906 188.875 C 172.324219 188.359375 172.117188 187.851562 171.886719 187.359375 C 171.652344 186.863281 171.394531 186.382812 171.109375 185.914062 C 170.824219 185.449219 170.519531 185 170.1875 184.5625 C 169.855469 184.128906 169.5 183.714844 169.125 183.316406 C 168.746094 182.921875 168.351562 182.546875 167.933594 182.191406 C 167.519531 181.835938 167.085938 181.503906 166.632812 181.195312 C 166.183594 180.890625 165.714844 180.605469 165.234375 180.347656 C 164.753906 180.085938 164.257812 179.855469 163.753906 179.648438 C 163.246094 179.441406 162.730469 179.261719 162.207031 179.113281 C 161.679688 178.960938 161.148438 178.835938 160.609375 178.742188 C 160.074219 178.648438 159.53125 178.582031 158.984375 178.542969 C 158.441406 178.507812 157.894531 178.496094 157.347656 178.519531 Z M 157.117188 207.277344 C 153.875 207.277344 151.253906 201.859375 151.253906 195.164062 C 151.253906 188.46875 153.875 183.050781 157.117188 183.050781 C 160.355469 183.050781 162.976562 188.476562 162.976562 195.164062 C 162.976562 201.851562 160.355469 207.277344 157.117188 207.277344 Z M 157.117188 207.277344 "/>
<path style=" stroke:none;fill-rule:nonzero;fill:rgb(96.078491%,97.648621%,98.81897%);fill-opacity:1;" d="M 261.710938 178.519531 C 261.171875 178.507812 260.632812 178.519531 260.09375 178.5625 C 259.554688 178.605469 259.019531 178.671875 258.488281 178.769531 C 257.957031 178.867188 257.433594 178.988281 256.914062 179.136719 C 256.394531 179.285156 255.882812 179.460938 255.382812 179.660156 C 254.878906 179.863281 254.390625 180.085938 253.910156 180.335938 C 253.433594 180.585938 252.96875 180.859375 252.515625 181.15625 C 252.066406 181.453125 251.628906 181.773438 251.210938 182.113281 C 250.792969 182.457031 250.390625 182.816406 250.007812 183.199219 C 249.628906 183.578125 249.265625 183.980469 248.921875 184.398438 C 248.582031 184.816406 248.261719 185.25 247.960938 185.699219 C 247.664062 186.148438 247.390625 186.613281 247.136719 187.089844 C 246.886719 187.570312 246.660156 188.058594 246.457031 188.558594 C 246.257812 189.0625 246.078125 189.570312 245.929688 190.089844 C 245.777344 190.609375 245.65625 191.132812 245.558594 191.664062 C 245.460938 192.195312 245.390625 192.730469 245.347656 193.269531 C 245.304688 193.808594 245.285156 194.347656 245.296875 194.886719 C 245.214844 195.460938 245.167969 196.039062 245.152344 196.617188 C 245.136719 197.199219 245.152344 197.777344 245.203125 198.355469 C 245.253906 198.933594 245.335938 199.507812 245.453125 200.074219 C 245.566406 200.644531 245.714844 201.203125 245.894531 201.753906 C 246.074219 202.308594 246.285156 202.847656 246.527344 203.375 C 246.769531 203.902344 247.039062 204.414062 247.339844 204.910156 C 247.636719 205.40625 247.964844 205.886719 248.320312 206.34375 C 248.675781 206.804688 249.054688 207.242188 249.457031 207.65625 C 249.863281 208.074219 250.289062 208.464844 250.738281 208.832031 C 251.1875 209.199219 251.65625 209.539062 252.144531 209.851562 C 252.632812 210.167969 253.136719 210.453125 253.660156 210.707031 C 254.179688 210.964844 254.714844 211.1875 255.257812 211.382812 C 255.804688 211.578125 256.363281 211.742188 256.925781 211.875 C 257.492188 212.003906 258.0625 212.105469 258.640625 212.171875 C 259.214844 212.238281 259.792969 212.269531 260.375 212.269531 C 260.953125 212.269531 261.53125 212.238281 262.109375 212.171875 C 262.644531 212.171875 263.183594 212.148438 263.714844 212.09375 C 264.25 212.042969 264.78125 211.960938 265.308594 211.851562 C 265.832031 211.746094 266.351562 211.609375 266.863281 211.449219 C 267.375 211.285156 267.878906 211.097656 268.371094 210.882812 C 268.863281 210.667969 269.34375 210.429688 269.8125 210.167969 C 270.277344 209.902344 270.730469 209.613281 271.171875 209.304688 C 271.609375 208.992188 272.027344 208.660156 272.433594 208.304688 C 272.835938 207.953125 273.21875 207.578125 273.582031 207.183594 C 273.949219 206.789062 274.292969 206.375 274.613281 205.945312 C 274.933594 205.515625 275.234375 205.070312 275.507812 204.609375 C 275.785156 204.148438 276.035156 203.675781 276.261719 203.1875 C 276.488281 202.699219 276.691406 202.203125 276.863281 201.695312 C 277.039062 201.1875 277.1875 200.671875 277.308594 200.148438 C 277.429688 199.625 277.523438 199.097656 277.589844 198.566406 C 277.65625 198.03125 277.695312 197.496094 277.707031 196.960938 C 277.71875 196.421875 277.703125 195.886719 277.65625 195.351562 C 277.707031 194.808594 277.730469 194.261719 277.722656 193.714844 C 277.714844 193.167969 277.675781 192.621094 277.609375 192.078125 C 277.546875 191.535156 277.449219 190.996094 277.328125 190.464844 C 277.203125 189.933594 277.054688 189.40625 276.875 188.890625 C 276.695312 188.371094 276.488281 187.867188 276.257812 187.371094 C 276.023438 186.875 275.765625 186.394531 275.480469 185.925781 C 275.199219 185.460938 274.890625 185.007812 274.558594 184.574219 C 274.226562 184.136719 273.871094 183.722656 273.496094 183.324219 C 273.121094 182.929688 272.722656 182.550781 272.304688 182.195312 C 271.890625 181.84375 271.457031 181.511719 271.003906 181.199219 C 270.554688 180.890625 270.085938 180.609375 269.605469 180.347656 C 269.121094 180.089844 268.628906 179.855469 268.121094 179.648438 C 267.617188 179.445312 267.097656 179.265625 266.574219 179.113281 C 266.046875 178.960938 265.515625 178.835938 264.976562 178.742188 C 264.4375 178.648438 263.894531 178.582031 263.351562 178.542969 C 262.804688 178.507812 262.257812 178.496094 261.710938 178.519531 Z M 261.476562 207.277344 C 258.238281 207.277344 255.617188 201.859375 255.617188 195.164062 C 255.617188 188.46875 258.238281 183.050781 261.476562 183.050781 C 264.71875 183.050781 267.339844 188.476562 267.339844 195.164062 C 267.339844 201.851562 264.71875 207.277344 261.476562 207.277344 Z M 261.476562 207.277344 "/>
<path style=" stroke:none;fill-rule:nonzero;fill:rgb(96.078491%,97.648621%,98.81897%);fill-opacity:1;" d="M 208.066406 196.253906 L 208.066406 212.277344 L 175.28125 212.277344 L 175.28125 206.746094 L 180.621094 206.746094 L 180.621094 184.019531 L 175.28125 184.019531 L 175.28125 178.457031 L 197.074219 178.457031 L 197.074219 183.914062 L 191.460938 183.914062 L 191.460938 206.585938 L 197.019531 206.585938 C 201.042969 206.585938 204.347656 201.914062 204.347656 196.222656 Z M 208.066406 196.253906 "/>
</g>
</svg>
