<?xml version="1.0" encoding="UTF-8"?>
<svg xmlns="http://www.w3.org/2000/svg" xmlns:xlink="http://www.w3.org/1999/xlink" width="375pt" height="374.999991pt" viewBox="0 0 375 374.999991" version="1.2">
<defs>
<clipPath id="clip1">
  <path d="M 9 9.140625 L 366 9.140625 L 366 366 L 9 366 Z M 9 9.140625 "/>
</clipPath>
</defs>
<g id="surface1">
<g clip-path="url(#clip1)" clip-rule="nonzero">
<path style=" stroke:none;fill-rule:nonzero;fill:rgb(8.239746%,39.608765%,75.289917%);fill-opacity:1;" d="M 187.5 9.140625 C 184.589844 9.140625 181.679688 9.210938 178.769531 9.355469 C 175.863281 9.5 172.960938 9.710938 170.0625 10 C 167.164062 10.285156 164.273438 10.640625 161.394531 11.070312 C 158.515625 11.496094 155.644531 11.996094 152.789062 12.566406 C 149.933594 13.132812 147.09375 13.773438 144.269531 14.480469 C 141.445312 15.191406 138.640625 15.96875 135.855469 16.8125 C 133.066406 17.660156 130.304688 18.574219 127.5625 19.558594 C 124.820312 20.539062 122.105469 21.589844 119.414062 22.703125 C 116.726562 23.820312 114.0625 25.003906 111.433594 26.25 C 108.800781 27.496094 106.199219 28.808594 103.632812 30.183594 C 101.0625 31.554688 98.53125 32.992188 96.035156 34.492188 C 93.535156 35.992188 91.078125 37.550781 88.65625 39.171875 C 86.234375 40.792969 83.855469 42.472656 81.515625 44.207031 C 79.175781 45.945312 76.882812 47.738281 74.632812 49.589844 C 72.382812 51.4375 70.175781 53.34375 68.019531 55.300781 C 65.863281 57.261719 63.753906 59.269531 61.695312 61.332031 C 59.636719 63.394531 57.628906 65.507812 55.675781 67.667969 C 53.71875 69.828125 51.816406 72.035156 49.96875 74.289062 C 48.121094 76.542969 46.332031 78.84375 44.597656 81.183594 C 42.863281 83.527344 41.1875 85.910156 39.570312 88.335938 C 37.953125 90.761719 36.394531 93.222656 34.898438 95.726562 C 33.402344 98.226562 31.964844 100.761719 30.59375 103.335938 C 29.222656 105.90625 27.910156 108.511719 26.667969 111.148438 C 25.421875 113.785156 24.242188 116.449219 23.128906 119.144531 C 22.015625 121.835938 20.964844 124.558594 19.984375 127.304688 C 19.003906 130.050781 18.089844 132.816406 17.246094 135.609375 C 16.402344 138.398438 15.625 141.210938 14.917969 144.039062 C 14.210938 146.867188 13.570312 149.710938 13.003906 152.570312 C 12.4375 155.433594 11.9375 158.304688 11.511719 161.1875 C 11.082031 164.074219 10.726562 166.96875 10.441406 169.871094 C 10.15625 172.773438 9.941406 175.679688 9.800781 178.59375 C 9.65625 181.503906 9.585938 184.417969 9.585938 187.335938 C 9.585938 190.253906 9.65625 193.167969 9.800781 196.078125 C 9.941406 198.992188 10.15625 201.898438 10.441406 204.800781 C 10.726562 207.703125 11.082031 210.597656 11.511719 213.484375 C 11.9375 216.367188 12.4375 219.238281 13.003906 222.101562 C 13.570312 224.960938 14.210938 227.804688 14.917969 230.632812 C 15.625 233.460938 16.402344 236.273438 17.246094 239.0625 C 18.089844 241.855469 19.003906 244.621094 19.984375 247.367188 C 20.964844 250.113281 22.015625 252.832031 23.128906 255.527344 C 24.242188 258.222656 25.421875 260.886719 26.667969 263.523438 C 27.910156 266.160156 29.222656 268.765625 30.59375 271.335938 C 31.964844 273.910156 33.402344 276.445312 34.898438 278.945312 C 36.394531 281.449219 37.953125 283.910156 39.570312 286.335938 C 41.1875 288.761719 42.863281 291.144531 44.597656 293.488281 C 46.332031 295.828125 48.121094 298.128906 49.96875 300.382812 C 51.816406 302.636719 53.71875 304.84375 55.675781 307.003906 C 57.628906 309.164062 59.636719 311.277344 61.695312 313.339844 C 63.753906 315.402344 65.863281 317.410156 68.019531 319.371094 C 70.175781 321.328125 72.382812 323.234375 74.632812 325.082031 C 76.882812 326.933594 79.175781 328.726562 81.515625 330.464844 C 83.855469 332.199219 86.234375 333.878906 88.65625 335.5 C 91.078125 337.121094 93.535156 338.679688 96.035156 340.179688 C 98.53125 341.679688 101.0625 343.117188 103.632812 344.488281 C 106.199219 345.863281 108.800781 347.175781 111.433594 348.421875 C 114.0625 349.667969 116.726562 350.851562 119.414062 351.964844 C 122.105469 353.082031 124.820312 354.132812 127.5625 355.113281 C 130.304688 356.097656 133.066406 357.011719 135.855469 357.859375 C 138.640625 358.703125 141.445312 359.480469 144.269531 360.191406 C 147.09375 360.898438 149.933594 361.539062 152.789062 362.105469 C 155.644531 362.675781 158.515625 363.175781 161.394531 363.601562 C 164.273438 364.03125 167.164062 364.386719 170.0625 364.671875 C 172.960938 364.957031 175.863281 365.171875 178.769531 365.316406 C 181.679688 365.460938 184.589844 365.53125 187.5 365.53125 C 190.410156 365.53125 193.320312 365.460938 196.230469 365.316406 C 199.136719 365.171875 202.039062 364.957031 204.9375 364.671875 C 207.835938 364.386719 210.726562 364.03125 213.605469 363.601562 C 216.484375 363.175781 219.355469 362.675781 222.210938 362.105469 C 225.066406 361.539062 227.90625 360.898438 230.730469 360.191406 C 233.554688 359.480469 236.359375 358.703125 239.144531 357.859375 C 241.933594 357.011719 244.695312 356.097656 247.4375 355.113281 C 250.179688 354.132812 252.894531 353.082031 255.585938 351.964844 C 258.273438 350.851562 260.9375 349.667969 263.566406 348.421875 C 266.199219 347.175781 268.800781 345.863281 271.367188 344.488281 C 273.9375 343.117188 276.46875 341.679688 278.964844 340.179688 C 281.464844 338.679688 283.921875 337.121094 286.34375 335.5 C 288.765625 333.878906 291.144531 332.199219 293.484375 330.464844 C 295.824219 328.726562 298.117188 326.933594 300.367188 325.082031 C 302.617188 323.234375 304.824219 321.328125 306.980469 319.371094 C 309.136719 317.410156 311.246094 315.402344 313.304688 313.339844 C 315.363281 311.277344 317.371094 309.164062 319.324219 307.003906 C 321.28125 304.84375 323.183594 302.636719 325.03125 300.382812 C 326.878906 298.128906 328.667969 295.828125 330.402344 293.488281 C 332.136719 291.144531 333.8125 288.761719 335.429688 286.335938 C 337.046875 283.910156 338.605469 281.449219 340.101562 278.945312 C 341.597656 276.445312 343.035156 273.910156 344.40625 271.335938 C 345.777344 268.765625 347.089844 266.160156 348.332031 263.523438 C 349.578125 260.886719 350.757812 258.222656 351.871094 255.527344 C 352.984375 252.832031 354.035156 250.113281 355.015625 247.367188 C 355.996094 244.621094 356.910156 241.855469 357.753906 239.0625 C 358.597656 236.273438 359.375 233.460938 360.082031 230.632812 C 360.789062 227.804688 361.429688 224.960938 361.996094 222.101562 C 362.5625 219.238281 363.0625 216.367188 363.488281 213.484375 C 363.917969 210.597656 364.273438 207.703125 364.558594 204.800781 C 364.84375 201.898438 365.058594 198.992188 365.199219 196.078125 C 365.34375 193.167969 365.414062 190.253906 365.414062 187.335938 C 365.414062 184.417969 365.34375 181.503906 365.199219 178.59375 C 365.058594 175.679688 364.84375 172.773438 364.558594 169.871094 C 364.273438 166.96875 363.917969 164.074219 363.488281 161.1875 C 363.0625 158.304688 362.5625 155.433594 361.996094 152.570312 C 361.429688 149.710938 360.789062 146.867188 360.082031 144.039062 C 359.375 141.210938 358.597656 138.398438 357.753906 135.609375 C 356.910156 132.816406 355.996094 130.050781 355.015625 127.304688 C 354.035156 124.558594 352.984375 121.835938 351.871094 119.144531 C 350.757812 116.449219 349.578125 113.785156 348.332031 111.148438 C 347.089844 108.511719 345.777344 105.90625 344.40625 103.335938 C 343.035156 100.761719 341.597656 98.226562 340.101562 95.726562 C 338.605469 93.222656 337.046875 90.761719 335.429688 88.335938 C 333.8125 85.910156 332.136719 83.527344 330.402344 81.183594 C 328.667969 78.84375 326.878906 76.542969 325.03125 74.289062 C 323.183594 72.035156 321.28125 69.828125 319.324219 67.667969 C 317.371094 65.507812 315.363281 63.394531 313.304688 61.332031 C 311.246094 59.269531 309.136719 57.261719 306.980469 55.300781 C 304.824219 53.34375 302.617188 51.4375 300.367188 49.589844 C 298.117188 47.738281 295.824219 45.945312 293.484375 44.207031 C 291.144531 42.472656 288.765625 40.792969 286.34375 39.171875 C 283.921875 37.550781 281.464844 35.992188 278.964844 34.492188 C 276.46875 32.992188 273.9375 31.554688 271.367188 30.183594 C 268.800781 28.808594 266.199219 27.496094 263.566406 26.25 C 260.9375 25.003906 258.273438 23.820312 255.585938 22.703125 C 252.894531 21.589844 250.179688 20.539062 247.4375 19.558594 C 244.695312 18.574219 241.933594 17.660156 239.144531 16.8125 C 236.359375 15.96875 233.554688 15.191406 230.730469 14.480469 C 227.90625 13.773438 225.066406 13.132812 222.210938 12.566406 C 219.355469 11.996094 216.484375 11.496094 213.605469 11.070312 C 210.726562 10.640625 207.835938 10.285156 204.9375 10 C 202.039062 9.710938 199.136719 9.5 196.230469 9.355469 C 193.320312 9.210938 190.410156 9.140625 187.5 9.140625 Z M 187.5 9.140625 "/>
</g>
<path style=" stroke:none;fill-rule:nonzero;fill:rgb(100%,100%,100%);fill-opacity:1;" d="M 187.5 35.871094 C 103.976562 35.871094 36.273438 103.683594 36.273438 187.335938 C 36.273438 270.988281 103.976562 338.800781 187.5 338.800781 C 271.023438 338.800781 338.726562 270.988281 338.726562 187.335938 C 338.726562 103.683594 271.023438 35.871094 187.5 35.871094 Z M 187.5 53.6875 C 200.863281 53.6875 213.75 55.722656 225.929688 59.402344 L 187.5 142.777344 L 149.070312 59.402344 C 161.25 55.722656 174.136719 53.6875 187.5 53.6875 Z M 54.0625 187.335938 C 54.0625 176.214844 55.578125 165.460938 58.148438 155.128906 L 129.089844 307.316406 C 84.746094 285.566406 54.0625 240.027344 54.0625 187.335938 Z M 187.5 320.980469 C 170.472656 320.980469 154.238281 317.648438 139.257812 311.804688 L 187.5 227.992188 L 235.742188 311.804688 C 220.761719 317.648438 204.527344 320.980469 187.5 320.980469 Z M 210.476562 196.246094 L 164.523438 196.246094 L 137.460938 244.695312 L 76.820312 112.769531 C 87.21875 97.328125 100.828125 84.285156 116.574219 74.332031 L 165.402344 178.425781 L 209.597656 178.425781 L 258.417969 74.332031 C 274.164062 84.285156 287.773438 97.328125 298.171875 112.769531 L 237.53125 244.695312 Z M 245.910156 307.316406 L 316.851562 155.128906 C 319.421875 165.460938 320.9375 176.214844 320.9375 187.335938 C 320.9375 240.027344 290.253906 285.566406 245.910156 307.316406 Z M 245.910156 307.316406 "/>
</g>
</svg>
