<?xml version="1.0" encoding="UTF-8"?>
<svg xmlns="http://www.w3.org/2000/svg" xmlns:xlink="http://www.w3.org/1999/xlink" width="375pt" height="374.999991pt" viewBox="0 0 375 374.999991" version="1.2">
<defs>
<clipPath id="clip1">
  <path d="M 175 37.871094 L 355.613281 37.871094 L 355.613281 337.121094 L 175 337.121094 Z M 175 37.871094 "/>
</clipPath>
</defs>
<g id="surface1">
<path style=" stroke:none;fill-rule:nonzero;fill:rgb(58.428955%,58.428955%,58.428955%);fill-opacity:1;" d="M 352.132812 333.695312 L 243.085938 333.695312 C 229.777344 333.695312 218.988281 322.921875 218.988281 309.636719 L 218.988281 263.351562 L 352.132812 263.351562 L 352.132812 333.695312 "/>
<path style=" stroke:none;fill-rule:nonzero;fill:rgb(91.369629%,90.979004%,90.589905%);fill-opacity:1;" d="M 298.363281 41.246094 C 251.328125 41.246094 213.199219 79.320312 213.199219 126.289062 L 213.199219 182.289062 C 193.535156 185.214844 178.453125 202.144531 178.453125 222.597656 C 178.453125 243.046875 193.535156 260.429688 213.199219 263.351562 L 352.132812 263.351562 L 352.132812 41.246094 L 298.363281 41.246094 "/>
<path style=" stroke:none;fill-rule:nonzero;fill:rgb(79.998779%,79.998779%,78.819275%);fill-opacity:1;" d="M 306.054688 73.023438 C 265.75 73.023438 233.078125 105.652344 233.078125 145.898438 L 233.078125 193.890625 C 216.226562 196.398438 203.300781 210.902344 203.300781 228.429688 C 203.300781 245.953125 216.226562 260.460938 233.078125 262.96875 L 233.078125 263.351562 L 352.132812 263.351562 L 352.132812 73.023438 L 306.054688 73.023438 "/>
<path style=" stroke:none;fill-rule:nonzero;fill:rgb(84.309387%,11.369324%,28.62854%);fill-opacity:1;" d="M 195.851562 311.242188 L 218.988281 311.242188 L 218.988281 278.136719 L 182.203125 278.136719 L 195.851562 311.242188 "/>
<path style=" stroke:none;fill-rule:nonzero;fill:rgb(84.309387%,11.369324%,28.62854%);fill-opacity:1;" d="M 284.609375 152.300781 L 284.609375 126.375 C 284.609375 104.511719 266.863281 86.789062 244.96875 86.789062 L 222.929688 86.789062 C 216.722656 98.59375 213.199219 112.03125 213.199219 126.289062 L 213.199219 152.300781 L 284.609375 152.300781 "/>
<path style=" stroke:none;fill-rule:nonzero;fill:rgb(69.40918%,11.369324%,23.139954%);fill-opacity:1;" d="M 233.078125 152.300781 L 284.609375 152.300781 L 284.609375 126.375 C 284.609375 109.707031 274.292969 95.457031 259.691406 89.621094 C 243.441406 102.988281 233.078125 123.234375 233.078125 145.898438 L 233.078125 152.300781 "/>
<path style=" stroke:none;fill-rule:nonzero;fill:rgb(58.428955%,58.428955%,58.428955%);fill-opacity:1;" d="M 135.09375 290.433594 L 115.144531 288.679688 C 118.996094 281.421875 121.066406 273.074219 120.742188 264.210938 C 120.496094 257.625 118.90625 251.367188 116.253906 245.695312 C 131.414062 242.300781 142.746094 228.785156 142.746094 212.617188 C 142.746094 193.890625 127.542969 178.710938 108.792969 178.710938 C 90.039062 178.710938 74.835938 193.890625 74.835938 212.617188 C 74.835938 214.351562 74.96875 216.050781 75.222656 217.710938 C 74.769531 217.6875 74.324219 217.652344 73.867188 217.636719 C 45.878906 216.746094 23 239.546875 23.816406 267.480469 C 24.570312 293.226562 45.804688 314.089844 71.597656 314.449219 C 74.652344 314.492188 77.648438 314.25 80.554688 313.75 C 96.15625 311.0625 111.808594 308.664062 127.582031 307.277344 L 135.347656 306.59375 C 139.632812 306.214844 142.894531 302.558594 142.742188 298.234375 C 142.59375 294.101562 139.222656 290.796875 135.09375 290.433594 "/>
<path style=" stroke:none;fill-rule:nonzero;fill:rgb(58.428955%,58.428955%,58.428955%);fill-opacity:1;" d="M 94.96875 89.621094 C 94.96875 77.230469 84.910156 67.183594 72.503906 67.183594 C 60.09375 67.183594 50.03125 77.230469 50.03125 89.621094 C 50.03125 102.011719 60.09375 112.058594 72.503906 112.058594 C 84.910156 112.058594 94.96875 102.011719 94.96875 89.621094 "/>
<path style=" stroke:none;fill-rule:nonzero;fill:rgb(58.428955%,58.428955%,58.428955%);fill-opacity:1;" d="M 163.027344 139.75 C 163.027344 130.109375 155.203125 122.296875 145.546875 122.296875 C 135.898438 122.296875 128.074219 130.109375 128.074219 139.75 C 128.074219 149.386719 135.898438 157.203125 145.546875 157.203125 C 155.203125 157.203125 163.027344 149.386719 163.027344 139.75 "/>
<path style=" stroke:none;fill-rule:nonzero;fill:rgb(47.839355%,48.239136%,48.629761%);fill-opacity:1;" d="M 218.988281 294.691406 L 352.132812 294.691406 L 352.132812 263.351562 L 218.988281 263.351562 L 218.988281 294.691406 "/>
<path style=" stroke:none;fill-rule:nonzero;fill:rgb(69.40918%,11.369324%,23.139954%);fill-opacity:1;" d="M 189.027344 294.691406 L 218.988281 294.691406 L 218.988281 278.136719 L 182.203125 278.136719 L 189.027344 294.691406 "/>
<path style=" stroke:none;fill-rule:nonzero;fill:rgb(58.428955%,58.428955%,58.428955%);fill-opacity:1;" d="M 155.886719 298.523438 C 155.886719 303.777344 160.152344 308.035156 165.410156 308.035156 C 170.667969 308.035156 174.933594 303.777344 174.933594 298.523438 C 174.933594 293.273438 170.667969 289.015625 165.410156 289.015625 C 160.152344 289.015625 155.886719 293.273438 155.886719 298.523438 "/>
<path style=" stroke:none;fill-rule:nonzero;fill:rgb(47.839355%,48.239136%,48.629761%);fill-opacity:1;" d="M 71.597656 314.449219 C 73.140625 314.46875 74.667969 314.417969 76.175781 314.296875 C 74.976562 313.789062 73.710938 313.332031 72.289062 313.039062 C 58.910156 310.25 47.355469 299.976562 43.035156 287.027344 C 38.710938 274.074219 41.785156 258.9375 50.8125 248.6875 C 59.84375 238.441406 74.488281 233.46875 87.898438 236.097656 C 91.109375 236.730469 95.183594 237.433594 97 234.71875 C 99.175781 231.464844 95.597656 227.597656 93.136719 224.554688 C 86.175781 215.957031 88.207031 201.617188 97.277344 195.28125 C 101.292969 192.472656 106.164062 191.226562 110.699219 189.363281 C 114.917969 187.628906 119.144531 185.058594 121.207031 181.0625 C 117.359375 179.550781 113.175781 178.710938 108.792969 178.710938 C 90.039062 178.710938 74.835938 193.890625 74.835938 212.617188 C 74.835938 214.351562 74.96875 216.050781 75.222656 217.710938 C 74.769531 217.6875 74.324219 217.652344 73.867188 217.636719 C 45.878906 216.746094 23 239.546875 23.816406 267.480469 C 24.570312 293.226562 45.804688 314.089844 71.597656 314.449219 "/>
<path style=" stroke:none;fill-rule:nonzero;fill:rgb(47.839355%,48.239136%,48.629761%);fill-opacity:1;" d="M 115.144531 288.679688 C 118.351562 282.636719 120.316406 275.839844 120.699219 268.621094 C 119.304688 272.28125 117.175781 275.6875 114.558594 278.574219 C 110.675781 282.859375 105.933594 286.171875 100.882812 289.039062 C 97.519531 290.953125 98.890625 296.050781 102.765625 296.042969 C 105.65625 296.039062 108.546875 295.832031 111.40625 295.421875 C 117.238281 294.589844 123.058594 292.835938 128.074219 289.816406 L 115.144531 288.679688 "/>
<path style=" stroke:none;fill-rule:nonzero;fill:rgb(69.40918%,69.40918%,69.018555%);fill-opacity:1;" d="M 87.007812 83.539062 C 87.007812 77.4375 82.058594 72.492188 75.949219 72.492188 C 69.835938 72.492188 64.886719 77.4375 64.886719 83.539062 C 64.886719 89.640625 69.835938 94.585938 75.949219 94.585938 C 82.058594 94.585938 87.007812 89.640625 87.007812 83.539062 "/>
<path style=" stroke:none;fill-rule:nonzero;fill:rgb(100%,100%,100%);fill-opacity:1;" d="M 97.699219 262.921875 C 105.601562 262.921875 105.613281 250.65625 97.699219 250.65625 C 89.796875 250.65625 89.785156 262.921875 97.699219 262.921875 "/>
<path style=" stroke:none;fill-rule:nonzero;fill:rgb(100%,100%,100%);fill-opacity:1;" d="M 317.300781 60.558594 C 322.984375 60.558594 328.671875 60.558594 334.359375 60.558594 C 342.261719 60.558594 342.273438 48.296875 334.359375 48.296875 C 328.671875 48.296875 322.984375 48.296875 317.300781 48.296875 C 309.398438 48.296875 309.382812 60.558594 317.300781 60.558594 "/>
<path style=" stroke:none;fill-rule:nonzero;fill:rgb(100%,100%,100%);fill-opacity:1;" d="M 272.308594 67.828125 C 280.210938 67.828125 280.222656 55.5625 272.308594 55.5625 C 264.40625 55.5625 264.390625 67.828125 272.308594 67.828125 "/>
<path style=" stroke:none;fill-rule:nonzero;fill:rgb(16.079712%,15.689087%,15.289307%);fill-opacity:1;" d="M 40.453125 234.160156 C 49.035156 225.613281 60.347656 220.992188 72.429688 221.03125 L 73.105469 224.269531 C 73.492188 226.113281 75.300781 227.292969 77.144531 226.910156 C 78.988281 226.523438 80.171875 224.71875 79.785156 222.875 L 78.578125 217.109375 C 78.359375 215.625 78.25 214.113281 78.25 212.617188 C 78.25 195.800781 91.949219 182.117188 108.792969 182.117188 C 125.632812 182.117188 139.335938 195.800781 139.335938 212.617188 C 139.335938 226.765625 129.316406 239.277344 115.507812 242.371094 C 114.0625 242.695312 112.59375 242.914062 111.140625 243.03125 C 109.261719 243.175781 107.855469 244.8125 108 246.6875 C 108.140625 248.476562 109.636719 249.832031 111.398438 249.832031 C 111.488281 249.832031 111.578125 249.828125 111.667969 249.820312 C 112.507812 249.753906 113.351562 249.660156 114.191406 249.535156 C 116.085938 254.273438 117.140625 259.238281 117.332031 264.335938 C 117.621094 272.257812 115.824219 280.125 112.128906 287.082031 C 111.59375 288.089844 111.597656 289.300781 112.144531 290.304688 C 112.691406 291.308594 113.703125 291.972656 114.84375 292.074219 L 134.792969 293.828125 C 137.300781 294.046875 139.25 295.992188 139.332031 298.355469 C 139.421875 300.855469 137.539062 302.980469 135.050781 303.199219 L 127.285156 303.882812 C 110.027344 305.398438 92.9375 308.15625 79.972656 310.390625 C 77.242188 310.859375 74.441406 311.082031 71.644531 311.042969 C 47.847656 310.710938 27.921875 291.125 27.226562 267.382812 C 26.859375 254.816406 31.554688 243.019531 40.453125 234.160156 Z M 71.546875 317.855469 C 71.789062 317.859375 72.03125 317.859375 72.277344 317.859375 C 75.25 317.859375 78.226562 317.609375 81.136719 317.105469 C 93.964844 314.894531 110.875 312.164062 127.878906 310.667969 L 135.648438 309.984375 C 141.753906 309.449219 146.367188 304.238281 146.152344 298.113281 C 145.949219 292.324219 141.324219 287.5625 135.394531 287.039062 L 120.296875 285.710938 C 123.097656 278.894531 124.425781 271.511719 124.148438 264.085938 C 123.945312 258.523438 122.832031 253.105469 120.871094 247.914062 C 135.734375 242.820312 146.160156 228.570312 146.160156 212.617188 C 146.160156 192.046875 129.398438 175.304688 108.792969 175.304688 C 88.191406 175.304688 71.425781 192.046875 71.425781 212.617188 C 71.425781 213.148438 71.441406 213.679688 71.460938 214.214844 C 57.929688 214.414062 45.28125 219.726562 35.632812 229.335938 C 25.390625 239.539062 19.984375 253.121094 20.40625 267.582031 C 20.796875 280.914062 26.308594 293.460938 35.925781 302.914062 C 45.539062 312.363281 58.191406 317.667969 71.546875 317.855469 "/>
<g clip-path="url(#clip1)" clip-rule="nonzero">
<path style=" stroke:none;fill-rule:nonzero;fill:rgb(16.079712%,15.689087%,15.289307%);fill-opacity:1;" d="M 244.96875 90.195312 C 264.945312 90.195312 281.199219 106.425781 281.199219 126.375 L 281.199219 148.894531 L 216.613281 148.894531 L 216.613281 126.289062 C 216.613281 125.5 216.625 124.714844 216.648438 123.929688 C 216.648438 123.925781 216.648438 123.925781 216.648438 123.921875 C 216.648438 123.921875 216.648438 123.921875 216.648438 123.917969 L 216.675781 123.191406 C 216.675781 123.191406 216.675781 123.1875 216.675781 123.1875 C 216.699219 122.640625 216.722656 122.097656 216.753906 121.554688 C 216.753906 121.554688 216.753906 121.550781 216.753906 121.550781 C 216.769531 121.28125 216.785156 121.011719 216.804688 120.738281 C 216.804688 120.738281 216.808594 120.734375 216.808594 120.734375 C 216.839844 120.203125 216.882812 119.675781 216.925781 119.148438 L 216.996094 118.386719 C 217.054688 117.777344 217.121094 117.167969 217.191406 116.5625 C 217.191406 116.558594 217.191406 116.558594 217.191406 116.554688 L 217.246094 116.085938 C 217.34375 115.292969 217.453125 114.507812 217.578125 113.726562 C 217.578125 113.707031 217.589844 113.644531 217.59375 113.621094 C 217.59375 113.621094 217.59375 113.617188 217.59375 113.613281 C 217.707031 112.886719 217.832031 112.15625 217.964844 111.433594 L 218.066406 110.925781 C 218.183594 110.316406 218.300781 109.710938 218.433594 109.109375 C 218.433594 109.105469 218.433594 109.105469 218.433594 109.105469 L 218.546875 108.582031 C 218.6875 107.949219 218.835938 107.316406 218.988281 106.6875 C 218.992188 106.683594 218.988281 106.683594 218.992188 106.679688 C 218.992188 106.675781 218.996094 106.671875 218.996094 106.671875 L 219.074219 106.335938 C 219.652344 104.042969 220.339844 101.738281 221.121094 99.496094 C 221.128906 99.488281 221.128906 99.480469 221.128906 99.472656 C 221.132812 99.460938 221.136719 99.453125 221.140625 99.441406 L 221.179688 99.332031 C 221.425781 98.628906 221.679688 97.933594 221.945312 97.242188 L 222 97.09375 C 222 97.09375 222 97.09375 222 97.089844 C 222.003906 97.085938 222.007812 97.082031 222.007812 97.078125 C 222.34375 96.199219 222.699219 95.335938 223.066406 94.476562 C 223.132812 94.3125 223.199219 94.152344 223.269531 93.992188 C 223.640625 93.136719 224.023438 92.289062 224.417969 91.453125 C 224.464844 91.359375 224.511719 91.261719 224.554688 91.171875 C 224.710938 90.84375 224.882812 90.519531 225.042969 90.195312 Z M 209.859375 122.9375 C 209.859375 122.9375 209.859375 122.941406 209.859375 122.945312 L 209.847656 123.199219 C 209.84375 123.375 209.835938 123.550781 209.828125 123.726562 C 209.828125 123.726562 209.828125 123.730469 209.828125 123.730469 C 209.804688 124.582031 209.789062 125.433594 209.789062 126.289062 L 209.789062 179.457031 C 200.546875 181.472656 192.144531 186.441406 185.875 193.636719 C 178.886719 201.664062 175.039062 211.949219 175.039062 222.597656 C 175.039062 244.558594 191.226562 263.527344 212.695312 266.722656 C 212.863281 266.75 213.03125 266.757812 213.199219 266.757812 L 215.578125 266.757812 L 215.578125 274.730469 L 182.203125 274.730469 C 181.066406 274.730469 180.003906 275.296875 179.371094 276.242188 C 178.738281 277.1875 178.617188 278.386719 179.046875 279.4375 L 192.695312 312.539062 C 193.222656 313.8125 194.464844 314.648438 195.851562 314.648438 L 207.449219 314.648438 C 209.332031 314.648438 210.859375 313.125 210.859375 311.242188 C 210.859375 309.359375 209.332031 307.835938 207.449219 307.835938 L 198.132812 307.835938 L 187.296875 281.542969 L 215.578125 281.542969 L 215.578125 309.636719 C 215.578125 324.78125 227.917969 337.105469 243.085938 337.105469 L 352.132812 337.105469 C 354.015625 337.105469 355.542969 335.578125 355.542969 333.695312 L 355.542969 279.019531 C 355.542969 277.140625 354.015625 275.613281 352.132812 275.613281 C 350.246094 275.613281 348.71875 277.140625 348.71875 279.019531 L 348.71875 330.289062 L 243.085938 330.289062 C 231.679688 330.289062 222.402344 321.027344 222.402344 309.636719 L 222.402344 266.757812 L 352.132812 266.757812 C 354.015625 266.757812 355.542969 265.234375 355.542969 263.351562 L 355.542969 41.246094 C 355.542969 39.363281 354.015625 37.839844 352.132812 37.839844 C 350.246094 37.839844 348.71875 39.363281 348.71875 41.246094 L 348.71875 259.945312 L 213.460938 259.945312 C 195.429688 257.136719 181.863281 241.125 181.863281 222.597656 C 181.863281 204.238281 195.550781 188.363281 213.703125 185.660156 C 215.375 185.414062 216.613281 183.976562 216.613281 182.289062 L 216.613281 155.707031 L 284.609375 155.707031 C 286.496094 155.707031 288.023438 154.183594 288.023438 152.300781 L 288.023438 126.375 C 288.023438 102.671875 268.710938 83.382812 244.96875 83.382812 L 228.828125 83.382812 C 243.554688 59.742188 269.902344 44.652344 298.363281 44.652344 L 333.675781 44.652344 C 335.558594 44.652344 337.085938 43.125 337.085938 41.246094 C 337.085938 39.363281 335.558594 37.839844 333.675781 37.839844 L 298.363281 37.839844 C 280.085938 37.839844 262.539062 43.351562 247.617188 53.789062 C 235.421875 62.316406 225.703125 73.605469 219.132812 86.742188 C 218.9375 87.136719 218.738281 87.53125 218.542969 87.929688 C 218.332031 88.371094 218.125 88.816406 217.914062 89.265625 C 217.675781 89.785156 217.445312 90.304688 217.214844 90.828125 C 217.054688 91.1875 216.894531 91.550781 216.738281 91.914062 C 216.355469 92.824219 215.984375 93.734375 215.632812 94.644531 C 215.632812 94.648438 215.632812 94.648438 215.632812 94.648438 L 215.574219 94.800781 C 215.574219 94.804688 215.574219 94.804688 215.574219 94.804688 C 215.574219 94.804688 215.574219 94.808594 215.570312 94.808594 C 215.285156 95.5625 215.007812 96.316406 214.742188 97.082031 C 214.742188 97.082031 214.742188 97.082031 214.742188 97.085938 L 214.683594 97.25 C 214.679688 97.25 214.679688 97.25 214.679688 97.25 C 214.679688 97.253906 214.675781 97.257812 214.675781 97.261719 C 214.539062 97.65625 214.40625 98.058594 214.273438 98.457031 C 214.003906 99.28125 213.738281 100.109375 213.484375 100.945312 C 213.117188 102.183594 212.773438 103.429688 212.460938 104.675781 C 212.460938 104.675781 212.460938 104.675781 212.457031 104.679688 C 212.457031 104.679688 212.457031 104.683594 212.457031 104.683594 L 212.363281 105.0625 C 212.363281 105.066406 212.363281 105.066406 212.363281 105.070312 C 212.195312 105.746094 212.039062 106.421875 211.886719 107.105469 C 211.886719 107.105469 211.886719 107.105469 211.886719 107.109375 C 211.886719 107.109375 211.882812 107.109375 211.882812 107.109375 C 211.882812 107.109375 211.882812 107.113281 211.882812 107.113281 C 211.882812 107.117188 211.882812 107.117188 211.882812 107.117188 L 211.761719 107.679688 C 211.761719 107.679688 211.757812 107.679688 211.757812 107.679688 C 211.621094 108.332031 211.488281 108.988281 211.363281 109.644531 C 211.363281 109.648438 211.363281 109.648438 211.363281 109.648438 C 211.363281 109.652344 211.363281 109.652344 211.363281 109.652344 L 211.257812 110.191406 C 211.257812 110.191406 211.257812 110.195312 211.257812 110.195312 C 211.257812 110.195312 211.257812 110.195312 211.257812 110.199219 C 211.109375 110.984375 210.976562 111.769531 210.851562 112.5625 C 210.851562 112.585938 210.835938 112.664062 210.832031 112.683594 C 210.832031 112.683594 210.832031 112.6875 210.832031 112.6875 C 210.699219 113.535156 210.582031 114.386719 210.476562 115.242188 C 210.476562 115.242188 210.476562 115.246094 210.476562 115.25 L 210.417969 115.75 C 210.339844 116.410156 210.265625 117.074219 210.203125 117.734375 L 210.203125 117.738281 L 210.128906 118.554688 C 210.128906 118.554688 210.128906 118.558594 210.128906 118.558594 C 210.128906 118.558594 210.128906 118.558594 210.128906 118.5625 C 210.078125 119.136719 210.035156 119.710938 209.996094 120.285156 C 209.996094 120.285156 209.996094 120.285156 209.996094 120.289062 C 209.976562 120.582031 209.960938 120.871094 209.941406 121.164062 C 209.941406 121.167969 209.941406 121.167969 209.941406 121.171875 C 209.90625 121.757812 209.878906 122.347656 209.859375 122.9375 "/>
</g>
<path style=" stroke:none;fill-rule:nonzero;fill:rgb(16.079712%,15.689087%,15.289307%);fill-opacity:1;" d="M 165.410156 304.628906 C 162.042969 304.628906 159.296875 301.890625 159.296875 298.523438 C 159.296875 295.160156 162.042969 292.421875 165.410156 292.421875 C 168.777344 292.421875 171.523438 295.160156 171.523438 298.523438 C 171.523438 301.890625 168.777344 304.628906 165.410156 304.628906 Z M 165.410156 285.609375 C 158.277344 285.609375 152.476562 291.402344 152.476562 298.523438 C 152.476562 305.648438 158.277344 311.441406 165.410156 311.441406 C 172.542969 311.441406 178.34375 305.648438 178.34375 298.523438 C 178.34375 291.402344 172.542969 285.609375 165.410156 285.609375 "/>
<path style=" stroke:none;fill-rule:nonzero;fill:rgb(16.079712%,15.689087%,15.289307%);fill-opacity:1;" d="M 53.441406 89.621094 C 53.441406 79.125 61.992188 70.589844 72.503906 70.589844 C 83.007812 70.589844 91.558594 79.125 91.558594 89.621094 C 91.558594 100.117188 83.007812 108.652344 72.503906 108.652344 C 61.992188 108.652344 53.441406 100.117188 53.441406 89.621094 Z M 98.382812 89.621094 C 98.382812 75.371094 86.773438 63.777344 72.503906 63.777344 C 58.230469 63.777344 46.621094 75.371094 46.621094 89.621094 C 46.621094 103.871094 58.230469 115.464844 72.503906 115.464844 C 86.773438 115.464844 98.382812 103.871094 98.382812 89.621094 "/>
<path style=" stroke:none;fill-rule:nonzero;fill:rgb(16.079712%,15.689087%,15.289307%);fill-opacity:1;" d="M 145.546875 153.796875 C 137.792969 153.796875 131.484375 147.492188 131.484375 139.75 C 131.484375 132.003906 137.792969 125.703125 145.546875 125.703125 C 153.304688 125.703125 159.617188 132.003906 159.617188 139.75 C 159.617188 147.492188 153.304688 153.796875 145.546875 153.796875 Z M 145.546875 118.890625 C 134.03125 118.890625 124.660156 128.25 124.660156 139.75 C 124.660156 151.25 134.03125 160.609375 145.546875 160.609375 C 157.066406 160.609375 166.4375 151.25 166.4375 139.75 C 166.4375 128.25 157.066406 118.890625 145.546875 118.890625 "/>
</g>
</svg>
