<?xml version="1.0" encoding="UTF-8"?>
<svg xmlns="http://www.w3.org/2000/svg" xmlns:xlink="http://www.w3.org/1999/xlink" width="375pt" height="374.999991pt" viewBox="0 0 375 374.999991" version="1.2">
<defs>
<clipPath id="clip1">
  <path d="M 63.246094 63.246094 L 311.496094 63.246094 L 311.496094 311.496094 L 63.246094 311.496094 Z M 63.246094 63.246094 "/>
</clipPath>
<clipPath id="clip2">
  <path d="M 145 112.5 L 230 112.5 L 230 245 L 145 245 Z M 145 112.5 "/>
</clipPath>
<clipPath id="clip3">
  <path d="M 115.5 214 L 259.5 214 L 259.5 262.5 L 115.5 262.5 Z M 115.5 214 "/>
</clipPath>
</defs>
<g id="surface1">
<g clip-path="url(#clip1)" clip-rule="nonzero">
<path style=" stroke:none;fill-rule:nonzero;fill:rgb(100%,100%,100%);fill-opacity:1;" d="M 187.371094 75.660156 C 248.976562 75.660156 299.085938 125.769531 299.085938 187.371094 C 299.085938 248.976562 248.976562 299.085938 187.371094 299.085938 C 125.769531 299.085938 75.660156 248.976562 75.660156 187.371094 C 75.660156 125.769531 125.769531 75.660156 187.371094 75.660156 M 187.371094 63.246094 C 118.820312 63.246094 63.246094 118.820312 63.246094 187.371094 C 63.246094 255.925781 118.820312 311.496094 187.371094 311.496094 C 255.925781 311.496094 311.496094 255.925781 311.496094 187.371094 C 311.496094 118.820312 255.925781 63.246094 187.371094 63.246094 Z M 187.371094 63.246094 "/>
</g>
<g clip-path="url(#clip2)" clip-rule="nonzero">
<path style=" stroke:none;fill-rule:nonzero;fill:rgb(100%,100%,100%);fill-opacity:1;" d="M 187.5 112.5625 C 164.460938 112.5625 145.714844 131.308594 145.714844 154.351562 C 145.714844 191.085938 183.675781 240.941406 185.289062 243.046875 C 185.816406 243.730469 186.632812 244.132812 187.496094 244.132812 C 187.5 244.132812 187.503906 244.132812 187.507812 244.132812 C 188.378906 244.132812 189.199219 243.71875 189.71875 243.027344 C 191.335938 240.890625 229.285156 190.238281 229.285156 154.351562 C 229.285156 131.308594 210.542969 112.5625 187.5 112.5625 Z M 187.5 175.351562 C 177.5625 175.351562 169.5 167.289062 169.5 157.351562 C 169.5 147.410156 177.5625 139.351562 187.5 139.351562 C 197.4375 139.351562 205.5 147.410156 205.5 157.351562 C 205.5 167.289062 197.4375 175.351562 187.5 175.351562 Z M 187.5 175.351562 "/>
</g>
<g clip-path="url(#clip3)" clip-rule="nonzero">
<path style=" stroke:none;fill-rule:nonzero;fill:rgb(100%,100%,100%);fill-opacity:1;" d="M 215.265625 214.546875 C 205.964844 231.222656 196.511719 243.988281 194.515625 246.636719 C 192.871094 248.820312 190.261719 250.125 187.5 250.132812 C 184.785156 250.132812 182.179688 248.847656 180.535156 246.699219 C 179.707031 245.621094 169.621094 232.375 159.679688 214.566406 C 136.003906 217.847656 116.5625 225.367188 115.597656 236.691406 C 115.53125 236.9375 115.5 237.1875 115.5 237.449219 C 115.5 253.625 152.59375 262.351562 187.5 262.351562 C 221.761719 262.351562 258.132812 253.941406 259.457031 238.339844 C 259.519531 238.097656 259.558594 237.847656 259.558594 237.582031 C 259.558594 225.734375 239.636719 217.90625 215.265625 214.546875 Z M 215.265625 214.546875 "/>
</g>
</g>
</svg>
