<?xml version="1.0" encoding="UTF-8"?>
<svg xmlns="http://www.w3.org/2000/svg" xmlns:xlink="http://www.w3.org/1999/xlink" width="375pt" height="374.999991pt" viewBox="0 0 375 374.999991" version="1.2">
<defs>
<clipPath id="clip1">
  <path d="M 63.246094 63.246094 L 311.496094 63.246094 L 311.496094 311.496094 L 63.246094 311.496094 Z M 63.246094 63.246094 "/>
</clipPath>
<clipPath id="clip2">
  <path d="M 112.5 123.816406 L 262.5 123.816406 L 262.5 251.316406 L 112.5 251.316406 Z M 112.5 123.816406 "/>
</clipPath>
</defs>
<g id="surface1">
<g clip-path="url(#clip1)" clip-rule="nonzero">
<path style=" stroke:none;fill-rule:nonzero;fill:rgb(100%,100%,100%);fill-opacity:1;" d="M 187.371094 75.660156 C 248.976562 75.660156 299.085938 125.769531 299.085938 187.371094 C 299.085938 248.976562 248.976562 299.085938 187.371094 299.085938 C 125.769531 299.085938 75.660156 248.976562 75.660156 187.371094 C 75.660156 125.769531 125.769531 75.660156 187.371094 75.660156 M 187.371094 63.246094 C 118.820312 63.246094 63.246094 118.820312 63.246094 187.371094 C 63.246094 255.925781 118.820312 311.496094 187.371094 311.496094 C 255.925781 311.496094 311.496094 255.925781 311.496094 187.371094 C 311.496094 118.820312 255.925781 63.246094 187.371094 63.246094 Z M 187.371094 63.246094 "/>
</g>
<g clip-path="url(#clip2)" clip-rule="nonzero">
<path style=" stroke:none;fill-rule:nonzero;fill:rgb(100%,100%,100%);fill-opacity:1;" d="M 172.515625 251.316406 L 172.515625 206.316406 L 202.484375 206.316406 L 202.484375 251.316406 L 239.941406 251.316406 L 239.941406 191.316406 L 262.417969 191.316406 L 187.5 123.816406 L 112.582031 191.316406 L 135.058594 191.316406 L 135.058594 251.316406 Z M 172.515625 251.316406 "/>
</g>
</g>
</svg>
