<?xml version="1.0" encoding="UTF-8"?>
<svg xmlns="http://www.w3.org/2000/svg" xmlns:xlink="http://www.w3.org/1999/xlink" width="375pt" height="374.999991pt" viewBox="0 0 375 374.999991" version="1.2">
<defs>
<clipPath id="clip1">
  <path d="M 171 229 L 316.59375 229 L 316.59375 375 L 171 375 Z M 171 229 "/>
</clipPath>
<clipPath id="clip2">
  <path d="M 58.59375 138 L 109 138 L 109 264 L 58.59375 264 Z M 58.59375 138 "/>
</clipPath>
</defs>
<g id="surface1">
<g clip-path="url(#clip1)" clip-rule="nonzero">
<path style=" stroke:none;fill-rule:nonzero;fill:rgb(10.5896%,9.408569%,10.5896%);fill-opacity:1;" d="M 244.058594 347.433594 C 219.023438 347.433594 198.730469 327.171875 198.730469 302.171875 C 198.730469 277.171875 219.023438 256.90625 244.058594 256.90625 C 269.097656 256.90625 289.390625 277.171875 289.390625 302.171875 C 289.390625 327.171875 269.097656 347.433594 244.058594 347.433594 Z M 314.375 301.042969 L 314.367188 301.347656 L 314.363281 301.347656 C 314.371094 301.542969 314.308594 301.703125 314.203125 301.773438 L 314.003906 301.777344 C 313.90625 301.722656 313.851562 301.582031 313.847656 301.394531 C 313.828125 300.652344 313.976562 300.097656 314.292969 299.742188 C 314.648438 299.339844 315.117188 299.335938 315.117188 299.335938 L 316.765625 299.269531 C 316.765625 299.269531 316.769531 298.808594 316.71875 298.121094 C 316.667969 297.433594 316.597656 296.515625 316.527344 295.59375 C 316.480469 294.671875 316.332031 293.761719 316.253906 293.078125 C 316.160156 292.390625 316.105469 291.933594 316.105469 291.933594 L 315.125 292.074219 C 315.125 292.074219 315.070312 291.535156 314.972656 290.996094 C 314.882812 290.460938 314.78125 289.929688 314.78125 289.929688 L 315.757812 289.757812 C 315.757812 289.757812 315.679688 289.304688 315.554688 288.625 C 315.449219 287.945312 315.261719 287.039062 315.039062 286.140625 C 314.828125 285.25 314.640625 284.34375 314.453125 283.683594 C 314.261719 283.015625 314.140625 282.570312 314.140625 282.570312 L 312.089844 283.144531 L 312.089844 283.140625 L 311.769531 283.234375 C 311.832031 283.425781 311.816406 283.59375 311.726562 283.691406 L 311.535156 283.746094 C 311.429688 283.71875 311.339844 283.59375 311.285156 283.417969 C 311.085938 282.699219 311.089844 282.125 311.308594 281.699219 C 311.554688 281.21875 312.003906 281.089844 312.003906 281.089844 L 313.578125 280.601562 C 313.578125 280.601562 312.984375 278.859375 312.394531 277.113281 C 312.054688 276.253906 311.71875 275.394531 311.460938 274.753906 C 311.210938 274.113281 311.027344 273.691406 311.027344 273.691406 L 310.121094 274.078125 L 309.21875 272.09375 L 310.121094 271.679688 C 310.121094 271.679688 309.929688 271.257812 309.644531 270.628906 C 309.328125 270.019531 308.90625 269.199219 308.488281 268.375 C 308.082031 267.542969 307.605469 266.757812 307.265625 266.15625 C 306.917969 265.554688 306.6875 265.160156 306.6875 265.160156 L 304.863281 266.242188 L 304.578125 266.410156 C 304.683594 266.582031 304.703125 266.75 304.644531 266.867188 L 304.472656 266.972656 C 304.363281 266.96875 304.246094 266.878906 304.152344 266.710938 C 303.796875 266.0625 303.625 265.519531 303.71875 265.058594 C 303.816406 264.535156 304.21875 264.296875 304.21875 264.296875 L 305.617188 263.417969 C 305.617188 263.417969 305.363281 263.027344 304.988281 262.445312 C 304.628906 261.855469 304.105469 261.097656 303.5625 260.351562 C 302.519531 258.832031 301.363281 257.394531 301.363281 257.394531 L 300.585938 258.007812 C 300.585938 258.007812 300.25 257.578125 299.910156 257.152344 C 299.582031 256.71875 299.222656 256.308594 299.226562 256.308594 L 299.988281 255.671875 C 299.988281 255.671875 299.679688 255.328125 299.230469 254.804688 C 298.769531 254.289062 298.191406 253.570312 297.550781 252.90625 C 296.917969 252.246094 296.273438 251.574219 295.796875 251.074219 C 295.328125 250.574219 294.980469 250.269531 294.980469 250.269531 L 293.492188 251.78125 L 293.261719 252.019531 C 293.410156 252.152344 293.480469 252.308594 293.453125 252.433594 L 293.3125 252.582031 C 293.207031 252.605469 293.066406 252.546875 292.933594 252.417969 C 292.390625 251.902344 292.105469 251.40625 292.082031 250.933594 C 292.046875 250.398438 292.375 250.0625 292.375 250.0625 L 293.496094 248.855469 C 293.496094 248.855469 293.175781 248.519531 292.644531 248.078125 C 292.125 247.621094 291.425781 247.019531 290.726562 246.417969 C 289.308594 245.246094 287.839844 244.125 287.839844 244.125 L 287.246094 244.914062 C 287.246094 244.914062 286.8125 244.582031 286.367188 244.273438 C 285.921875 243.957031 285.480469 243.640625 285.480469 243.640625 L 286.054688 242.832031 C 286.054688 242.835938 284.5625 241.75 282.988281 240.78125 C 282.21875 240.273438 281.433594 239.792969 280.824219 239.460938 C 280.226562 239.117188 279.824219 238.886719 279.824219 238.886719 L 278.777344 240.734375 L 278.738281 240.808594 L 278.703125 240.871094 L 278.621094 241.023438 C 278.792969 241.117188 278.898438 241.253906 278.90625 241.378906 L 278.8125 241.558594 C 278.710938 241.609375 278.5625 241.585938 278.402344 241.492188 C 277.757812 241.125 277.359375 240.695312 277.203125 240.261719 C 277.027344 239.765625 277.257812 239.359375 277.257812 239.359375 L 278.03125 237.898438 C 278.03125 237.898438 277.617188 237.695312 277.003906 237.375 C 276.386719 237.0625 275.570312 236.625 274.722656 236.265625 C 273.882812 235.882812 273.046875 235.503906 272.414062 235.222656 C 271.765625 234.964844 271.339844 234.792969 271.339844 234.792969 L 270.964844 235.710938 L 268.945312 234.917969 L 269.285156 233.988281 C 269.285156 233.988281 268.851562 233.824219 268.199219 233.609375 C 267.542969 233.386719 266.667969 233.09375 265.796875 232.796875 C 264.015625 232.289062 262.242188 231.785156 262.242188 231.785156 L 261.714844 233.84375 L 261.710938 233.84375 L 261.636719 234.160156 C 261.828125 234.210938 261.964844 234.3125 262.003906 234.441406 L 261.957031 234.636719 C 261.878906 234.710938 261.730469 234.722656 261.550781 234.671875 C 260.824219 234.5 260.328125 234.222656 260.058594 233.828125 C 259.761719 233.386719 259.882812 232.929688 259.882812 232.929688 L 260.242188 231.328125 C 260.242188 231.328125 258.453125 230.890625 256.625 230.597656 C 255.722656 230.433594 254.8125 230.273438 254.125 230.207031 C 253.4375 230.117188 252.980469 230.0625 252.980469 230.0625 L 252.863281 231.042969 C 252.863281 231.042969 252.320312 230.972656 251.777344 230.90625 C 251.242188 230.824219 250.695312 230.804688 250.695312 230.804688 L 250.785156 229.816406 C 250.785156 229.816406 250.324219 229.78125 249.632812 229.730469 C 248.949219 229.695312 248.027344 229.574219 247.105469 229.574219 C 246.183594 229.550781 245.261719 229.523438 244.570312 229.511719 C 243.882812 229.480469 243.417969 229.511719 243.417969 229.515625 L 243.4375 231.640625 L 243.425781 231.636719 L 243.429688 231.96875 C 243.632812 231.953125 243.789062 232.015625 243.859375 232.125 L 243.867188 232.324219 C 243.808594 232.417969 243.667969 232.476562 243.480469 232.480469 C 242.738281 232.5 242.183594 232.351562 241.828125 232.03125 C 241.421875 231.679688 241.421875 231.214844 241.421875 231.214844 L 241.359375 229.5625 C 241.359375 229.5625 240.898438 229.578125 240.207031 229.597656 C 239.519531 229.652344 238.601562 229.722656 237.679688 229.792969 C 236.757812 229.84375 235.84375 229.96875 235.160156 230.058594 C 234.472656 230.144531 234.015625 230.203125 234.015625 230.203125 L 234.148438 231.183594 C 234.148438 231.183594 233.609375 231.253906 233.070312 231.320312 C 232.535156 231.417969 231.996094 231.515625 231.996094 231.515625 L 231.832031 230.535156 C 231.832031 230.535156 231.375 230.621094 230.699219 230.742188 C 230.011719 230.855469 229.105469 231.019531 228.210938 231.242188 C 227.308594 231.457031 226.414062 231.664062 225.742188 231.824219 C 225.074219 232.011719 224.632812 232.136719 224.632812 232.136719 L 225.195312 234.183594 L 225.289062 234.496094 C 225.480469 234.441406 225.644531 234.457031 225.742188 234.546875 L 225.796875 234.738281 C 225.769531 234.847656 225.644531 234.933594 225.464844 234.984375 C 224.75 235.1875 224.171875 235.183594 223.75 234.964844 C 223.265625 234.722656 223.144531 234.269531 223.144531 234.269531 L 222.65625 232.695312 C 222.65625 232.695312 222.214844 232.828125 221.5625 233.054688 C 220.90625 233.277344 220.03125 233.566406 219.160156 233.863281 C 217.4375 234.539062 215.722656 235.210938 215.722656 235.210938 L 216.109375 236.121094 L 214.121094 237.019531 L 213.710938 236.121094 C 213.710938 236.121094 213.289062 236.3125 212.660156 236.59375 C 212.039062 236.90625 211.222656 237.324219 210.398438 237.742188 C 209.566406 238.148438 208.769531 238.605469 208.167969 238.953125 C 207.570312 239.300781 207.171875 239.53125 207.171875 239.53125 L 208.253906 241.359375 L 208.25 241.359375 L 208.417969 241.640625 C 208.589844 241.535156 208.757812 241.515625 208.871094 241.570312 L 208.980469 241.746094 C 208.976562 241.855469 208.882812 241.96875 208.71875 242.066406 C 208.070312 242.425781 207.515625 242.574219 207.054688 242.492188 C 206.535156 242.390625 206.300781 241.992188 206.300781 241.992188 L 205.421875 240.589844 C 205.421875 240.589844 205.035156 240.84375 204.449219 241.214844 C 203.863281 241.582031 203.089844 242.082031 202.347656 242.632812 C 201.601562 243.167969 200.835938 243.6875 200.289062 244.109375 C 199.75 244.539062 199.386719 244.820312 199.386719 244.820312 L 199.992188 245.601562 L 198.28125 246.953125 L 197.652344 246.1875 C 197.652344 246.1875 196.246094 247.382812 194.875 248.617188 C 194.207031 249.25 193.535156 249.886719 193.039062 250.359375 C 192.527344 250.832031 192.222656 251.175781 192.222656 251.175781 L 193.734375 252.664062 L 193.96875 252.894531 C 194.105469 252.746094 194.261719 252.675781 194.382812 252.703125 L 194.53125 252.84375 C 194.558594 252.949219 194.496094 253.089844 194.367188 253.226562 C 193.855469 253.761719 193.359375 254.046875 192.882812 254.078125 C 192.347656 254.105469 192.015625 253.78125 192.015625 253.78125 L 190.808594 252.65625 C 190.808594 252.65625 190.480469 252.980469 190.019531 253.496094 C 189.566406 254.019531 188.964844 254.71875 188.355469 255.410156 C 187.742188 256.097656 187.203125 256.847656 186.765625 257.382812 C 186.339844 257.921875 186.054688 258.285156 186.054688 258.285156 L 186.839844 258.882812 C 186.839844 258.882812 186.5 259.304688 186.195312 259.753906 C 185.875 260.199219 185.5625 260.640625 185.5625 260.640625 L 184.753906 260.070312 C 184.753906 260.070312 183.65625 261.550781 182.691406 263.121094 C 182.1875 263.894531 181.691406 264.671875 181.359375 265.277344 C 181.015625 265.878906 180.78125 266.277344 180.78125 266.277344 L 182.628906 267.328125 L 182.695312 267.367188 L 182.765625 267.40625 L 182.765625 267.402344 L 182.917969 267.488281 C 183.015625 267.308594 183.148438 267.207031 183.277344 267.199219 L 183.457031 267.296875 C 183.507812 267.390625 183.480469 267.539062 183.390625 267.707031 C 183.023438 268.351562 182.589844 268.738281 182.15625 268.898438 C 181.652344 269.066406 181.246094 268.839844 181.246094 268.839844 L 179.785156 268.0625 C 179.785156 268.0625 179.578125 268.472656 179.261719 269.089844 C 178.957031 269.707031 178.503906 270.511719 178.140625 271.359375 C 177.761719 272.199219 177.378906 273.039062 177.097656 273.667969 C 176.816406 274.304688 176.660156 274.738281 176.660156 274.738281 L 177.578125 275.109375 L 176.78125 277.132812 L 175.851562 276.785156 C 175.851562 276.785156 175.675781 277.214844 175.457031 277.867188 C 175.238281 278.527344 174.941406 279.394531 174.648438 280.273438 C 174.140625 282.039062 173.625 283.808594 173.625 283.808594 L 175.679688 284.34375 L 175.679688 284.351562 L 176.003906 284.429688 C 176.050781 284.238281 176.15625 284.097656 176.285156 284.0625 L 176.480469 284.105469 C 176.554688 284.183594 176.566406 284.335938 176.515625 284.515625 C 176.324219 285.234375 176.058594 285.730469 175.660156 285.992188 C 175.214844 286.289062 174.765625 286.171875 174.765625 286.171875 L 173.152344 285.800781 C 173.15625 285.800781 172.707031 287.589844 172.417969 289.414062 C 172.257812 290.320312 172.082031 291.222656 172.011719 291.914062 C 171.925781 292.597656 171.867188 293.054688 171.867188 293.054688 L 172.851562 293.175781 C 172.851562 293.175781 172.78125 293.71875 172.714844 294.257812 C 172.632812 294.796875 172.601562 295.339844 172.601562 295.339844 L 171.613281 295.246094 C 171.613281 295.246094 171.578125 295.707031 171.527344 296.390625 C 171.484375 297.082031 171.378906 298 171.355469 298.921875 C 171.335938 299.84375 171.3125 300.761719 171.296875 301.453125 C 171.269531 302.140625 171.285156 302.601562 171.285156 302.601562 L 173.570312 302.589844 L 173.570312 302.585938 L 173.742188 302.582031 C 173.734375 302.382812 173.792969 302.226562 173.902344 302.152344 L 174.105469 302.148438 C 174.195312 302.210938 174.253906 302.351562 174.257812 302.539062 C 174.277344 303.277344 174.125 303.832031 173.8125 304.1875 C 173.453125 304.585938 172.992188 304.589844 172.992188 304.589844 L 171.339844 304.644531 C 171.339844 304.644531 171.347656 305.105469 171.371094 305.796875 C 171.417969 306.480469 171.488281 307.402344 171.554688 308.320312 C 171.609375 309.242188 171.710938 310.15625 171.8125 310.839844 C 171.898438 311.527344 171.957031 311.984375 171.957031 311.984375 L 172.9375 311.847656 C 172.9375 311.847656 173.007812 312.390625 173.074219 312.929688 C 173.164062 313.464844 173.257812 314 173.257812 314 L 172.277344 314.160156 C 172.277344 314.160156 172.363281 314.613281 172.484375 315.300781 C 172.605469 315.976562 172.75 316.886719 172.976562 317.78125 C 173.183594 318.679688 173.390625 319.574219 173.550781 320.25 C 173.734375 320.917969 173.859375 321.359375 173.859375 321.359375 L 175.914062 320.800781 L 176.226562 320.707031 C 176.164062 320.519531 176.1875 320.355469 176.273438 320.253906 L 176.472656 320.199219 C 176.570312 320.230469 176.664062 320.355469 176.714844 320.53125 C 176.917969 321.25 176.910156 321.820312 176.695312 322.242188 C 176.449219 322.726562 176 322.847656 176 322.847656 L 174.417969 323.328125 C 174.417969 323.328125 174.535156 323.773438 174.769531 324.421875 C 174.988281 325.082031 175.285156 325.953125 175.582031 326.828125 C 176.222656 328.554688 176.917969 330.257812 176.917969 330.257812 L 177.832031 329.875 C 177.832031 329.875 178.042969 330.378906 178.269531 330.871094 C 178.492188 331.367188 178.71875 331.863281 178.71875 331.863281 L 177.816406 332.273438 C 177.816406 332.273438 178.007812 332.691406 178.292969 333.320312 C 178.574219 333.953125 179.019531 334.761719 179.429688 335.585938 C 179.839844 336.414062 180.28125 337.21875 180.640625 337.8125 C 180.984375 338.414062 181.210938 338.8125 181.210938 338.8125 L 183.046875 337.738281 L 183.328125 337.574219 C 183.230469 337.402344 183.203125 337.234375 183.265625 337.121094 L 183.433594 337.011719 C 183.546875 337.015625 183.660156 337.113281 183.757812 337.277344 C 184.128906 337.917969 184.253906 338.480469 184.175781 338.9375 C 184.070312 339.457031 183.671875 339.695312 183.671875 339.695312 L 182.269531 340.570312 C 182.269531 340.570312 182.519531 340.953125 182.890625 341.539062 C 183.269531 342.117188 183.753906 342.898438 184.304688 343.640625 C 184.835938 344.390625 185.375 345.140625 185.773438 345.703125 C 186.203125 346.246094 186.488281 346.609375 186.488281 346.609375 L 187.269531 346.003906 L 188.617188 347.714844 L 187.851562 348.34375 C 187.851562 348.34375 189.058594 349.734375 190.265625 351.125 C 190.902344 351.792969 191.539062 352.460938 192.015625 352.957031 C 192.492188 353.460938 192.824219 353.78125 192.824219 353.78125 L 194.320312 352.273438 L 194.324219 352.273438 L 194.550781 352.035156 C 194.402344 351.90625 194.335938 351.75 194.367188 351.621094 L 194.503906 351.472656 C 194.613281 351.453125 194.746094 351.511719 194.882812 351.640625 C 195.425781 352.15625 195.707031 352.652344 195.734375 353.125 C 195.765625 353.660156 195.4375 353.992188 195.4375 353.992188 L 194.308594 355.195312 C 194.308594 355.195312 194.640625 355.507812 195.144531 355.984375 C 195.667969 356.4375 196.363281 357.042969 197.0625 357.644531 C 197.746094 358.261719 198.484375 358.8125 199.027344 359.242188 C 199.574219 359.667969 199.9375 359.957031 199.9375 359.957031 L 200.535156 359.171875 C 200.535156 359.171875 200.953125 359.519531 201.398438 359.828125 C 201.84375 360.144531 202.289062 360.457031 202.289062 360.457031 L 201.714844 361.261719 C 201.714844 361.261719 202.089844 361.527344 202.652344 361.929688 C 203.207031 362.34375 203.984375 362.835938 204.761719 363.328125 C 206.300781 364.359375 207.917969 365.242188 207.917969 365.242188 L 208.972656 363.402344 L 208.976562 363.402344 L 209.019531 363.324219 L 209.050781 363.265625 L 209.136719 363.113281 C 208.960938 363.019531 208.855469 362.886719 208.851562 362.757812 L 208.945312 362.578125 C 209.042969 362.527344 209.191406 362.550781 209.359375 362.648438 C 210 363.015625 210.398438 363.433594 210.542969 363.890625 C 210.714844 364.386719 210.484375 364.792969 210.484375 364.792969 L 209.703125 366.25 C 209.703125 366.25 210.113281 366.460938 210.730469 366.769531 C 211.347656 367.078125 212.152344 367.53125 213 367.902344 C 213.839844 368.285156 214.675781 368.664062 215.3125 368.945312 C 215.9375 369.242188 216.371094 369.390625 216.371094 369.390625 L 216.753906 368.476562 L 218.777344 369.273438 L 218.429688 370.199219 C 218.429688 370.199219 218.851562 370.386719 219.511719 370.597656 C 220.167969 370.820312 221.039062 371.113281 221.914062 371.410156 C 222.785156 371.710938 223.683594 371.929688 224.347656 372.128906 C 225.011719 372.316406 225.457031 372.441406 225.457031 372.441406 L 226 370.390625 L 226.082031 370.070312 C 225.886719 370.019531 225.753906 369.914062 225.714844 369.792969 L 225.761719 369.597656 C 225.84375 369.523438 225.992188 369.507812 226.167969 369.558594 C 226.886719 369.769531 227.386719 370.019531 227.644531 370.425781 C 227.941406 370.867188 227.824219 371.320312 227.824219 371.320312 L 227.449219 372.925781 C 227.449219 372.925781 227.898438 373.027344 228.570312 373.179688 C 229.246094 373.355469 230.152344 373.507812 231.0625 373.667969 C 232.875 374.027344 234.707031 374.234375 234.707031 374.234375 L 234.835938 373.25 C 234.835938 373.25 235.371094 373.316406 235.914062 373.386719 C 236.453125 373.460938 236.996094 373.507812 236.996094 373.507812 L 236.902344 374.492188 C 236.902344 374.492188 238.742188 374.625 240.578125 374.761719 C 241.5 374.78125 242.421875 374.808594 243.113281 374.820312 C 243.808594 374.847656 244.265625 374.84375 244.265625 374.84375 L 244.261719 372.714844 L 244.269531 372.71875 L 244.265625 372.390625 C 244.070312 372.402344 243.90625 372.332031 243.835938 372.222656 L 243.832031 372.015625 C 243.894531 371.925781 244.035156 371.882812 244.222656 371.878906 C 244.964844 371.855469 245.519531 372.007812 245.875 372.320312 C 246.273438 372.675781 246.273438 373.140625 246.273438 373.140625 L 246.324219 374.789062 C 246.324219 374.789062 246.785156 374.777344 247.476562 374.765625 C 248.167969 374.742188 249.085938 374.648438 250.003906 374.585938 C 250.925781 374.523438 251.847656 374.441406 252.53125 374.339844 C 253.214844 374.253906 253.675781 374.199219 253.675781 374.199219 L 253.546875 373.214844 C 253.546875 373.214844 254.085938 373.144531 254.625 373.082031 C 255.164062 373.019531 255.699219 372.90625 255.699219 372.90625 L 255.859375 373.882812 C 255.859375 373.882812 256.3125 373.800781 256.992188 373.679688 C 257.675781 373.546875 258.59375 373.421875 259.484375 373.195312 C 260.382812 372.988281 261.28125 372.78125 261.960938 372.621094 C 262.628906 372.464844 263.074219 372.328125 263.074219 372.328125 L 262.519531 370.277344 L 262.425781 369.957031 C 262.238281 370.019531 262.070312 369.996094 261.972656 369.914062 L 261.917969 369.71875 C 261.953125 369.613281 262.070312 369.523438 262.253906 369.472656 C 262.96875 369.269531 263.542969 369.277344 263.964844 369.496094 C 264.445312 369.734375 264.566406 370.1875 264.566406 370.1875 L 265.042969 371.769531 C 265.042969 371.769531 265.492188 371.660156 266.144531 371.429688 C 266.804688 371.210938 267.675781 370.914062 268.546875 370.617188 C 269.425781 370.332031 270.269531 369.957031 270.917969 369.714844 C 271.566406 369.460938 271.988281 369.289062 271.988281 369.289062 L 271.613281 368.378906 C 271.613281 368.378906 272.121094 368.183594 272.609375 367.949219 C 273.105469 367.726562 273.605469 367.503906 273.605469 367.503906 L 274.011719 368.402344 C 274.011719 368.402344 275.707031 367.671875 277.335938 366.800781 C 278.15625 366.386719 278.976562 365.964844 279.570312 365.605469 C 280.167969 365.261719 280.570312 365.03125 280.570312 365.03125 L 279.5 363.199219 L 279.421875 363.0625 L 279.421875 363.058594 L 279.335938 362.910156 C 279.164062 363.015625 278.996094 363.035156 278.882812 362.980469 L 278.773438 362.804688 C 278.78125 362.695312 278.871094 362.578125 279.035156 362.488281 C 279.675781 362.113281 280.25 361.992188 280.707031 362.078125 C 281.226562 362.175781 281.460938 362.582031 281.460938 362.582031 L 282.332031 363.984375 C 282.332031 363.984375 282.71875 363.734375 283.300781 363.363281 C 283.878906 362.984375 284.671875 362.511719 285.414062 361.964844 C 286.167969 361.425781 286.921875 360.894531 287.480469 360.492188 C 288.027344 360.070312 288.394531 359.785156 288.394531 359.785156 L 287.789062 359.007812 L 289.503906 357.660156 L 290.128906 358.425781 C 290.128906 358.425781 290.492188 358.144531 291.011719 357.683594 C 291.535156 357.230469 292.230469 356.628906 292.929688 356.023438 C 294.261719 354.753906 295.597656 353.484375 295.597656 353.484375 L 294.089844 351.984375 L 294.089844 351.980469 L 293.855469 351.753906 C 293.722656 351.902344 293.558594 351.957031 293.429688 351.933594 L 293.285156 351.792969 C 293.261719 351.683594 293.324219 351.550781 293.460938 351.417969 C 293.972656 350.878906 294.46875 350.597656 294.945312 350.570312 C 295.480469 350.539062 295.8125 350.871094 295.8125 350.871094 L 297.011719 352 C 297.011719 352 297.332031 351.671875 297.808594 351.167969 C 298.261719 350.648438 298.867188 349.953125 299.472656 349.257812 C 300.089844 348.574219 300.660156 347.847656 301.082031 347.300781 C 301.511719 346.757812 301.796875 346.398438 301.796875 346.398438 L 301.007812 345.796875 C 301.007812 345.796875 301.34375 345.363281 301.675781 344.9375 C 301.992188 344.492188 302.3125 344.050781 302.3125 344.050781 L 303.109375 344.625 C 303.109375 344.625 303.378906 344.25 303.78125 343.6875 C 304.191406 343.132812 304.699219 342.367188 305.195312 341.585938 C 306.21875 340.050781 307.117188 338.441406 307.117188 338.441406 L 305.277344 337.382812 L 305.160156 337.316406 L 305.140625 337.304688 L 304.988281 337.21875 C 304.890625 337.394531 304.757812 337.5 304.628906 337.503906 L 304.449219 337.40625 C 304.402344 337.308594 304.425781 337.160156 304.519531 336.996094 C 304.886719 336.355469 305.308594 335.960938 305.765625 335.816406 C 306.023438 335.734375 306.246094 335.746094 306.40625 335.78125 C 306.570312 335.820312 306.675781 335.878906 306.679688 335.882812 L 308.132812 336.664062 C 308.132812 336.664062 308.984375 335.03125 309.796875 333.378906 C 310.175781 332.535156 310.5625 331.699219 310.84375 331.070312 C 311.136719 330.441406 311.296875 330.011719 311.296875 330.011719 L 310.382812 329.632812 L 311.183594 327.609375 L 312.101562 327.957031 C 312.101562 327.957031 312.285156 327.539062 312.519531 326.882812 C 312.738281 326.230469 313.035156 325.355469 313.328125 324.480469 C 313.644531 323.617188 313.859375 322.714844 314.054688 322.054688 C 314.246094 321.390625 314.375 320.949219 314.375 320.949219 L 312.316406 320.402344 L 312.320312 320.398438 L 312 320.320312 C 311.949219 320.511719 311.84375 320.648438 311.71875 320.6875 L 311.523438 320.636719 C 311.449219 320.554688 311.441406 320.40625 311.488281 320.226562 C 311.707031 319.515625 311.964844 319.015625 312.367188 318.753906 C 312.804688 318.460938 313.261719 318.578125 313.261719 318.578125 L 314.863281 318.964844 C 314.863281 318.964844 314.96875 318.515625 315.125 317.835938 C 315.296875 317.167969 315.464844 316.261719 315.625 315.355469 C 315.777344 314.445312 315.964844 313.546875 316.046875 312.855469 C 316.136719 312.171875 316.195312 311.71875 316.195312 311.71875 L 315.214844 311.585938 L 315.484375 309.429688 L 316.472656 309.527344 C 316.472656 309.527344 316.605469 307.6875 316.746094 305.855469 C 316.792969 304.011719 316.839844 301.042969 316.839844 301.042969 L 314.375 301.042969 "/>
</g>
<path style=" stroke:none;fill-rule:nonzero;fill:rgb(24.708557%,25.489807%,26.269531%);fill-opacity:1;" d="M 294.617188 302.171875 L 293.570312 302.171875 C 293.570312 315.828125 288.03125 328.179688 279.070312 337.128906 C 270.105469 346.078125 257.734375 351.609375 244.058594 351.613281 C 230.382812 351.609375 218.011719 346.078125 209.046875 337.128906 C 200.089844 328.179688 194.546875 315.828125 194.546875 302.171875 C 194.546875 288.515625 200.089844 276.160156 209.046875 267.207031 C 218.011719 258.261719 230.382812 252.730469 244.058594 252.730469 C 257.734375 252.730469 270.105469 258.261719 279.070312 267.207031 C 288.03125 276.160156 293.570312 288.515625 293.570312 302.171875 L 295.664062 302.171875 C 295.664062 273.710938 272.5625 250.644531 244.058594 250.644531 C 215.558594 250.644531 192.457031 273.710938 192.457031 302.171875 C 192.457031 330.628906 215.558594 353.699219 244.058594 353.699219 C 272.5625 353.699219 295.664062 330.628906 295.664062 302.171875 L 294.617188 302.171875 "/>
<path style=" stroke:none;fill-rule:nonzero;fill:rgb(26.269531%,28.62854%,30.198669%);fill-opacity:1;" d="M 308.210938 302.171875 L 307.878906 302.171875 C 307.878906 319.769531 300.734375 335.699219 289.183594 347.230469 C 277.636719 358.761719 261.683594 365.894531 244.058594 365.894531 C 226.4375 365.894531 210.484375 358.761719 198.929688 347.230469 C 187.382812 335.699219 180.242188 319.769531 180.242188 302.171875 C 180.242188 284.570312 187.382812 268.644531 198.929688 257.109375 C 210.484375 245.574219 226.4375 238.445312 244.058594 238.445312 C 261.683594 238.445312 277.636719 245.574219 289.183594 257.109375 C 300.734375 268.644531 307.878906 284.570312 307.878906 302.171875 L 308.539062 302.171875 C 308.539062 266.613281 279.671875 237.785156 244.058594 237.785156 C 208.449219 237.785156 179.582031 266.613281 179.582031 302.171875 C 179.582031 337.730469 208.449219 366.554688 244.058594 366.554688 C 279.671875 366.554688 308.539062 337.730469 308.539062 302.171875 L 308.210938 302.171875 "/>
<path style=" stroke:none;fill-rule:nonzero;fill:rgb(26.269531%,28.62854%,30.198669%);fill-opacity:1;" d="M 244.058594 338.707031 C 223.851562 338.707031 207.464844 322.347656 207.464844 302.171875 C 207.464844 281.988281 223.851562 265.628906 244.058594 265.628906 C 264.269531 265.628906 280.648438 281.988281 280.648438 302.171875 C 280.648438 322.347656 264.269531 338.707031 244.058594 338.707031 Z M 244.058594 256.90625 C 219.023438 256.90625 198.730469 277.171875 198.730469 302.171875 C 198.730469 327.171875 219.023438 347.433594 244.058594 347.433594 C 269.097656 347.433594 289.390625 327.171875 289.390625 302.171875 C 289.390625 277.171875 269.097656 256.90625 244.058594 256.90625 "/>
<path style=" stroke:none;fill-rule:nonzero;fill:rgb(26.269531%,28.62854%,30.198669%);fill-opacity:1;" d="M 246.433594 342.015625 L 241.6875 342.015625 L 241.6875 262.324219 L 246.433594 262.324219 L 246.433594 342.015625 "/>
<path style=" stroke:none;fill-rule:nonzero;fill:rgb(26.269531%,28.62854%,30.198669%);fill-opacity:1;" d="M 204.15625 305.039062 L 204.15625 299.300781 L 283.960938 299.300781 L 283.960938 305.039062 L 204.15625 305.039062 "/>
<path style=" stroke:none;fill-rule:nonzero;fill:rgb(26.269531%,28.62854%,30.198669%);fill-opacity:1;" d="M 246.433594 342.015625 L 241.6875 342.015625 L 241.6875 262.324219 L 246.433594 262.324219 L 246.433594 342.015625 "/>
<path style=" stroke:none;fill-rule:nonzero;fill:rgb(26.269531%,28.62854%,30.198669%);fill-opacity:1;" d="M 204.15625 305.039062 L 204.15625 299.300781 L 283.960938 299.300781 L 283.960938 305.039062 L 204.15625 305.039062 "/>
<path style=" stroke:none;fill-rule:nonzero;fill:rgb(26.269531%,28.62854%,30.198669%);fill-opacity:1;" d="M 217.28125 331.78125 L 214.40625 328.90625 L 270.835938 272.558594 L 273.714844 275.429688 L 217.28125 331.78125 "/>
<path style=" stroke:none;fill-rule:nonzero;fill:rgb(26.269531%,28.62854%,30.198669%);fill-opacity:1;" d="M 270.835938 331.78125 L 273.714844 328.90625 L 217.28125 272.558594 L 214.40625 275.429688 L 270.835938 331.78125 "/>
<path style=" stroke:none;fill-rule:nonzero;fill:rgb(26.269531%,28.62854%,30.198669%);fill-opacity:1;" d="M 257.605469 302.171875 C 257.605469 309.636719 251.539062 315.695312 244.058594 315.695312 C 236.578125 315.695312 230.515625 309.636719 230.515625 302.171875 C 230.515625 294.699219 236.578125 288.644531 244.058594 288.644531 C 251.539062 288.644531 257.605469 294.699219 257.605469 302.171875 "/>
<path style=" stroke:none;fill-rule:nonzero;fill:rgb(12.159729%,12.939453%,12.939453%);fill-opacity:1;" d="M 249.589844 302.171875 C 249.589844 305.21875 247.113281 307.691406 244.058594 307.691406 C 241.007812 307.691406 238.53125 305.21875 238.53125 302.171875 C 238.53125 299.117188 241.007812 296.648438 244.058594 296.648438 C 247.113281 296.648438 249.589844 299.117188 249.589844 302.171875 "/>
<path style=" stroke:none;fill-rule:nonzero;fill:rgb(5.879211%,7.058716%,6.669617%);fill-opacity:1;" d="M 248.195312 302.171875 C 248.195312 304.453125 246.34375 306.304688 244.058594 306.304688 C 241.777344 306.304688 239.917969 304.453125 239.917969 302.171875 C 239.917969 299.890625 241.777344 298.035156 244.058594 298.035156 C 246.34375 298.035156 248.195312 299.890625 248.195312 302.171875 "/>
<path style=" stroke:none;fill-rule:nonzero;fill:rgb(53.329468%,52.938843%,54.899597%);fill-opacity:1;" d="M 249.589844 292.671875 C 249.589844 293.582031 248.847656 294.320312 247.933594 294.320312 C 247.023438 294.320312 246.285156 293.582031 246.285156 292.671875 C 246.285156 291.761719 247.023438 291.023438 247.933594 291.023438 C 248.847656 291.023438 249.589844 291.761719 249.589844 292.671875 "/>
<path style=" stroke:none;fill-rule:nonzero;fill:rgb(26.269531%,28.62854%,30.198669%);fill-opacity:1;" d="M 249.171875 292.671875 C 249.171875 293.351562 248.621094 293.90625 247.933594 293.90625 C 247.253906 293.90625 246.699219 293.351562 246.699219 292.671875 C 246.699219 291.992188 247.253906 291.4375 247.933594 291.4375 C 248.621094 291.4375 249.171875 291.992188 249.171875 292.671875 "/>
<path style=" stroke:none;fill-rule:nonzero;fill:rgb(53.329468%,52.938843%,54.899597%);fill-opacity:1;" d="M 241.835938 292.671875 C 241.835938 293.582031 241.09375 294.320312 240.183594 294.320312 C 239.269531 294.320312 238.53125 293.582031 238.53125 292.671875 C 238.53125 291.761719 239.269531 291.023438 240.183594 291.023438 C 241.09375 291.023438 241.835938 291.761719 241.835938 292.671875 "/>
<path style=" stroke:none;fill-rule:nonzero;fill:rgb(26.269531%,28.62854%,30.198669%);fill-opacity:1;" d="M 241.417969 292.671875 C 241.417969 293.351562 240.863281 293.90625 240.183594 293.90625 C 239.5 293.90625 238.945312 293.351562 238.945312 292.671875 C 238.945312 291.992188 239.5 291.4375 240.183594 291.4375 C 240.863281 291.4375 241.417969 291.992188 241.417969 292.671875 "/>
<path style=" stroke:none;fill-rule:nonzero;fill:rgb(53.329468%,52.938843%,54.899597%);fill-opacity:1;" d="M 249.589844 311.671875 C 249.589844 312.582031 248.847656 313.320312 247.933594 313.320312 C 247.023438 313.320312 246.285156 312.582031 246.285156 311.671875 C 246.285156 310.757812 247.023438 310.015625 247.933594 310.015625 C 248.847656 310.015625 249.589844 310.757812 249.589844 311.671875 "/>
<path style=" stroke:none;fill-rule:nonzero;fill:rgb(26.269531%,28.62854%,30.198669%);fill-opacity:1;" d="M 249.171875 311.671875 C 249.171875 312.351562 248.621094 312.90625 247.933594 312.90625 C 247.253906 312.90625 246.699219 312.351562 246.699219 311.671875 C 246.699219 310.984375 247.253906 310.433594 247.933594 310.433594 C 248.621094 310.433594 249.171875 310.984375 249.171875 311.671875 "/>
<path style=" stroke:none;fill-rule:nonzero;fill:rgb(53.329468%,52.938843%,54.899597%);fill-opacity:1;" d="M 241.835938 311.671875 C 241.835938 312.582031 241.09375 313.320312 240.183594 313.320312 C 239.269531 313.320312 238.53125 312.582031 238.53125 311.671875 C 238.53125 310.757812 239.269531 310.015625 240.183594 310.015625 C 241.09375 310.015625 241.835938 310.757812 241.835938 311.671875 "/>
<path style=" stroke:none;fill-rule:nonzero;fill:rgb(26.269531%,28.62854%,30.198669%);fill-opacity:1;" d="M 241.417969 311.671875 C 241.417969 312.351562 240.863281 312.90625 240.183594 312.90625 C 239.5 312.90625 238.945312 312.351562 238.945312 311.671875 C 238.945312 310.984375 239.5 310.433594 240.183594 310.433594 C 240.863281 310.433594 241.417969 310.984375 241.417969 311.671875 "/>
<path style=" stroke:none;fill-rule:nonzero;fill:rgb(53.329468%,52.938843%,54.899597%);fill-opacity:1;" d="M 253.574219 296.648438 C 252.660156 296.648438 251.921875 297.386719 251.921875 298.296875 C 251.921875 299.210938 252.660156 299.949219 253.574219 299.949219 C 254.488281 299.949219 255.226562 299.210938 255.226562 298.296875 C 255.226562 297.386719 254.488281 296.648438 253.574219 296.648438 "/>
<path style=" stroke:none;fill-rule:nonzero;fill:rgb(26.269531%,28.62854%,30.198669%);fill-opacity:1;" d="M 253.574219 297.0625 C 252.886719 297.0625 252.332031 297.617188 252.332031 298.296875 C 252.332031 298.984375 252.886719 299.53125 253.574219 299.53125 C 254.253906 299.53125 254.808594 298.984375 254.808594 298.296875 C 254.808594 297.617188 254.253906 297.0625 253.574219 297.0625 "/>
<path style=" stroke:none;fill-rule:nonzero;fill:rgb(53.329468%,52.938843%,54.899597%);fill-opacity:1;" d="M 253.574219 304.390625 C 252.660156 304.390625 251.921875 305.128906 251.921875 306.039062 C 251.921875 306.953125 252.660156 307.691406 253.574219 307.691406 C 254.488281 307.691406 255.226562 306.953125 255.226562 306.039062 C 255.226562 305.128906 254.488281 304.390625 253.574219 304.390625 "/>
<path style=" stroke:none;fill-rule:nonzero;fill:rgb(26.269531%,28.62854%,30.198669%);fill-opacity:1;" d="M 253.574219 304.804688 C 252.886719 304.804688 252.332031 305.359375 252.332031 306.039062 C 252.332031 306.722656 252.886719 307.273438 253.574219 307.273438 C 254.253906 307.273438 254.808594 306.722656 254.808594 306.039062 C 254.808594 305.359375 254.253906 304.804688 253.574219 304.804688 "/>
<path style=" stroke:none;fill-rule:nonzero;fill:rgb(53.329468%,52.938843%,54.899597%);fill-opacity:1;" d="M 234.546875 296.648438 C 233.632812 296.648438 232.894531 297.386719 232.894531 298.296875 C 232.894531 299.210938 233.632812 299.949219 234.546875 299.949219 C 235.460938 299.949219 236.199219 299.210938 236.199219 298.296875 C 236.199219 297.386719 235.460938 296.648438 234.546875 296.648438 "/>
<path style=" stroke:none;fill-rule:nonzero;fill:rgb(26.269531%,28.62854%,30.198669%);fill-opacity:1;" d="M 234.546875 297.0625 C 233.867188 297.0625 233.3125 297.617188 233.3125 298.296875 C 233.3125 298.984375 233.867188 299.53125 234.546875 299.53125 C 235.230469 299.53125 235.785156 298.984375 235.785156 298.296875 C 235.785156 297.617188 235.230469 297.0625 234.546875 297.0625 "/>
<path style=" stroke:none;fill-rule:nonzero;fill:rgb(53.329468%,52.938843%,54.899597%);fill-opacity:1;" d="M 234.546875 304.390625 C 233.632812 304.390625 232.894531 305.128906 232.894531 306.039062 C 232.894531 306.953125 233.632812 307.691406 234.546875 307.691406 C 235.460938 307.691406 236.199219 306.953125 236.199219 306.039062 C 236.199219 305.128906 235.460938 304.390625 234.546875 304.390625 "/>
<path style=" stroke:none;fill-rule:nonzero;fill:rgb(26.269531%,28.62854%,30.198669%);fill-opacity:1;" d="M 234.546875 304.804688 C 233.867188 304.804688 233.3125 305.359375 233.3125 306.039062 C 233.3125 306.722656 233.867188 307.273438 234.546875 307.273438 C 235.230469 307.273438 235.785156 306.722656 235.785156 306.039062 C 235.785156 305.359375 235.230469 304.804688 234.546875 304.804688 "/>
<path style=" stroke:none;fill-rule:nonzero;fill:rgb(12.548828%,13.729858%,13.328552%);fill-opacity:1;" d="M 289.390625 302.171875 L 288.453125 302.171875 C 288.453125 314.414062 283.484375 325.492188 275.449219 333.511719 C 267.414062 341.539062 256.320312 346.496094 244.058594 346.496094 C 231.796875 346.496094 220.707031 341.539062 212.667969 333.511719 C 204.632812 325.492188 199.664062 314.414062 199.664062 302.171875 C 199.664062 289.921875 204.632812 278.851562 212.667969 270.824219 C 220.707031 262.800781 231.796875 257.839844 244.058594 257.839844 C 256.320312 257.839844 267.414062 262.800781 275.449219 270.824219 C 283.484375 278.851562 288.453125 289.921875 288.453125 302.171875 L 290.328125 302.171875 C 290.328125 276.652344 269.613281 255.96875 244.058594 255.96875 C 218.503906 255.96875 197.792969 276.652344 197.792969 302.171875 C 197.792969 327.6875 218.503906 348.367188 244.058594 348.367188 C 269.613281 348.367188 290.328125 327.6875 290.328125 302.171875 L 289.390625 302.171875 "/>
<path style=" stroke:none;fill-rule:nonzero;fill:rgb(95.289612%,63.529968%,46.669006%);fill-opacity:1;" d="M 214.65625 186.222656 L 160.84375 144.300781 L 168.28125 134.78125 L 212.25 169.03125 C 224.828125 151.253906 241.488281 124.101562 241.488281 113.414062 L 253.582031 113.414062 C 253.582031 132.984375 221.949219 176.347656 218.34375 181.230469 L 214.65625 186.222656 "/>
<path style=" stroke:none;fill-rule:nonzero;fill:rgb(49.798584%,50.19989%,52.938843%);fill-opacity:1;" d="M 284.652344 116.605469 C 282.71875 116.671875 280.421875 118.722656 278.648438 118.0625 C 276.867188 117.394531 276.5 114.328125 275.089844 113.019531 C 273.730469 111.746094 270.632812 111.59375 269.8125 109.804688 C 269.003906 108.003906 270.933594 105.578125 270.875 103.726562 C 270.8125 101.800781 268.753906 99.503906 269.421875 97.722656 C 270.09375 95.953125 273.160156 95.582031 274.472656 94.179688 C 275.742188 92.820312 275.894531 89.730469 277.683594 88.914062 C 279.488281 88.09375 281.917969 90.027344 283.773438 89.964844 C 285.703125 89.914062 288.011719 87.847656 289.777344 88.519531 C 291.558594 89.183594 291.933594 92.246094 293.335938 93.558594 C 294.699219 94.828125 297.792969 94.972656 298.605469 96.773438 C 299.421875 98.578125 297.488281 100.996094 297.550781 102.851562 C 297.609375 104.78125 299.671875 107.070312 299.011719 108.839844 C 298.339844 110.613281 295.273438 110.988281 293.953125 112.40625 C 292.683594 113.757812 292.539062 116.84375 290.738281 117.660156 C 288.945312 118.476562 286.511719 116.542969 284.652344 116.605469 Z M 284.597656 128.472656 C 298.53125 128.253906 309.652344 116.808594 309.433594 102.910156 C 309.21875 89 297.753906 77.890625 283.820312 78.101562 C 273.515625 78.261719 264.761719 84.570312 260.984375 93.472656 L 127.015625 95.515625 C 120.695312 86.332031 108.539062 78.707031 99.101562 78.855469 C 90.75 78.980469 80.710938 85.242188 74.433594 93.15625 L 99.796875 92.773438 C 103.523438 92.722656 106.585938 95.683594 106.648438 99.40625 L 106.914062 117.292969 C 106.972656 121.003906 104 124.066406 100.277344 124.128906 L 77.671875 124.472656 C 84.078125 129.890625 92.707031 133.457031 99.933594 133.351562 C 110.226562 133.191406 123.503906 125.457031 128.855469 115.820312 L 261.296875 113.800781 C 265.335938 122.585938 274.296875 128.628906 284.597656 128.472656 "/>
<path style=" stroke:none;fill-rule:nonzero;fill:rgb(34.509277%,36.859131%,38.42926%);fill-opacity:1;" d="M 253.722656 96.558594 C 254.363281 96.546875 254.878906 97.046875 254.886719 97.683594 C 254.90625 98.320312 254.402344 98.839844 253.761719 98.84375 L 130.171875 100.730469 C 129.519531 100.746094 129 100.242188 129.007812 99.59375 C 128.992188 98.964844 129.496094 98.449219 130.132812 98.4375 L 253.722656 96.558594 "/>
<path style=" stroke:none;fill-rule:nonzero;fill:rgb(95.289612%,63.529968%,46.669006%);fill-opacity:1;" d="M 248.222656 87.785156 C 253.160156 86.5625 257.914062 88.617188 258.847656 92.367188 L 261.09375 101.460938 C 262.027344 105.210938 258.777344 109.246094 253.84375 110.464844 C 248.90625 111.679688 244.152344 109.625 243.222656 105.875 L 240.96875 96.785156 C 240.039062 93.03125 243.289062 89.003906 248.222656 87.785156 "/>
<path style=" stroke:none;fill-rule:nonzero;fill:rgb(95.289612%,63.529968%,46.669006%);fill-opacity:1;" d="M 241.554688 105.449219 C 243.042969 105.828125 244.078125 106.8125 243.863281 107.640625 L 241.78125 115.777344 C 241.566406 116.609375 240.1875 116.976562 238.695312 116.589844 C 237.210938 116.210938 236.175781 115.230469 236.386719 114.402344 L 238.472656 106.269531 C 238.683594 105.433594 240.0625 105.070312 241.554688 105.449219 "/>
<g clip-path="url(#clip2)" clip-rule="nonzero">
<path style=" stroke:none;fill-rule:nonzero;fill:rgb(95.289612%,63.529968%,46.669006%);fill-opacity:1;" d="M 80.949219 263.492188 C 73.597656 246.621094 59.984375 195.03125 59.414062 192.839844 L 58.648438 189.949219 L 98.652344 138.75 L 108.1875 146.175781 L 71.875 192.65625 C 74.886719 203.902344 86.007812 244.835938 92.039062 258.671875 L 80.949219 263.492188 "/>
</g>
<path style=" stroke:none;fill-rule:nonzero;fill:rgb(25.489807%,52.159119%,78.819275%);fill-opacity:1;" d="M 87.898438 185.402344 C 100.773438 162.488281 120.683594 133.632812 111.230469 128.292969 C 101.773438 122.957031 82.550781 141.164062 69.523438 163.988281 L 87.898438 185.402344 "/>
<path style=" stroke:none;fill-rule:nonzero;fill:rgb(25.489807%,52.159119%,78.819275%);fill-opacity:1;" d="M 190.355469 185.402344 C 177.488281 162.488281 157.570312 133.632812 167.027344 128.292969 C 176.484375 122.957031 195.707031 141.164062 208.734375 163.988281 L 190.355469 185.402344 "/>
<path style=" stroke:none;fill-rule:nonzero;fill:rgb(25.489807%,52.159119%,78.819275%);fill-opacity:1;" d="M 178.839844 251.816406 C 178.839844 258.121094 173.71875 263.230469 167.410156 263.230469 L 110.847656 263.230469 C 104.535156 263.230469 99.417969 258.121094 99.417969 251.816406 L 99.417969 138.578125 C 99.417969 132.277344 104.535156 127.167969 110.847656 127.167969 L 167.410156 127.167969 C 173.71875 127.167969 178.839844 132.277344 178.839844 138.578125 L 178.839844 251.816406 "/>
<path style=" stroke:none;fill-rule:nonzero;fill:rgb(20.388794%,39.99939%,70.979309%);fill-opacity:1;" d="M 166.546875 201.503906 L 166.546875 127.167969 L 155.796875 127.167969 L 155.796875 170.902344 L 122.457031 170.902344 L 122.457031 127.167969 L 111.710938 127.167969 L 111.710938 201.503906 L 99.417969 201.503906 L 99.417969 251.816406 C 99.417969 258.121094 104.535156 263.230469 110.847656 263.230469 L 167.410156 263.230469 C 173.71875 263.230469 178.839844 258.121094 178.839844 251.816406 L 178.839844 201.503906 L 166.546875 201.503906 "/>
<path style=" stroke:none;fill-rule:nonzero;fill:rgb(82.749939%,55.288696%,41.958618%);fill-opacity:1;" d="M 150.941406 135.132812 C 150.941406 140.996094 146.183594 145.753906 140.308594 145.753906 L 137.945312 145.753906 C 132.070312 145.753906 127.316406 140.996094 127.316406 135.132812 L 127.316406 113.292969 C 127.316406 107.433594 132.070312 102.679688 137.945312 102.679688 L 140.308594 102.679688 C 146.183594 102.679688 150.941406 107.433594 150.941406 113.292969 L 150.941406 135.132812 "/>
<path style=" stroke:none;fill-rule:nonzero;fill:rgb(95.289612%,63.529968%,46.669006%);fill-opacity:1;" d="M 180.238281 66.246094 C 180.238281 98.265625 162.277344 124.214844 140.121094 124.214844 C 117.96875 124.214844 100.011719 98.265625 100.011719 66.246094 C 100.011719 34.234375 117.96875 24.914062 140.121094 24.914062 C 162.277344 24.914062 180.238281 34.234375 180.238281 66.246094 "/>
<path style=" stroke:none;fill-rule:nonzero;fill:rgb(20.388794%,39.99939%,70.979309%);fill-opacity:1;" d="M 130.257812 249.679688 L 136.945312 366.625 L 116.867188 368.382812 L 103.066406 252.0625 L 130.257812 249.679688 "/>
<path style=" stroke:none;fill-rule:nonzero;fill:rgb(20.388794%,39.99939%,70.979309%);fill-opacity:1;" d="M 175.195312 252.0625 L 161.394531 368.382812 L 141.308594 366.625 L 147.996094 249.679688 L 175.195312 252.0625 "/>
<path style=" stroke:none;fill-rule:nonzero;fill:rgb(11.759949%,11.369324%,11.759949%);fill-opacity:1;" d="M 139.125 374.84375 C 138.648438 369.546875 139.617188 360.019531 129.429688 360.167969 C 104.214844 358.617188 86.972656 369.546875 86.496094 374.84375 L 139.125 374.84375 "/>
<path style=" stroke:none;fill-rule:nonzero;fill:rgb(11.759949%,11.369324%,11.759949%);fill-opacity:1;" d="M 139.125 374.84375 C 139.605469 369.546875 138.640625 360.019531 148.828125 360.167969 C 174.042969 358.617188 191.289062 369.546875 191.757812 374.84375 L 139.125 374.84375 "/>
<path style=" stroke:none;fill-rule:nonzero;fill:rgb(95.289612%,63.529968%,46.669006%);fill-opacity:1;" d="M 85.8125 254.019531 C 80.878906 252.796875 75.886719 255.804688 74.664062 260.738281 L 71.707031 272.679688 C 70.484375 277.605469 73.5 282.59375 78.433594 283.808594 C 83.371094 285.03125 88.363281 282.019531 89.582031 277.09375 L 92.542969 265.148438 C 93.765625 260.222656 90.75 255.238281 85.8125 254.019531 "/>
<path style=" stroke:none;fill-rule:nonzero;fill:rgb(95.289612%,63.529968%,46.669006%);fill-opacity:1;" d="M 90.042969 259.042969 C 88.554688 259.429688 87.65625 260.941406 88.035156 262.425781 L 91.765625 276.988281 C 92.144531 278.476562 93.664062 279.375 95.15625 278.992188 C 96.640625 278.609375 97.539062 277.101562 97.160156 275.613281 L 93.429688 261.050781 C 93.050781 259.5625 91.535156 258.664062 90.042969 259.042969 "/>
<path style=" stroke:none;fill-rule:nonzero;fill:rgb(95.289612%,63.529968%,46.669006%);fill-opacity:1;" d="M 109.546875 70.164062 C 109.546875 79.703125 110.679688 87.429688 104.710938 87.429688 C 98.75 87.429688 87.949219 79.703125 87.949219 70.164062 C 87.949219 60.628906 92.78125 52.894531 98.75 52.894531 C 104.710938 52.894531 109.546875 60.628906 109.546875 70.164062 "/>
<path style=" stroke:none;fill-rule:nonzero;fill:rgb(95.289612%,63.529968%,46.669006%);fill-opacity:1;" d="M 170.699219 70.164062 C 170.699219 79.703125 169.570312 87.429688 175.53125 87.429688 C 181.5 87.429688 192.296875 79.703125 192.296875 70.164062 C 192.296875 60.628906 187.460938 52.894531 181.5 52.894531 C 175.53125 52.894531 170.699219 60.628906 170.699219 70.164062 "/>
<path style=" stroke:none;fill-rule:nonzero;fill:rgb(36.859131%,18.429565%,12.548828%);fill-opacity:1;" d="M 182.59375 39.117188 C 182.59375 58.6875 162.53125 37.058594 139.070312 37.058594 C 115.613281 37.058594 97.648438 58.6875 97.648438 39.117188 C 97.648438 19.546875 116.664062 13.847656 140.121094 13.847656 C 163.578125 13.847656 182.59375 19.546875 182.59375 39.117188 "/>
<path style=" stroke:none;fill-rule:nonzero;fill:rgb(36.859131%,18.429565%,12.548828%);fill-opacity:1;" d="M 104.417969 82.445312 L 98.210938 82.445312 L 98.210938 38.039062 L 108.347656 38.039062 L 104.417969 82.445312 "/>
<path style=" stroke:none;fill-rule:nonzero;fill:rgb(36.859131%,18.429565%,12.548828%);fill-opacity:1;" d="M 175.824219 82.445312 L 182.03125 82.445312 L 182.03125 38.039062 L 171.902344 38.039062 L 175.824219 82.445312 "/>
<path style=" stroke:none;fill-rule:nonzero;fill:rgb(14.898682%,33.729553%,59.609985%);fill-opacity:1;" d="M 182.59375 45.1875 L 182.59375 13.859375 C 182.59375 6.292969 176.453125 0.15625 168.875 0.15625 L 109.382812 0.15625 C 101.800781 0.15625 95.65625 6.292969 95.65625 13.859375 L 95.65625 45.1875 L 139.125 33.429688 L 182.59375 45.1875 "/>
<path style=" stroke:none;fill-rule:nonzero;fill:rgb(20.388794%,39.99939%,70.979309%);fill-opacity:1;" d="M 188.488281 54.574219 C 189.902344 53.191406 189.574219 50.574219 187.652344 48.886719 C 159.980469 24.480469 118.277344 24.480469 90.601562 48.886719 C 88.6875 50.574219 88.355469 53.191406 89.769531 54.574219 C 91.1875 55.953125 93.640625 55.75 95.339844 54.253906 C 120.3125 32.230469 157.941406 32.230469 182.917969 54.253906 C 184.617188 55.75 187.066406 55.953125 188.488281 54.574219 "/>
<path style=" stroke:none;fill-rule:nonzero;fill:rgb(25.489807%,52.159119%,78.819275%);fill-opacity:1;" d="M 169.554688 20.25 C 169.554688 23.78125 166.683594 26.644531 163.144531 26.644531 L 115.113281 26.644531 C 111.574219 26.644531 108.703125 23.78125 108.703125 20.25 C 108.703125 16.710938 111.574219 13.847656 115.113281 13.847656 L 163.144531 13.847656 C 166.683594 13.847656 169.554688 16.710938 169.554688 20.25 "/>
<path style=" stroke:none;fill-rule:nonzero;fill:rgb(89.408875%,95.689392%,88.62915%);fill-opacity:1;" d="M 129.835938 103.519531 C 129.847656 108.457031 134.28125 115.664062 139.820312 115.644531 C 145.355469 115.632812 149.894531 108.40625 149.875 103.464844 C 149.863281 98.53125 145.382812 99.546875 139.847656 99.558594 C 134.308594 99.578125 129.824219 98.585938 129.835938 103.519531 "/>
<path style=" stroke:none;fill-rule:nonzero;fill:rgb(11.369324%,7.449341%,5.879211%);fill-opacity:1;" d="M 113.5 61.847656 L 134.167969 61.789062 L 134.164062 59.214844 L 113.496094 59.273438 L 113.5 61.847656 "/>
<path style=" stroke:none;fill-rule:nonzero;fill:rgb(11.369324%,7.449341%,5.879211%);fill-opacity:1;" d="M 144.09375 62.09375 L 164.761719 62.039062 L 164.753906 59.46875 L 144.082031 59.523438 L 144.09375 62.09375 "/>
<path style=" stroke:none;fill-rule:nonzero;fill:rgb(23.529053%,15.689087%,8.628845%);fill-opacity:1;" d="M 150.15625 71.753906 C 150.164062 74.914062 151.511719 77.472656 153.171875 77.464844 C 154.824219 77.464844 156.160156 74.890625 156.15625 71.738281 C 156.148438 68.578125 154.796875 66.019531 153.144531 66.027344 C 151.480469 66.027344 150.140625 68.59375 150.15625 71.753906 "/>
<path style=" stroke:none;fill-rule:nonzero;fill:rgb(23.529053%,15.689087%,8.628845%);fill-opacity:1;" d="M 121.351562 71.828125 C 121.363281 74.992188 122.707031 77.542969 124.367188 77.542969 C 126.023438 77.535156 127.359375 74.972656 127.351562 71.8125 C 127.347656 68.652344 125.996094 66.097656 124.339844 66.105469 C 122.675781 66.105469 121.339844 68.671875 121.351562 71.828125 "/>
<path style=" stroke:none;fill-rule:nonzero;fill:rgb(73.728943%,50.588989%,39.219666%);fill-opacity:1;" d="M 144.632812 74.996094 L 144.625 75.132812 C 144.625 75.300781 144.628906 78.367188 144.949219 81.730469 C 145.109375 83.417969 145.347656 85.171875 145.714844 86.707031 C 145.898438 87.472656 146.109375 88.183594 146.378906 88.8125 C 146.648438 89.441406 146.957031 89.992188 147.394531 90.429688 C 147.507812 90.542969 147.570312 90.628906 147.585938 90.667969 L 147.601562 90.691406 L 147.726562 90.65625 L 147.59375 90.65625 L 147.601562 90.691406 L 147.726562 90.65625 L 147.59375 90.65625 L 147.796875 90.65625 L 147.605469 90.59375 L 147.59375 90.65625 L 147.796875 90.65625 L 147.605469 90.59375 L 147.726562 90.636719 L 147.613281 90.578125 L 147.605469 90.59375 L 147.726562 90.636719 L 147.613281 90.578125 L 147.617188 90.578125 L 147.613281 90.578125 L 147.617188 90.578125 L 147.613281 90.578125 C 147.609375 90.597656 147.4375 90.757812 147.109375 90.902344 C 146.625 91.121094 145.855469 91.316406 145.003906 91.441406 C 144.15625 91.570312 143.21875 91.636719 142.371094 91.636719 C 141.402344 91.636719 140.523438 91.542969 140.082031 91.414062 L 139.574219 93.191406 C 140.328125 93.398438 141.289062 93.476562 142.371094 93.480469 C 143.800781 93.480469 145.386719 93.328125 146.695312 92.988281 C 147.355469 92.8125 147.945312 92.597656 148.449219 92.273438 C 148.695312 92.105469 148.933594 91.910156 149.125 91.644531 C 149.3125 91.382812 149.449219 91.027344 149.441406 90.65625 C 149.449219 90.355469 149.359375 90.066406 149.226562 89.8125 C 149.09375 89.558594 148.914062 89.332031 148.699219 89.117188 C 148.523438 88.949219 148.285156 88.585938 148.082031 88.09375 C 147.710938 87.226562 147.402344 85.96875 147.175781 84.601562 C 146.484375 80.472656 146.472656 75.304688 146.476562 75.132812 L 145.589844 75.132812 L 146.46875 75.257812 L 146.476562 75.132812 L 145.589844 75.132812 L 146.46875 75.257812 L 144.636719 74.996094 "/>
</g>
</svg>
