<?xml version="1.0" encoding="UTF-8"?>
<svg xmlns="http://www.w3.org/2000/svg" xmlns:xlink="http://www.w3.org/1999/xlink" width="375pt" height="374.999991pt" viewBox="0 0 375 374.999991" version="1.2">
<g id="surface1">
<path style=" stroke:none;fill-rule:nonzero;fill:rgb(47.839355%,81.568909%,88.238525%);fill-opacity:1;" d="M 47.621094 88.394531 C 51.210938 58.269531 78.097656 45.414062 104.59375 58.800781 C 161.601562 39.613281 230.933594 41.074219 286.394531 64.859375 C 330.824219 83.921875 374.78125 121.074219 374.78125 173.421875 C 374.78125 262.53125 260.425781 300.289062 187.503906 301.1875 C 110.726562 302.132812 0.222656 262.527344 0.222656 173.421875 C 0.222656 138.609375 20.789062 108.894531 47.621094 88.394531 "/>
<path style=" stroke:none;fill-rule:nonzero;fill:rgb(92.158508%,36.468506%,10.198975%);fill-opacity:1;" d="M 3.292969 173.421875 C 3.292969 104.554688 85.765625 48.730469 187.503906 48.730469 C 289.238281 48.730469 371.710938 104.554688 371.710938 173.421875 C 371.710938 242.289062 289.238281 298.117188 187.503906 298.117188 C 85.765625 298.117188 3.292969 242.289062 3.292969 173.421875 "/>
<path style=" stroke:none;fill-rule:nonzero;fill:rgb(95.289612%,61.569214%,31.369019%);fill-opacity:1;" d="M 244.105469 292.121094 L 203.125 228.007812 L 236.792969 293.601562 L 235.277344 293.882812 L 200.425781 229.433594 L 228.261719 295.054688 L 226.699219 295.289062 L 197.632812 230.660156 L 219.941406 296.191406 L 218.339844 296.375 L 194.757812 231.679688 L 211.800781 297.042969 L 210.175781 297.179688 L 191.816406 232.488281 L 203.804688 297.636719 L 202.160156 297.726562 L 188.824219 233.078125 L 195.921875 297.988281 L 194.265625 298.035156 L 185.796875 233.449219 L 188.117188 298.117188 L 187.503906 298.117188 L 186.453125 298.113281 L 182.75 233.597656 L 180.351562 298.023438 L 178.683594 297.976562 L 179.699219 233.523438 L 172.59375 297.714844 L 170.929688 297.621094 L 176.664062 233.226562 L 164.808594 297.179688 L 163.152344 297.035156 L 173.65625 232.707031 L 156.957031 296.410156 L 155.320312 296.222656 L 170.695312 231.972656 L 149.015625 295.390625 L 147.398438 295.152344 L 167.796875 231.023438 L 140.941406 294.101562 L 139.355469 293.8125 L 164.972656 229.863281 L 132.714844 292.507812 L 131.160156 292.175781 L 162.242188 228.5 L 124.300781 290.582031 L 122.796875 290.207031 L 159.621094 226.945312 L 115.679688 288.28125 L 114.230469 287.863281 L 157.117188 225.199219 L 106.824219 285.554688 L 105.445312 285.09375 L 154.75 223.277344 L 97.738281 282.335938 L 96.4375 281.839844 L 152.527344 221.1875 L 88.414062 278.558594 L 87.207031 278.03125 L 150.464844 218.941406 L 78.878906 274.140625 L 77.785156 273.59375 L 148.570312 216.546875 L 69.179688 268.996094 L 68.207031 268.441406 L 146.855469 214.023438 L 59.402344 263.03125 L 58.5625 262.476562 L 145.328125 211.382812 L 49.671875 256.148438 L 48.976562 255.617188 L 144.003906 208.636719 L 40.160156 248.273438 L 39.609375 247.777344 L 142.875 205.796875 L 31.113281 239.34375 L 30.707031 238.902344 L 141.960938 202.886719 L 22.816406 229.347656 L 22.535156 228.96875 L 141.261719 199.917969 L 15.601562 218.332031 L 15.429688 218.027344 L 140.78125 196.90625 L 9.808594 206.40625 L 9.714844 206.179688 L 140.523438 193.867188 L 5.734375 193.78125 L 5.699219 193.621094 L 140.484375 190.816406 L 3.601562 180.710938 L 3.59375 180.601562 L 140.671875 187.769531 L 3.496094 167.496094 L 141.078125 184.75 L 5.417969 154.4375 L 141.703125 181.761719 L 9.257812 141.824219 L 142.546875 178.832031 L 14.832031 129.890625 L 14.890625 129.785156 L 143.605469 175.96875 L 21.859375 118.800781 L 21.960938 118.664062 L 144.867188 173.191406 L 30.054688 108.664062 L 30.210938 108.488281 L 146.324219 170.511719 L 39.136719 99.5 L 39.363281 99.292969 L 147.976562 167.949219 L 48.867188 91.3125 L 49.164062 91.082031 L 149.8125 165.511719 L 59.027344 84.0625 L 59.402344 83.8125 L 151.820312 163.214844 L 69.46875 77.6875 L 69.925781 77.429688 L 153.992188 161.070312 L 80.066406 72.121094 L 80.597656 71.863281 L 156.3125 159.089844 L 90.730469 67.300781 L 91.332031 67.050781 L 158.769531 157.28125 L 101.410156 63.15625 L 102.074219 62.921875 L 161.355469 155.664062 L 112.0625 59.632812 L 112.78125 59.414062 L 164.050781 154.234375 L 122.664062 56.671875 L 123.433594 56.480469 L 166.84375 153.007812 L 133.21875 54.230469 L 134.023438 54.066406 L 169.722656 151.988281 L 143.71875 52.273438 L 144.554688 52.136719 L 172.664062 151.179688 L 154.179688 50.765625 L 155.039062 50.660156 L 175.65625 150.589844 L 164.617188 49.683594 L 165.488281 49.609375 L 178.683594 150.21875 L 175.046875 49.011719 L 175.925781 48.96875 L 181.730469 150.070312 L 185.496094 48.738281 L 186.375 48.730469 L 184.78125 150.144531 L 195.988281 48.859375 L 196.855469 48.886719 L 187.816406 150.441406 L 206.546875 49.386719 L 207.394531 49.449219 L 190.824219 150.960938 L 217.195312 50.339844 L 218.019531 50.433594 L 193.785156 151.691406 L 227.953125 51.746094 L 228.738281 51.863281 L 196.683594 152.644531 L 238.832031 53.632812 L 239.574219 53.78125 L 199.507812 153.804688 L 249.84375 56.050781 L 250.53125 56.21875 L 202.234375 155.164062 L 260.980469 59.042969 L 261.609375 59.230469 L 204.859375 156.722656 L 272.234375 62.675781 L 272.789062 62.871094 L 207.359375 158.464844 L 283.570312 67.007812 L 284.050781 67.207031 L 209.730469 160.390625 L 294.9375 72.121094 L 295.328125 72.3125 L 211.953125 162.480469 L 306.253906 78.09375 L 306.558594 78.269531 L 214.015625 164.726562 L 317.394531 85.003906 L 317.613281 85.152344 L 215.90625 167.121094 L 328.199219 92.933594 L 328.332031 93.039062 L 217.625 169.640625 L 338.445312 101.929688 L 219.148438 172.285156 L 347.878906 112.039062 L 220.476562 175.03125 L 353.402344 124.289062 L 221.601562 177.867188 L 357.875 136.960938 L 222.515625 180.777344 L 361.417969 149.929688 L 223.214844 183.746094 L 364 163.121094 L 223.699219 186.761719 L 365.609375 176.464844 L 223.957031 189.800781 L 366.238281 189.890625 L 223.992188 192.847656 L 365.886719 203.328125 L 223.808594 195.894531 L 360.628906 216.117188 L 223.398438 198.917969 L 353.230469 227.925781 L 353.101562 228.101562 L 222.773438 201.90625 L 344.550781 238.625 L 344.308594 238.894531 L 221.929688 204.835938 L 334.976562 248.152344 L 334.59375 248.5 L 220.875 207.699219 L 324.847656 256.519531 L 324.3125 256.925781 L 219.613281 210.476562 L 314.449219 263.777344 L 313.757812 264.222656 L 218.152344 213.15625 L 303.992188 270.023438 L 303.148438 270.488281 L 216.5 215.71875 L 293.628906 275.355469 L 292.648438 275.820312 L 214.667969 218.15625 L 283.46875 279.878906 L 282.359375 280.335938 L 212.65625 220.453125 L 273.558594 283.699219 L 272.339844 284.132812 L 210.488281 222.597656 L 263.941406 286.910156 L 262.625 287.308594 L 208.167969 224.578125 L 254.613281 289.582031 L 253.214844 289.949219 L 205.707031 226.382812 L 245.570312 291.796875 L 244.105469 292.121094 "/>
<path style=" stroke:none;fill-rule:nonzero;fill:rgb(17.248535%,19.219971%,54.119873%);fill-opacity:1;" d="M 8.96875 142.589844 C 14.90625 133.636719 22.433594 126.3125 31.550781 120.621094 C 34.5625 115.070312 39.417969 111.664062 46.128906 110.402344 L 51.566406 101.292969 C 50.75 97.421875 50.402344 93.671875 50.527344 90.046875 C 53.628906 59.207031 80.164062 49.21875 104.34375 62.128906 C 109.015625 64.710938 111.746094 72.0625 111.183594 80.820312 L 128.710938 92.417969 C 122.171875 96.339844 115.925781 96.03125 110.964844 95.863281 L 110.496094 99.261719 L 107.777344 102.441406 L 109.351562 110.859375 C 110.371094 114.210938 108.175781 115.878906 102.765625 115.871094 L 102.765625 119.046875 C 101.902344 120.300781 100.460938 120.976562 98.441406 121.078125 C 100.667969 123.703125 100.132812 125.222656 96.835938 125.632812 C 96.066406 138.132812 87.722656 134.351562 79.113281 131.332031 L 78.960938 137.019531 C 92.699219 147.378906 98.980469 152.144531 100.703125 157.242188 C 103.382812 158.160156 108.472656 156.945312 115.980469 153.59375 L 126.410156 140.222656 L 132.820312 136.984375 C 149.820312 112.414062 166.847656 95.292969 179.410156 89.238281 C 213.277344 73.648438 253.808594 67.375 285.195312 67.6875 C 337.15625 89.734375 371.710938 128.847656 371.710938 173.421875 C 371.710938 242.289062 289.238281 298.117188 187.503906 298.117188 C 85.765625 298.117188 3.292969 242.289062 3.292969 173.421875 C 3.292969 162.78125 5.265625 152.449219 8.96875 142.589844 "/>
<path style=" stroke:none;fill-rule:evenodd;fill:rgb(100%,100%,100%);fill-opacity:1;" d="M 188.265625 96.363281 C 248.511719 98.855469 300.550781 107.996094 344.378906 123.777344 C 351.8125 126.566406 358.269531 132.402344 355.113281 142.699219 C 338.128906 181.636719 322.789062 212.285156 309.101562 234.636719 C 307.148438 238.417969 300.265625 238.949219 297.402344 238.171875 C 272.910156 231.515625 235.25 223.5 184.429688 214.117188 L 206.972656 196.445312 L 217.960938 188 L 226.929688 188.773438 L 237.917969 185.714844 C 245.171875 173.917969 256.039062 156.117188 253.042969 144.527344 C 246.757812 145.527344 236.167969 142.160156 232.570312 142.367188 L 228.4375 147.308594 C 220.347656 145.75 213.867188 147.707031 209 153.171875 L 201.222656 166.574219 C 198.433594 168.3125 185.839844 171.878906 163.441406 177.265625 L 136.585938 181.359375 L 128.398438 177.480469 L 128.398438 174.164062 L 144.261719 171.359375 L 153.222656 165.714844 C 157.273438 153 157.777344 144.304688 154.730469 139.640625 L 140.941406 138.085938 L 171.109375 102.269531 C 175.574219 97.710938 181.289062 95.746094 188.265625 96.363281 "/>
<path style=" stroke:none;fill-rule:evenodd;fill:rgb(100%,100%,100%);fill-opacity:1;" d="M 288.539062 242.132812 L 170.402344 219.625 L 159.28125 224.300781 L 279.1875 244.191406 L 288.539062 242.132812 "/>
<path style=" stroke:none;fill-rule:nonzero;fill:rgb(47.839355%,81.568909%,88.238525%);fill-opacity:1;" d="M 202.480469 97.085938 C 222.226562 98.273438 241.054688 100.207031 258.960938 102.890625 C 296.363281 120.074219 319.230469 146.761719 336.726562 182.953125 C 326.871094 203.425781 317.664062 220.65625 309.101562 234.636719 C 308.578125 235.648438 307.703125 236.425781 306.648438 237.011719 C 300.265625 174.242188 247.410156 113.585938 202.480469 97.085938 "/>
<path style=" stroke:none;fill-rule:evenodd;fill:rgb(100%,100%,100%);fill-opacity:1;" d="M 313.769531 111.148438 C 281.0625 98.652344 245.578125 93.195312 207.308594 94.769531 C 239.710938 95.917969 275.199219 101.378906 313.769531 111.148438 "/>
<path style=" stroke:none;fill-rule:nonzero;fill:rgb(17.248535%,19.219971%,54.119873%);fill-opacity:1;" d="M 138.304688 143.3125 C 143.445312 130.222656 154.800781 122.601562 163.664062 126.285156 C 172.527344 129.96875 175.546875 143.566406 170.40625 156.65625 C 165.265625 169.746094 153.910156 177.371094 145.046875 173.683594 C 136.183594 170 133.164062 156.402344 138.304688 143.3125 "/>
<path style=" stroke:none;fill-rule:nonzero;fill:rgb(17.248535%,19.219971%,54.119873%);fill-opacity:1;" d="M 226.835938 161.660156 C 233.683594 147.761719 247.597656 140.183594 257.910156 144.738281 C 268.222656 149.292969 271.035156 164.253906 264.1875 178.15625 C 257.335938 192.054688 243.425781 199.632812 233.109375 195.078125 C 222.796875 190.523438 219.988281 175.5625 226.835938 161.660156 "/>
<path style=" stroke:none;fill-rule:evenodd;fill:rgb(100%,100%,100%);fill-opacity:1;" d="M 107.460938 80.832031 C 86 85.140625 68.007812 82.085938 57.011719 80.3125 C 57.171875 74.539062 62.292969 67.078125 67.457031 63.125 C 77.464844 55.949219 109.882812 57.558594 107.460938 80.832031 "/>
<path style=" stroke:none;fill-rule:evenodd;fill:rgb(100%,100%,100%);fill-opacity:1;" d="M 109.421875 83.050781 L 124.648438 91.515625 C 110.097656 94.554688 98.566406 92.605469 90.050781 85.679688 C 99.972656 84.867188 106.429688 83.992188 109.421875 83.050781 "/>
<path style=" stroke:none;fill-rule:evenodd;fill:rgb(100%,100%,100%);fill-opacity:1;" d="M 104.242188 94.074219 L 104.242188 97.144531 L 99.636719 99.535156 C 99.269531 106.574219 97.226562 112.03125 93.496094 115.914062 C 93.703125 121.464844 93.25 125.390625 92.128906 127.683594 C 91.25 132.210938 86.8125 131.699219 78.824219 126.148438 C 74.453125 122.785156 73.035156 117.097656 74.558594 109.089844 C 64.609375 111.019531 75.582031 78.207031 82.066406 98 L 85.988281 98.851562 C 86.777344 96.695312 88.710938 94.761719 91.789062 93.050781 L 92.300781 91.171875 C 95.492188 92.746094 99.472656 93.714844 104.242188 94.074219 "/>
<path style=" stroke:none;fill-rule:evenodd;fill:rgb(100%,100%,100%);fill-opacity:1;" d="M 54.082031 103.285156 L 49.90625 111.496094 C 60.308594 115.917969 67.558594 122.496094 72.851562 129.902344 C 69.667969 121.421875 69.667969 115.054688 72.851562 110.792969 C 69.679688 110.351562 67.253906 108.347656 67.242188 105.605469 C 61.789062 104.675781 58.933594 103.1875 54.082031 103.285156 "/>
<path style=" stroke:none;fill-rule:evenodd;fill:rgb(100%,100%,100%);fill-opacity:1;" d="M 129.355469 186.421875 L 138.074219 189.582031 L 162.902344 186.160156 C 167.863281 192.269531 169.582031 198.253906 168.050781 204.117188 C 162.960938 206.429688 151.953125 209.683594 135.03125 213.886719 C 150.324219 212.195312 161.328125 210.214844 168.050781 207.949219 C 159.40625 215.230469 147.558594 220.429688 132.515625 223.539062 C 127.472656 222.59375 123.867188 221.230469 121.695312 219.445312 L 112.570312 217.71875 C 124.46875 212.789062 130.0625 202.355469 129.355469 186.421875 "/>
<path style=" stroke:none;fill-rule:evenodd;fill:rgb(100%,100%,100%);fill-opacity:1;" d="M 166.984375 181.964844 L 199.585938 171.96875 C 205.59375 179.089844 207.722656 185.507812 205.96875 191.222656 L 175.480469 213.375 C 175.910156 198.480469 173.078125 188.007812 166.984375 181.964844 "/>
<path style=" stroke:none;fill-rule:evenodd;fill:rgb(100%,100%,100%);fill-opacity:1;" d="M 202.332031 171.96875 C 206.28125 175.675781 208.453125 181.136719 208.84375 188.347656 L 211.414062 186.824219 C 211.363281 178.765625 208.9375 173.203125 204.140625 170.140625 L 202.332031 171.96875 "/>
<path style=" stroke:none;fill-rule:evenodd;fill:rgb(100%,100%,100%);fill-opacity:1;" d="M 205.511719 166.808594 L 211.242188 155.597656 C 212.25 154.265625 215.667969 151.722656 218.40625 150.125 C 221.234375 149.539062 223.8125 149.539062 226.136719 150.125 L 220.824219 153.914062 C 220.558594 155.027344 220.964844 155.839844 222.042969 156.355469 L 238.421875 155.589844 C 239.667969 159.011719 239.820312 160.925781 238.878906 161.339844 L 230.527344 163.082031 C 229.707031 163.546875 229.710938 164.1875 230.539062 165 L 237.507812 163.324219 C 238.710938 165.480469 238.5 167.144531 236.867188 168.324219 L 231.539062 170.125 C 231.039062 170.589844 231.070312 171.089844 231.625 171.625 L 236.777344 170.214844 C 237.578125 171.425781 237.414062 172.96875 236.289062 174.84375 L 231.410156 176.070312 C 230.703125 176.542969 230.703125 177.011719 231.410156 177.480469 L 235.984375 176.371094 C 236.636719 177.109375 236.289062 178.578125 234.9375 180.769531 C 231.386719 182.90625 227.34375 184.269531 222.804688 184.863281 L 217.035156 184.710938 L 214.3125 186.519531 C 213.855469 179.195312 210.921875 172.625 205.511719 166.808594 "/>
<path style=" stroke:none;fill-rule:evenodd;fill:rgb(100%,100%,100%);fill-opacity:1;" d="M 118.128906 156.949219 L 129.824219 142.503906 L 138.011719 141.320312 L 148.757812 143.878906 C 147.1875 147.578125 142.421875 149.050781 136.082031 147.777344 L 130.414062 157.503906 C 131.964844 162.644531 131.125 166.871094 127.890625 170.179688 L 120.53125 172.167969 C 121.691406 167.019531 120.339844 161.671875 118.128906 156.949219 "/>
<path style=" stroke:none;fill-rule:evenodd;fill:rgb(100%,100%,100%);fill-opacity:1;" d="M 148.777344 146.792969 L 150.074219 151.152344 L 149.175781 153.78125 L 143.617188 156.847656 L 134.628906 156.046875 C 133.632812 154.703125 134.210938 153.25 136.359375 151.6875 L 142.550781 151.285156 L 146.113281 150.089844 L 148.777344 146.792969 "/>
<path style=" stroke:none;fill-rule:evenodd;fill:rgb(100%,100%,100%);fill-opacity:1;" d="M 148.644531 155.648438 L 147.179688 159.742188 L 141.886719 162.90625 L 136.359375 161.304688 C 135.335938 159.65625 135.554688 158.515625 137.027344 157.878906 L 142.949219 158.542969 L 148.644531 155.648438 "/>
<path style=" stroke:none;fill-rule:evenodd;fill:rgb(100%,100%,100%);fill-opacity:1;" d="M 147.445312 161.441406 L 142.816406 164.238281 L 136.492188 163.304688 C 135.605469 164.542969 135.605469 165.644531 136.492188 166.601562 L 142.019531 167.796875 C 145.285156 166.289062 147.09375 164.167969 147.445312 161.441406 "/>
<path style=" stroke:none;fill-rule:evenodd;fill:rgb(100%,100%,100%);fill-opacity:1;" d="M 116.511719 157.828125 C 118.359375 161.847656 118.742188 167.324219 117.851562 172.292969 L 114.894531 172.609375 C 115.628906 167.558594 114.289062 162.167969 113.5 158.710938 L 116.511719 157.828125 "/>
<path style=" stroke:none;fill-rule:nonzero;fill:rgb(100%,100%,100%);fill-opacity:1;" d="M 67.820312 128.734375 C 72.148438 132.429688 74.726562 135.71875 75.554688 138.601562 C 89.683594 148.640625 94.195312 155.59375 100.226562 166.273438 C 108.265625 168.550781 118.117188 178.171875 124.691406 181.964844 C 128.386719 196.695312 118.460938 211.972656 104.839844 216.65625 C 91.21875 214.128906 77.996094 207.21875 65.171875 195.929688 C 59.773438 193.300781 56.9375 181.050781 55.082031 164.570312 C 46.75 183.386719 52.011719 200.984375 55.082031 216.121094 C 49.089844 219.398438 38.296875 223.757812 22.707031 229.199219 C 10.550781 212.773438 3.59375 194.277344 3.304688 174.699219 C 11.578125 146.117188 20.984375 130.082031 31.527344 126.597656 C 39.535156 125.246094 50.828125 126.703125 65.40625 130.972656 C 53.082031 125.476562 44.425781 122.371094 39.4375 121.664062 C 39.429688 117.171875 41.449219 114.816406 45.492188 114.59375 C 52.765625 116.351562 60.207031 121.0625 67.820312 128.734375 "/>
<path style=" stroke:none;fill-rule:evenodd;fill:rgb(100%,100%,100%);fill-opacity:1;" d="M 234.273438 145.804688 L 239.914062 149.472656 L 259.546875 152.019531 L 256.4375 149.332031 L 240.199219 147.925781 L 235.542969 144.675781 L 234.273438 145.804688 "/>
<path style=" stroke:none;fill-rule:evenodd;fill:rgb(100%,100%,100%);fill-opacity:1;" d="M 231.871094 146.085938 L 226.507812 153.285156 L 233 153.425781 L 235.964844 149.332031 L 231.871094 146.085938 "/>
<path style=" stroke:none;fill-rule:evenodd;fill:rgb(100%,100%,100%);fill-opacity:1;" d="M 245 157.378906 L 258.273438 161.617188 C 254.523438 162.128906 253.960938 164.386719 256.578125 168.394531 L 243.167969 162.464844 L 245 157.378906 "/>
<path style=" stroke:none;fill-rule:evenodd;fill:rgb(100%,100%,100%);fill-opacity:1;" d="M 263.925781 160.066406 C 255.9375 182.78125 244.925781 191.347656 230.882812 185.757812 L 232.007812 189.433594 C 244.859375 198.75 265.617188 179.972656 263.925781 160.066406 "/>
<path style=" stroke:none;fill-rule:evenodd;fill:rgb(17.248535%,19.219971%,54.119873%);fill-opacity:1;" d="M 136.996094 139.625 L 144.675781 126.492188 L 162.9375 127.679688 L 162.765625 134.847656 L 151.671875 140.476562 L 140.070312 140.476562 L 136.996094 139.625 "/>
<path style=" stroke:none;fill-rule:evenodd;fill:rgb(100%,100%,100%);fill-opacity:1;" d="M 162.765625 132.976562 L 151.164062 131.777344 L 149.449219 134.847656 L 164.128906 136.730469 L 162.765625 132.976562 "/>
<path style=" stroke:none;fill-rule:evenodd;fill:rgb(100%,100%,100%);fill-opacity:1;" d="M 161.394531 141.164062 C 159.390625 142.457031 158.824219 144.222656 159.691406 146.453125 L 151.84375 143.890625 L 152.351562 140.644531 L 161.394531 141.164062 "/>
<path style=" stroke:none;fill-rule:evenodd;fill:rgb(100%,100%,100%);fill-opacity:1;" d="M 169.414062 145.773438 C 162.773438 156.035156 155.382812 162.859375 147.238281 166.242188 L 145.878906 170.167969 C 157.5 168.726562 165.347656 160.59375 169.414062 145.773438 "/>
<path style=" stroke:none;fill-rule:evenodd;fill:rgb(100%,100%,100%);fill-opacity:1;" d="M 143.484375 133.007812 L 139.816406 139.785156 L 145.308594 140.429688 L 147.472656 134.617188 C 147.222656 131.800781 145.894531 131.261719 143.484375 133.007812 "/>
<path style=" stroke:none;fill-rule:evenodd;fill:rgb(100%,100%,100%);fill-opacity:1;" d="M 84.640625 223.625 L 41.625 243.039062 C 83.726562 269.800781 133.722656 284.125 191.605469 286.011719 C 138.238281 265.582031 102.578125 244.785156 84.640625 223.625 "/>
<path style=" stroke:none;fill-rule:nonzero;fill:rgb(47.839355%,81.568909%,88.238525%);fill-opacity:1;" d="M 54.082031 103.285156 C 56.195312 103.242188 57.925781 103.5 59.660156 103.882812 C 57.367188 108.636719 56.945312 112.671875 58.390625 115.984375 C 55.820312 114.320312 53.003906 112.8125 49.90625 111.496094 L 54.082031 103.285156 "/>
<path style=" stroke:none;fill-rule:nonzero;fill:rgb(47.839355%,81.568909%,88.238525%);fill-opacity:1;" d="M 91.785156 128.835938 C 90.378906 132.070312 86.058594 131.171875 78.824219 126.148438 C 74.453125 122.785156 73.035156 117.097656 74.558594 109.089844 C 68.492188 110.265625 70.199219 98.539062 73.925781 93.679688 C 71.121094 108.441406 74.636719 108.214844 77.125 108.253906 C 79.941406 116.183594 76.28125 127.886719 91.785156 128.835938 "/>
<path style=" stroke:none;fill-rule:nonzero;fill:rgb(47.839355%,81.568909%,88.238525%);fill-opacity:1;" d="M 94.832031 82.621094 C 78.976562 83.953125 65.773438 81.722656 57.011719 80.3125 C 57.152344 75.390625 60.894531 69.238281 65.195312 65.085938 C 65.355469 73.238281 75.230469 79.082031 94.832031 82.621094 "/>
<path style=" stroke:none;fill-rule:nonzero;fill:rgb(47.839355%,81.568909%,88.238525%);fill-opacity:1;" d="M 124.453125 91.554688 C 109.996094 94.535156 98.527344 92.574219 90.050781 85.679688 C 93.125 85.429688 95.867188 85.171875 98.277344 84.90625 C 105.96875 88.253906 114.691406 90.472656 124.453125 91.554688 "/>
<path style=" stroke:none;fill-rule:nonzero;fill:rgb(47.839355%,81.568909%,88.238525%);fill-opacity:1;" d="M 206.1875 183.917969 C 206.75 186.46875 206.679688 188.90625 205.96875 191.222656 L 175.476562 213.375 C 175.6875 206.105469 175.121094 199.894531 173.777344 194.734375 L 179.550781 199.042969 L 206.1875 183.917969 "/>
<path style=" stroke:none;fill-rule:nonzero;fill:rgb(47.839355%,81.568909%,88.238525%);fill-opacity:1;" d="M 168.546875 201.152344 C 168.472656 202.144531 168.308594 203.132812 168.050781 204.117188 C 162.960938 206.429688 151.953125 209.683594 135.03125 213.886719 C 150.324219 212.195312 161.328125 210.214844 168.050781 207.949219 C 159.40625 215.230469 147.558594 220.429688 132.515625 223.539062 C 127.472656 222.59375 123.867188 221.230469 121.695312 219.445312 L 112.570312 217.71875 C 118.296875 215.34375 122.566406 211.699219 125.371094 206.773438 L 133.757812 208.722656 L 168.546875 201.152344 "/>
</g>
</svg>
