<?xml version="1.0" encoding="UTF-8"?>
<svg xmlns="http://www.w3.org/2000/svg" xmlns:xlink="http://www.w3.org/1999/xlink" width="375pt" height="374.999991pt" viewBox="0 0 375 374.999991" version="1.2">
<defs>
<clipPath id="clip1">
  <path d="M 63.246094 63.246094 L 311.496094 63.246094 L 311.496094 311.496094 L 63.246094 311.496094 Z M 63.246094 63.246094 "/>
</clipPath>
<clipPath id="clip2">
  <path d="M 112.5 129.46875 L 258 129.46875 L 258 245.71875 L 112.5 245.71875 Z M 112.5 129.46875 "/>
</clipPath>
</defs>
<g id="surface1">
<g clip-path="url(#clip1)" clip-rule="nonzero">
<path style=" stroke:none;fill-rule:nonzero;fill:rgb(100%,100%,100%);fill-opacity:1;" d="M 187.371094 75.660156 C 248.976562 75.660156 299.085938 125.769531 299.085938 187.371094 C 299.085938 248.976562 248.976562 299.085938 187.371094 299.085938 C 125.769531 299.085938 75.660156 248.976562 75.660156 187.371094 C 75.660156 125.769531 125.769531 75.660156 187.371094 75.660156 M 187.371094 63.246094 C 118.820312 63.246094 63.246094 118.820312 63.246094 187.371094 C 63.246094 255.925781 118.820312 311.496094 187.371094 311.496094 C 255.925781 311.496094 311.496094 255.925781 311.496094 187.371094 C 311.496094 118.820312 255.925781 63.246094 187.371094 63.246094 Z M 187.371094 63.246094 "/>
</g>
<g clip-path="url(#clip2)" clip-rule="nonzero">
<path style=" stroke:none;fill-rule:evenodd;fill:rgb(100%,100%,100%);fill-opacity:1;" d="M 166.28125 220.9375 C 173.769531 220.9375 179.839844 226.476562 179.839844 233.308594 C 179.839844 240.136719 173.769531 245.675781 166.28125 245.675781 C 158.792969 245.675781 152.726562 240.136719 152.726562 233.308594 C 152.726562 226.476562 158.792969 220.9375 166.28125 220.9375 Z M 234.808594 220.9375 C 242.296875 220.9375 248.363281 226.476562 248.363281 233.308594 C 248.363281 240.136719 242.296875 245.675781 234.808594 245.675781 C 227.324219 245.675781 221.253906 240.136719 221.253906 233.308594 C 221.253906 226.476562 227.324219 220.9375 234.808594 220.9375 Z M 232.839844 224.832031 C 235.785156 224.832031 238.171875 227.015625 238.171875 229.703125 C 238.171875 232.394531 235.785156 234.574219 232.839844 234.574219 C 229.890625 234.574219 227.5 232.394531 227.5 229.703125 C 227.5 227.015625 229.890625 224.832031 232.839844 224.832031 Z M 165.945312 156.777344 C 176.347656 155.734375 204.941406 158.203125 215.425781 158.867188 C 223.804688 159.4375 232.179688 160.0625 240.523438 161.078125 C 244.15625 161.453125 246.003906 159.777344 242.585938 165.832031 C 238.898438 172.355469 235.371094 179.234375 228.308594 188.855469 C 227.949219 190.4375 227.292969 190.25 224.90625 190.570312 C 224.875 190.5625 197.8125 191.074219 195.148438 191.042969 C 188.148438 190.902344 181.183594 190.6875 174.199219 190.1875 C 168.640625 190.1875 166.640625 186.617188 165.488281 183.4375 C 159.59375 167.195312 152.269531 150.351562 146.21875 134.429688 C 145.664062 132.890625 144.910156 131.867188 143.609375 130.875 C 142.261719 129.949219 141.054688 129.554688 139.417969 129.511719 C 132.808594 129.824219 125.136719 130.167969 118.664062 131.542969 C 117.132812 131.910156 113.230469 132.738281 112.5 134.363281 C 113.515625 137.882812 123.535156 137.226562 131.320312 138.164062 C 135.261719 138.640625 135.164062 139.433594 136.226562 143.398438 C 140.597656 159.6875 146.066406 174.820312 151.90625 190.78125 C 155.183594 199.59375 154.703125 203.0625 165.136719 204.433594 C 167.90625 204.769531 170.644531 204.941406 173.425781 205.078125 C 180.710938 205.378906 187.941406 205.378906 195.230469 205.273438 C 204.523438 205.109375 222.660156 204.945312 231.25 202.550781 C 232.839844 201.980469 233.898438 201.203125 234.890625 199.832031 C 242.632812 187.605469 247.089844 175.335938 255.644531 162.558594 C 262.5 152.835938 245.578125 152.230469 241.085938 152.03125 C 232.660156 151.785156 224.054688 151.640625 215.628906 151.703125 C 210.964844 151.738281 206.296875 151.703125 201.628906 151.742188 C 200.972656 151.746094 150.605469 152.101562 165.945312 156.777344 Z M 220.816406 227.167969 C 219.582031 225.300781 216.09375 223.445312 212.675781 222 C 207.21875 219.691406 195.089844 216.019531 190.230469 216.417969 C 187.003906 216.679688 183.214844 217.941406 185.15625 223.113281 C 185.328125 223.628906 185.683594 224.898438 185.28125 225.382812 C 182.753906 227.515625 177.621094 223.601562 175.90625 221.785156 C 175.066406 220.578125 174.578125 219.574219 174.296875 218.113281 C 174.09375 216.535156 174.277344 215.332031 174.96875 213.894531 C 175.675781 212.566406 176.476562 211.742188 177.710938 210.898438 C 178.484375 210.394531 179.160156 210.066406 180.023438 209.742188 C 180.398438 209.617188 180.742188 209.511719 181.128906 209.40625 C 183.792969 208.726562 186.269531 208.71875 189.007812 208.878906 C 198.863281 209.777344 209.207031 213.902344 217.019531 220.039062 C 218.042969 220.871094 225.386719 228.332031 220.816406 227.167969 Z M 164.308594 224.832031 C 167.257812 224.832031 169.648438 227.015625 169.648438 229.703125 C 169.648438 232.394531 167.257812 234.574219 164.308594 234.574219 C 161.359375 234.574219 158.96875 232.394531 158.96875 229.703125 C 158.96875 227.015625 161.359375 224.832031 164.308594 224.832031 "/>
</g>
</g>
</svg>
